#N canvas 0 30 681 736 12;
#X msg 24 331 save_hd;
#X msg 30 386 load_hd;
#X obj 10 445 sdObjSaveAllToDisk gTab;
#X msg 266 341 list save 0;
#X msg 358 343 list load 0;
#X obj 395 193 sdPropertySym save-dir \$0 save intern;
#X obj 106 386 r \$0-save-dir;
#X msg 106 412 set filename \$1/tables.save;
#X obj 377 386 r \$0-save-dir;
#X obj 182 5 inlet;
#X obj 395 265 outlet;
#X obj 23 200 t b b;
#X obj 144 196 t b b;
#X msg 377 411 list set 3 save-dir 1 \$1;
#X obj 182 30 t a a;
#X obj 569 60 route init;
#X msg 569 85 priv.set save load;
#X obj 558 17 bng 15 250 50 0 empty empty empty 17 7 0 10 -262144 -1
-1;
#X symbolatom 335 678 10 0 0 0 - - -;
#X obj 569 110 s \$0-events_rcv;
#X obj 427 229 sdPropertyList events \$0;
#X obj 335 628 r \$0-events;
#X obj 335 653 l2s;
#X obj 338 510 r \$0-save-dir;
#X symbolatom 338 535 10 0 0 0 - - -;
#X symbolatom 335 597 10 0 0 0 - - -;
#X obj 335 572 r \$0-dest;
#X obj 334 447 send;
#X obj 372 446 r \$0-dest;
#X obj 372 158 sdPropertySym dest \$0 \$1 intern;
#X obj 61 74 route save load save-audio load-audio;
#X obj 174 223 s \$0-load-audio;
#X obj 56 226 s \$0-save-audio;
#X obj 253 129 s \$0-load-audio;
#X obj 189 155 s \$0-save-audio;
#X obj 260 309 r \$0-save-audio;
#X obj 390 310 r \$0-load-audio;
#X obj 350 73 route save-data load-data;
#X obj 389 128 s \$0-save-data;
#X obj 453 101 s \$0-load-data;
#X obj 142 250 s \$0-load-data;
#X obj 24 253 s \$0-save-data;
#X obj 24 305 r \$0-save-data;
#X obj 30 360 r \$0-load-data;
#X connect 0 0 2 0;
#X connect 1 0 2 0;
#X connect 3 0 27 0;
#X connect 4 0 27 0;
#X connect 5 0 10 0;
#X connect 5 1 20 0;
#X connect 6 0 7 0;
#X connect 7 0 2 0;
#X connect 8 0 13 0;
#X connect 9 0 14 0;
#X connect 11 0 41 0;
#X connect 11 1 32 0;
#X connect 12 0 40 0;
#X connect 12 1 31 0;
#X connect 13 0 27 0;
#X connect 14 0 30 0;
#X connect 14 1 15 0;
#X connect 15 0 16 0;
#X connect 16 0 19 0;
#X connect 17 0 15 0;
#X connect 20 0 10 0;
#X connect 21 0 22 0;
#X connect 22 0 18 0;
#X connect 23 0 24 0;
#X connect 26 0 25 0;
#X connect 28 0 27 1;
#X connect 29 0 10 0;
#X connect 29 1 5 0;
#X connect 30 0 11 0;
#X connect 30 1 12 0;
#X connect 30 2 34 0;
#X connect 30 3 33 0;
#X connect 30 4 37 0;
#X connect 35 0 3 0;
#X connect 36 0 4 0;
#X connect 37 0 38 0;
#X connect 37 1 39 0;
#X connect 37 2 29 0;
#X connect 42 0 0 0;
#X connect 43 0 1 0;
