#N canvas 0 30 721 736 10;
#X obj 27 24 inlet;
#X obj 312 274 outlet;
#X symbolatom 637 75 10 0 0 0 - - -;
#X obj 27 97 s \$0-Normalize;
#X obj 88 72 s \$0-Clear;
#X obj 27 48 route normalize clear;
#X floatatom 727 73 8 0 0 0 - - -;
#X obj 727 52 r \$0-size;
#X obj 637 53 r \$0-table;
#X text 21 5 messages;
#X obj 62 173 loadbang;
#X obj 38 225 f \$2;
#X obj 62 195 t b b;
#X obj 338 404 r \$0-length;
#X obj 338 427 sdSizeFromLength;
#X obj 338 473 s \$0-size_rcv;
#X obj 202 401 r \$0-size;
#X obj 202 424 sdLengthFromSize;
#X obj 202 471 s \$0-length_rcv;
#X floatatom 797 72 6 0 0 0 - - -;
#X obj 797 51 r \$0-length;
#X obj 610 296 r \$0-table;
#X obj 6 310 s \$0-tableLength;
#X floatatom 634 121 8 0 0 0 - - -;
#X floatatom 740 121 6 0 0 0 - - -;
#X obj 634 100 r \$0-tableSize;
#X obj 740 100 r \$0-tableLength;
#X obj 358 117 sdProperty size \$0;
#X obj 371 141 sdProperty tableSize \$0;
#X obj 336 87 sdProperty length \$0;
#X msg 338 449 priv.set \$1;
#X msg 202 447 priv.set_noupdate \$1;
#X obj 112 323 f \$3;
#X obj 38 248 t f f;
#X obj 36 272 sdGate;
#X obj 112 302 t b;
#X obj 103 350 s \$0-tableSize;
#X obj 17 661 soundfiler;
#X obj 17 514 r \$0-save;
#X obj 518 639 send;
#X obj 588 600 sdSymbolBang \$1;
#X msg 588 623 symbol \$1.array;
#X msg 520 611 const 0;
#X obj 588 576 r \$0-table;
#X obj 520 588 r \$0-Clear;
#X obj 506 543 r \$0-Normalize;
#X msg 506 566 normalize;
#X msg 482 517 resize \$1;
#X obj 482 493 + 3;
#X obj 493 468 r \$0-tableSize;
#X obj 482 444 sdSizeFromLength;
#X obj 482 421 r \$0-tableLength;
#X obj 17 612 pack s s;
#X obj 17 562 symbol \$1;
#X obj 62 588 r \$0-table;
#X obj 358 195 sdPropertySym savedir \$0 samples intern;
#X obj 459 674 r \$0-savedir;
#X obj 459 697 print savedir;
#X obj 68 538 r \$0-savedir;
#X obj 256 629 soundfiler;
#X obj 256 580 pack s s;
#X obj 236 556 symbol \$1;
#X obj 301 556 r \$0-table;
#X obj 287 532 r \$0-savedir;
#X obj 236 508 r \$0-load;
#X obj 318 58 sdPropertySym table \$0 \$1 intern;
#X obj 395 167 sdProperty tableLength \$0 \$2 intern;
#X msg 594 437 error: you didnt enter a name for the table!!, f 17
;
#X obj 594 488 print sdTable;
#X obj 470 277 t s s;
#X obj 462 324 sdGate;
#X obj 495 301 sdSymbolIsEq;
#X obj 470 253 r \$0-savedir;
#X msg 462 347 priv.set samples;
#X obj 462 370 s \$0-savedir_rcv;
#X msg 275 19 init;
#X obj 164 49 route save load;
#X obj 164 95 s \$0-save;
#X obj 180 73 s \$0-load;
#N canvas 0 30 721 736 rename 0;
#X obj 213 219 pack s s;
#X obj 199 156 t s s;
#X obj 177 80 t s s;
#X floatatom 251 133 5 0 0 0 - - -;
#X msg 213 243 \; \$2.array rename \$1.array \;;
#X obj 174 194 sdFirst;
#X obj 166 131 sdGate;
#X obj 210 104 sdSymbolIsEq;
#X obj 85 271 print sdTable;
#X msg 85 221 ERROR: you didnt enter a name for the table!!, f 17
;
#X obj 172 36 inlet;
#X connect 0 0 4 0;
#X connect 1 0 0 1;
#X connect 1 1 5 0;
#X connect 2 0 6 0;
#X connect 2 1 7 0;
#X connect 5 1 0 0;
#X connect 6 0 9 0;
#X connect 6 1 1 0;
#X connect 7 0 3 0;
#X connect 7 0 6 1;
#X connect 9 0 8 0;
#X connect 10 0 2 0;
#X restore 610 320 pd rename;
#X obj 103 511 bng 15 250 50 0 empty empty empty 17 7 0 10 -262144
-1 -1;
#X msg 17 636 write -wave \$1/\$2.wav \$2.array;
#X msg 256 605 read \$1/\$2.wav \$2.array;
#X obj 403 222 sdPropertyList events \$0;
#X obj 251 77 t a a;
#X obj 133 140 route init;
#X msg 133 163 priv.set normalize clear save load;
#X obj 133 186 s \$0-events_rcv;
#X connect 0 0 5 0;
#X connect 5 0 3 0;
#X connect 5 1 4 0;
#X connect 5 2 76 0;
#X connect 7 0 6 0;
#X connect 8 0 2 0;
#X connect 10 0 12 0;
#X connect 11 0 33 0;
#X connect 12 0 11 0;
#X connect 13 0 14 0;
#X connect 14 0 30 0;
#X connect 16 0 17 0;
#X connect 17 0 31 0;
#X connect 20 0 19 0;
#X connect 21 0 79 0;
#X connect 25 0 23 0;
#X connect 26 0 24 0;
#X connect 27 0 1 0;
#X connect 27 1 28 0;
#X connect 28 1 66 0;
#X connect 29 0 1 0;
#X connect 29 1 27 0;
#X connect 30 0 15 0;
#X connect 31 0 18 0;
#X connect 32 0 36 0;
#X connect 33 0 34 0;
#X connect 33 1 34 1;
#X connect 34 0 22 0;
#X connect 34 1 35 0;
#X connect 35 0 32 0;
#X connect 38 0 53 0;
#X connect 40 0 41 0;
#X connect 41 0 39 1;
#X connect 42 0 39 0;
#X connect 43 0 40 0;
#X connect 44 0 42 0;
#X connect 45 0 46 0;
#X connect 46 0 39 0;
#X connect 47 0 39 0;
#X connect 48 0 47 0;
#X connect 49 0 48 0;
#X connect 50 0 48 0;
#X connect 51 0 50 0;
#X connect 52 0 81 0;
#X connect 53 0 52 0;
#X connect 54 0 52 1;
#X connect 55 0 1 0;
#X connect 55 1 83 0;
#X connect 56 0 57 0;
#X connect 58 0 53 1;
#X connect 60 0 82 0;
#X connect 61 0 60 0;
#X connect 62 0 60 1;
#X connect 63 0 61 1;
#X connect 64 0 61 0;
#X connect 65 0 1 0;
#X connect 65 1 29 0;
#X connect 66 1 55 0;
#X connect 67 0 68 0;
#X connect 69 0 70 0;
#X connect 69 1 71 0;
#X connect 70 0 73 0;
#X connect 71 0 70 1;
#X connect 72 0 69 0;
#X connect 73 0 74 0;
#X connect 75 0 5 0;
#X connect 76 0 77 0;
#X connect 76 1 78 0;
#X connect 76 2 84 0;
#X connect 80 0 53 0;
#X connect 81 0 37 0;
#X connect 82 0 59 0;
#X connect 83 0 1 0;
#X connect 84 0 85 0;
#X connect 84 1 65 0;
#X connect 85 0 86 0;
#X connect 86 0 87 0;
