#N canvas 0 30 681 722 10;
#X obj 27 24 inlet;
#X symbolatom 637 75 10 0 0 0 - - -;
#X obj 27 97 s \$0-Normalize;
#X obj 88 72 s \$0-Clear;
#X obj 27 48 route normalize clear;
#X floatatom 727 73 8 0 0 0 - - -;
#X obj 727 52 r \$0-size;
#X obj 637 53 r \$0-table;
#X text 21 5 messages;
#X obj 62 173 loadbang;
#X obj 38 225 f \$2;
#X obj 62 195 t b b;
#X obj 341 299 r \$0-length;
#X obj 341 322 sdSizeFromLength;
#X obj 341 368 s \$0-size_rcv;
#X obj 202 302 r \$0-size;
#X obj 202 325 sdLengthFromSize;
#X obj 202 372 s \$0-length_rcv;
#X floatatom 797 72 6 0 0 0 - - -;
#X obj 797 51 r \$0-length;
#X obj 610 296 r \$0-table;
#X obj 6 310 s \$0-tableLength;
#X floatatom 634 121 8 0 0 0 - - -;
#X floatatom 740 121 6 0 0 0 - - -;
#X obj 634 100 r \$0-tableSize;
#X obj 740 100 r \$0-tableLength;
#X obj 358 77 sdProperty size \$0;
#X obj 371 101 sdProperty tableSize \$0;
#X obj 336 47 sdProperty length \$0;
#X msg 341 344 priv.set \$1;
#X msg 202 348 priv.set_noupdate \$1;
#X obj 112 323 f \$3;
#X obj 38 248 t f f;
#X obj 36 272 sdGate;
#X obj 112 302 t b;
#X obj 103 350 s \$0-tableSize;
#X obj 34 415 r \$0-save;
#X obj 518 639 send;
#X obj 588 600 sdSymbolBang \$1;
#X msg 588 623 symbol \$1.array;
#X msg 520 611 const 0;
#X obj 588 576 r \$0-table;
#X obj 520 588 r \$0-Clear;
#X obj 506 543 r \$0-Normalize;
#X msg 506 566 normalize;
#X msg 482 517 resize \$1;
#X obj 482 493 + 3;
#X obj 493 468 r \$0-tableSize;
#X obj 482 444 sdSizeFromLength;
#X obj 482 421 r \$0-tableLength;
#X obj 130 415 r \$0-load;
#X obj 318 18 sdPropertySym table \$0 \$1 intern;
#X obj 371 129 sdProperty tableLength \$0 \$2 intern;
#X msg 275 19 init;
#X obj 164 49 route save load;
#X obj 164 95 s \$0-save;
#X obj 180 73 s \$0-load;
#N canvas 0 30 844 722 rename 0;
#X obj 213 219 pack s s;
#X obj 199 156 t s s;
#X obj 177 80 t s s;
#X floatatom 251 133 5 0 0 0 - - -;
#X msg 213 243 \; \$2.array rename \$1.array \;;
#X obj 174 194 sdFirst;
#X obj 166 131 sdGate;
#X obj 210 104 sdSymbolIsEq;
#X obj 85 271 print sdTable;
#X msg 85 221 ERROR: you didnt enter a name for the table!!, f 17
;
#X obj 172 36 inlet;
#X connect 0 0 4 0;
#X connect 1 0 0 1;
#X connect 1 1 5 0;
#X connect 2 0 6 0;
#X connect 2 1 7 0;
#X connect 5 1 0 0;
#X connect 6 0 9 0;
#X connect 6 1 1 0;
#X connect 7 0 3 0;
#X connect 7 0 6 1;
#X connect 9 0 8 0;
#X connect 10 0 2 0;
#X restore 610 320 pd rename;
#X obj 42 439 bng 15 250 50 0 empty empty empty 17 7 0 10 -262144 -1
-1;
#X obj 403 222 sdPropertyList events \$0;
#X obj 251 77 t a a;
#X obj 133 140 route init;
#X msg 133 163 priv.set normalize clear save load;
#X obj 133 186 s \$0-events_rcv;
#X symbolatom 635 176 10 0 0 0 - - -;
#X obj 379 192 sdPropertySym save-dir \$0 samples intern;
#X obj 597 267 outlet unknown;
#X obj 334 254 outlet out;
#X obj 633 149 r \$0-save-dir;
#X obj 150 441 bng 15 250 50 0 empty empty empty 17 7 0 10 -262144
-1 -1;
#X obj 605 384 r \$0-tableLength;
#X obj 605 407 sdSizeFromLength;
#X msg 605 430 priv.set \$1;
#X obj 605 453 s \$0-tableSize_rcv;
#N canvas 0 30 681 722 save 0;
#X obj 197 308 soundfiler;
#X obj 225 217 r \$0-table;
#X obj 197 261 pack s s s;
#X obj 271 250 r \$0-save-dir;
#X msg 197 285 write -wave \$3\$1 \$2.array;
#X obj 96 24 inlet;
#X obj 132 82 t s s;
#X obj 124 129 sdGate;
#X obj 157 106 sdSymbolIsEq;
#X obj 178 34 r \$0-filename;
#X obj 15 227 symbol \$1;
#X obj 66 180 r \$0-table;
#X msg 66 203 symbol \$1.wav;
#X obj 124 152 t b;
#X obj 127 59 symbol;
#X connect 1 0 2 1;
#X connect 2 0 4 0;
#X connect 3 0 2 2;
#X connect 4 0 0 0;
#X connect 5 0 14 0;
#X connect 6 0 7 0;
#X connect 6 1 8 0;
#X connect 7 0 13 0;
#X connect 7 1 2 0;
#X connect 8 0 7 1;
#X connect 9 0 14 1;
#X connect 10 0 2 0;
#X connect 11 0 12 0;
#X connect 12 0 10 1;
#X connect 13 0 10 0;
#X connect 14 0 6 0;
#X restore 35 465 pd save;
#N canvas 0 30 681 722 load 0;
#X obj 226 393 soundfiler;
#X obj 254 296 r \$0-table;
#X msg 226 440 priv.set \$1;
#X obj 226 343 t a a;
#X obj 226 463 s \$0-tableSize_rcv;
#X obj 226 416 - 3;
#X obj 189 147 t s s;
#X obj 181 194 sdGate;
#X obj 214 171 sdSymbolIsEq;
#X obj 235 99 r \$0-filename;
#X obj 226 320 pack s s s;
#X obj 300 319 r \$0-save-dir;
#X msg 226 369 read -resize \$3\$1 \$2.array;
#X obj 72 292 symbol \$1;
#X obj 123 245 r \$0-table;
#X msg 123 268 symbol \$1.wav;
#X obj 181 217 t b;
#X obj 140 30 inlet;
#X obj 184 124 symbol;
#X connect 0 0 5 0;
#X connect 1 0 10 1;
#X connect 2 0 4 0;
#X connect 3 0 12 0;
#X connect 5 0 2 0;
#X connect 6 0 7 0;
#X connect 6 1 8 0;
#X connect 7 0 16 0;
#X connect 7 1 10 0;
#X connect 8 0 7 1;
#X connect 9 0 18 1;
#X connect 10 0 3 0;
#X connect 11 0 10 2;
#X connect 12 0 0 0;
#X connect 13 0 10 0;
#X connect 14 0 15 0;
#X connect 15 0 13 1;
#X connect 16 0 13 0;
#X connect 17 0 18 0;
#X connect 18 0 6 0;
#X restore 124 466 pd load;
#X symbolatom 730 179 10 0 0 0 - - -;
#X obj 728 152 r \$0-filename;
#X text 202 430 if filename == "" \, name + ".wav" is used;
#X text 202 406 save-dir is prepended to the filename;
#X obj 377 158 sdPropertySym filename \$0;
#X connect 0 0 4 0;
#X connect 4 0 2 0;
#X connect 4 1 3 0;
#X connect 4 2 54 0;
#X connect 6 0 5 0;
#X connect 7 0 1 0;
#X connect 9 0 11 0;
#X connect 10 0 32 0;
#X connect 11 0 10 0;
#X connect 12 0 13 0;
#X connect 13 0 29 0;
#X connect 15 0 16 0;
#X connect 16 0 30 0;
#X connect 19 0 18 0;
#X connect 20 0 57 0;
#X connect 24 0 22 0;
#X connect 25 0 23 0;
#X connect 26 0 67 0;
#X connect 26 1 27 0;
#X connect 27 0 67 0;
#X connect 27 1 52 0;
#X connect 28 0 67 0;
#X connect 28 1 26 0;
#X connect 29 0 14 0;
#X connect 30 0 17 0;
#X connect 31 0 35 0;
#X connect 32 0 33 0;
#X connect 32 1 33 1;
#X connect 33 0 21 0;
#X connect 33 1 34 0;
#X connect 34 0 31 0;
#X connect 36 0 74 0;
#X connect 38 0 39 0;
#X connect 39 0 37 1;
#X connect 40 0 37 0;
#X connect 41 0 38 0;
#X connect 42 0 40 0;
#X connect 43 0 44 0;
#X connect 44 0 37 0;
#X connect 45 0 37 0;
#X connect 46 0 45 0;
#X connect 47 0 46 0;
#X connect 48 0 46 0;
#X connect 49 0 48 0;
#X connect 50 0 75 0;
#X connect 51 0 67 0;
#X connect 51 1 28 0;
#X connect 52 0 67 0;
#X connect 52 1 80 0;
#X connect 53 0 4 0;
#X connect 54 0 55 0;
#X connect 54 1 56 0;
#X connect 54 2 60 0;
#X connect 58 0 74 0;
#X connect 59 0 67 0;
#X connect 59 1 66 0;
#X connect 60 0 61 0;
#X connect 60 1 51 0;
#X connect 61 0 62 0;
#X connect 62 0 63 0;
#X connect 65 0 67 0;
#X connect 65 1 59 0;
#X connect 68 0 64 0;
#X connect 69 0 75 0;
#X connect 70 0 71 0;
#X connect 71 0 72 0;
#X connect 72 0 73 0;
#X connect 77 0 76 0;
#X connect 80 0 67 0;
#X connect 80 1 65 0;
