#N canvas 0 30 721 736 10;
#X obj 73 16 inlet;
#X obj 37 98 sdPropertyList samples \$0;
#X obj 64 231 outlet;
#X obj 205 99 sdTableNoArray \$1 \$2;
#X obj 73 39 t a a;
#X connect 0 0 4 0;
#X connect 1 0 2 0;
#X connect 3 0 2 0;
#X connect 4 0 1 0;
#X connect 4 1 3 0;
