#N canvas 0 30 762 722 10;
#X obj 67 24 inlet;
#X obj 626 694 + 3;
#X obj 77 540 outlet;
#X symbolatom 249 42 10 0 0 0 - - -;
#X obj 642 492 pack s s;
#X obj 62 225 s \$0-Normalize;
#X obj 123 247 s \$0-Clear;
#X obj 62 201 route normalize clear;
#X floatatom 339 40 8 0 0 0 - - -;
#X obj 339 19 r \$0-size;
#X obj 249 20 r \$0-table;
#X text 61 5 messages;
#X text 68 565 comment;
#X obj 626 718 pack f s;
#X obj 671 684 r \$0-table;
#X obj 263 567 r \$0-Normalize;
#X obj 439 563 r \$0-Clear;
#X obj 350 595 r \$0-table;
#X obj 524 596 r \$0-table;
#X obj 638 421 t s s;
#X obj 766 123 s \$0-table;
#X obj 649 15 loadbang;
#X obj 485 79 f \$2;
#X obj 718 72 symbol \$1;
#X obj 649 37 t b b;
#X obj 629 108 t s s;
#X floatatom 703 161 5 0 0 0 - - -;
#X obj 500 227 print -n;
#X msg 500 202 sdTable: error: you didnt enter a name for the table!!
;
#X obj 261 628 symbol \$1;
#X obj 435 619 symbol \$1;
#X msg 642 520 \; \$2.array rename \$1.array \;;
#X msg 435 644 \; \$1.array const 0 \;;
#X msg 261 651 \; \$1.array normalize \;;
#X msg 626 753 \; \$2.array resize \$1;
#X obj 439 427 r \$0-length;
#X obj 439 450 sdSizeFromLength;
#X obj 439 496 s \$0-size_rcv;
#X obj 282 431 r \$0-size;
#X obj 282 454 sdLengthFromSize;
#X obj 282 501 s \$0-length_rcv;
#X floatatom 412 40 6 0 0 0 - - -;
#X obj 412 19 r \$0-length;
#X obj 638 397 r \$0-table;
#X obj 610 662 r \$0-tableSize;
#X obj 650 627 sdSizeFromLength;
#X obj 650 604 r \$0-tableLength;
#X obj 484 100 s \$0-tableLength;
#X floatatom 246 88 8 0 0 0 - - -;
#X floatatom 352 88 6 0 0 0 - - -;
#X obj 246 67 r \$0-tableSize;
#X obj 352 67 r \$0-tableLength;
#X obj 534 280 sdProperty size \$0;
#X obj 553 306 sdProperty tableSize \$0;
#X obj 603 467 sdFirst;
#X obj 618 159 sdGate;
#X obj 662 132 sdSymbolIsEq;
#X obj 401 255 sdProperty length \$0;
#X obj 255 231 sdPropertySym table \$0 \$1;
#X obj 585 336 sdProperty tableLength \$0 \$2;
#X msg 439 472 priv.set \$1;
#X msg 282 477 priv.set_noupdate \$1;
#X connect 0 0 7 0;
#X connect 1 0 13 0;
#X connect 4 0 31 0;
#X connect 7 0 5 0;
#X connect 7 1 6 0;
#X connect 7 2 58 0;
#X connect 9 0 8 0;
#X connect 10 0 3 0;
#X connect 13 0 34 0;
#X connect 14 0 13 1;
#X connect 15 0 29 0;
#X connect 16 0 30 0;
#X connect 17 0 29 1;
#X connect 18 0 30 1;
#X connect 19 0 4 1;
#X connect 19 1 54 0;
#X connect 21 0 24 0;
#X connect 22 0 47 0;
#X connect 23 0 25 0;
#X connect 23 0 20 0;
#X connect 24 0 22 0;
#X connect 24 1 23 0;
#X connect 25 0 55 0;
#X connect 25 1 56 0;
#X connect 28 0 27 0;
#X connect 29 0 33 0;
#X connect 30 0 32 0;
#X connect 35 0 36 0;
#X connect 36 0 60 0;
#X connect 38 0 39 0;
#X connect 39 0 61 0;
#X connect 42 0 41 0;
#X connect 43 0 19 0;
#X connect 44 0 1 0;
#X connect 45 0 1 0;
#X connect 46 0 45 0;
#X connect 50 0 48 0;
#X connect 51 0 49 0;
#X connect 52 0 2 0;
#X connect 52 1 53 0;
#X connect 53 1 59 0;
#X connect 54 1 4 0;
#X connect 55 0 28 0;
#X connect 56 0 26 0;
#X connect 56 0 55 1;
#X connect 57 0 2 0;
#X connect 57 1 52 0;
#X connect 58 0 2 0;
#X connect 58 1 57 0;
#X connect 60 0 37 0;
#X connect 61 0 40 0;
