#N canvas 0 30 681 345 10;
#X obj 42 31 inlet~;
#X obj 212 469 table \$0-lookup.array;
#X obj 43 284 outlet~;
#X obj 212 439 sdTableNoArray \$0-lookup 0 256;
#X obj 43 224 hip~ 5;
#X obj 275 256 s \$0-toTab;
#X obj 349 151 r \$0-toTab;
#X msg 423 151 init;
#X obj 336 115 t b b;
#X obj 308 118 bng 15 250 50 0 empty empty empty 17 7 0 10 -262144
-1 -1;
#X obj 276 197 outlet;
#X obj 275 233 inlet;
#X obj 347 77 route init;
#X msg 166 145 init;
#X obj 42 193 sdTabRead~ \$0-lookup 256;
#X obj 345 21 loadbang;
#X msg 345 44 init;
#X obj 347 198 outlet;
#X obj 276 174 sdTabWrite~ \$0-lookup 256;
#X connect 0 0 14 0;
#X connect 4 0 2 0;
#X connect 6 0 18 1;
#X connect 7 0 18 2;
#X connect 8 0 18 0;
#X connect 8 1 7 0;
#X connect 9 0 8 0;
#X connect 11 0 5 0;
#X connect 12 0 8 0;
#X connect 12 0 13 0;
#X connect 13 0 14 1;
#X connect 14 0 4 0;
#X connect 15 0 16 0;
#X connect 16 0 12 0;
#X connect 18 0 10 0;
#X connect 18 1 17 0;
