#N canvas 683 30 681 96 10;
#X obj 51 354 pack f f;
#X obj 74 248 t a a, f 32;
#X msg 99 329 1;
#X obj 235 540 list;
#X obj 51 453 route 0;
#X obj 51 404 swap;
#X msg 355 339 stop;
#X obj 79 570 s \$0-dest;
#X obj 51 429 pack;
#X obj 51 476 t b a;
#X obj 51 594 sdPack stop;
#X obj 51 617 s \$0-event;
#X obj 235 483 t b a;
#X obj 305 585 s \$0-dest;
#X obj 273 511 unpack;
#X obj 235 563 s \$0-event;
#X obj 52 278 t a b;
#X obj 141 271 t a b;
#X msg 169 329 0;
#X obj 51 378 poly 4 1, f 10;
#N canvas 0 30 681 736 filter_has_pitch 0;
#X obj 115 114 sdPackMatch;
#X obj 57 38 inlet;
#X obj 91 194 outlet;
#X obj 92 147 sdUnPack;
#X obj 92 170 sdUnPack;
#X obj 228 173 outlet;
#X msg 152 84 clear \, add has_pitch pack=[ ? ( * \$1 ( * ) ) =];
#X obj 152 60 sdSymbolBang \$1;
#X connect 0 0 3 0;
#X connect 0 1 5 0;
#X connect 1 0 0 0;
#X connect 3 0 4 0;
#X connect 4 0 2 0;
#X connect 6 0 0 0;
#X connect 7 0 6 0;
#X restore 16 82 pd filter_has_pitch;
#X obj 371 143 sdPackFilter stop;
#X obj 16 107 sdPackFilter stop;
#X obj 136 218 sdEventAddParam;
#X obj 136 105 sdPackFilter start play;
#X msg 223 194 list \$2 1 \$1;
#X obj 223 170 pack f s;
#X obj 16 15 inlet;
#X obj 617 699 outlet;
#X obj 31 708 outlet;
#X obj 31 655 r \$0-event;
#X obj 102 656 r \$0-dest;
#X obj 268 146 sdSymbolBang \$1;
#X obj 54 304 sdUnEvent \$1;
#X obj 501 64 list split 2;
#X obj 514 119 list;
#X obj 501 88 t b a;
#X obj 514 141 sdPack;
#X obj 555 112 unpack s s;
#X obj 514 163 sdPack, f 9;
#X obj 455 5 inlet to properties;
#X obj 31 680 sdPack;
#X obj 180 19 inlet pitch;
#X msg 306 559 symbol \$2.\$1;
#X obj 351 511 sdSymbolBang \$2;
#X msg 79 545 symbol \$2.\$1;
#X obj 123 497 sdSymbolBang \$2;
#X obj 306 535 pack f s;
#X obj 79 521 pack f s;
#X obj 455 30 sdProperty \$1 \$0 60 intern -32 127 1;
#X obj 454 690 outlet;
#X obj 402 35 t a;
#X obj 591 186 sdPack;
#X obj 591 161 t b s;
#X connect 0 0 19 0;
#X connect 1 0 16 0;
#X connect 1 1 3 1;
#X connect 2 0 0 1;
#X connect 3 0 15 0;
#X connect 4 0 9 0;
#X connect 4 1 12 0;
#X connect 5 0 8 0;
#X connect 5 1 8 1;
#X connect 6 0 19 0;
#X connect 8 0 4 0;
#X connect 9 0 10 0;
#X connect 9 1 48 0;
#X connect 10 0 11 0;
#X connect 12 0 3 0;
#X connect 12 1 14 0;
#X connect 14 1 47 0;
#X connect 16 0 33 0;
#X connect 16 1 2 0;
#X connect 17 0 33 0;
#X connect 17 1 18 0;
#X connect 18 0 0 1;
#X connect 19 0 5 0;
#X connect 19 2 5 1;
#X connect 20 0 22 0;
#X connect 20 1 24 0;
#X connect 21 0 6 0;
#X connect 21 1 28 0;
#X connect 22 0 17 0;
#X connect 22 1 1 0;
#X connect 23 0 1 0;
#X connect 24 0 23 0;
#X connect 24 1 21 0;
#X connect 25 0 23 1;
#X connect 26 0 25 0;
#X connect 27 0 20 0;
#X connect 30 0 41 0;
#X connect 31 0 41 1;
#X connect 32 0 26 1;
#X connect 33 0 0 0;
#X connect 34 0 36 0;
#X connect 34 1 35 1;
#X connect 34 2 53 0;
#X connect 35 0 37 0;
#X connect 36 0 35 0;
#X connect 36 1 38 0;
#X connect 37 0 39 0;
#X connect 38 0 39 1;
#X connect 38 1 37 1;
#X connect 39 0 51 0;
#X connect 40 0 49 0;
#X connect 41 0 29 0;
#X connect 42 0 26 0;
#X connect 43 0 13 0;
#X connect 44 0 47 1;
#X connect 45 0 7 0;
#X connect 46 0 48 1;
#X connect 47 0 43 0;
#X connect 48 0 45 0;
#X connect 49 0 50 0;
#X connect 49 1 34 0;
#X connect 51 0 20 0;
#X connect 52 0 51 0;
#X connect 53 0 52 0;
#X connect 53 1 52 1;
