#N canvas 0 30 681 736 10;
#X obj 26 164 r \$0-fromDummy;
#X obj 70 130 sdObjGetAll \$0-fromDummy;
#X obj 70 106 symbol \$3;
#N canvas 0 30 885 736 ObjTrackAll 0;
#X obj 77 110 sdUnPack;
#X obj 77 86 sdPackFilter info update;
#X obj 218 134 sdUnPack;
#X obj 214 210 sdData serialize, f 18;
#X obj 218 159 t b a, f 17;
#X msg 214 187 serialize \, clear;
#X obj 219 111 sdPackFilter \$0-dummy-voice;
#X obj 71 164 t a;
#X obj 62 17 inlet;
#X obj 71 187 outlet;
#X obj 374 21 inlet;
#X connect 0 0 7 0;
#X connect 1 0 0 0;
#X connect 1 1 6 0;
#X connect 2 0 4 0;
#X connect 3 0 7 0;
#X connect 4 0 5 0;
#X connect 4 1 3 1;
#X connect 5 0 3 0;
#X connect 6 0 2 0;
#X connect 7 0 9 0;
#X connect 8 0 1 0;
#X connect 10 0 6 1;
#X restore 71 221 pd ObjTrackAll;
#X obj 123 186 sdSymbolBang \$3;
#X obj 71 244 sdPackFilter out;
#X obj 223 415 pack f f;
#X obj 223 514 route 0;
#X obj 223 465 swap;
#X obj 223 490 pack;
#X obj 223 439 poly 4 1, f 10;
#X msg 277 396 1;
#X msg 246 390 0;
#X obj 236 549 t b a;
#X obj 184 605 sdPack stop;
#X msg 264 608 symbol \$2.\$1;
#X obj 308 560 sdSymbolBang \$2;
#X obj 264 584 pack f s;
#X obj 462 625 sdEvent start;
#X obj 164 271 t a a;
#X obj 141 56 t b a;
#X obj 476 539 t b a;
#X obj 603 568 unpack;
#X msg 636 616 symbol \$2.\$1;
#X obj 681 568 sdSymbolBang \$2;
#X obj 636 592 pack f s;
#X obj 89 305 sdPackFilter \$1;
#X obj 545 649 sdPack;
#X obj 184 628 sdPack;
#X obj 545 672 s \$0-out;
#X obj 185 653 s \$0-out;
#X obj 302 671 r \$0-out;
#X obj 302 694 outlet;
#X obj 148 11 inlet;
#X obj 89 328 sdUnPack;
#X msg 330 412 stop;
#X obj 521 394 sdGate;
#X msg 560 372 0;
#X msg 601 374 1;
#X floatatom 591 409 5 0 0 0 - - -;
#X obj 70 362 f;
#X obj 26 187 t b a;
#X obj 269 122 sdUnPack;
#X obj 399 10 inlet;
#X obj 381 353 sdPackFilter \$4 \$5 \$6 \$7;
#X obj 399 33 list prepend \$1;
#X obj 384 317 sdPackFilter \$1;
#X obj 315 147 s \$0-eventType;
#X obj 537 601 r \$0-eventType;
#X obj 557 302 r \$0-eventType;
#X obj 557 325 select stop;
#X obj 211 324 r \$0-eventType;
#X obj 211 347 select stop;
#X text 438 89 \$1: pitch \; \$2: voice name \; \$3: reference obj
\; \$4: props to copy from reference obj \;;
#X connect 0 0 41 0;
#X connect 2 0 1 0;
#X connect 3 0 5 0;
#X connect 4 0 3 1;
#X connect 5 1 19 0;
#X connect 6 0 10 0;
#X connect 7 0 13 0;
#X connect 7 1 21 0;
#X connect 8 0 9 0;
#X connect 8 1 9 1;
#X connect 9 0 7 0;
#X connect 10 0 8 0;
#X connect 10 2 8 1;
#X connect 11 0 6 1;
#X connect 12 0 6 1;
#X connect 13 0 14 0;
#X connect 13 1 17 0;
#X connect 14 0 28 0;
#X connect 15 0 28 1;
#X connect 16 0 17 1;
#X connect 17 0 15 0;
#X connect 18 0 27 0;
#X connect 19 0 26 0;
#X connect 19 1 46 0;
#X connect 20 0 2 0;
#X connect 20 1 42 0;
#X connect 21 0 18 0;
#X connect 21 1 22 0;
#X connect 22 1 25 0;
#X connect 23 0 27 1;
#X connect 24 0 25 1;
#X connect 25 0 23 0;
#X connect 26 0 34 0;
#X connect 27 0 29 0;
#X connect 28 0 30 0;
#X connect 31 0 32 0;
#X connect 33 0 20 0;
#X connect 34 0 40 1;
#X connect 35 0 10 0;
#X connect 36 0 18 1;
#X connect 37 0 36 1;
#X connect 37 0 39 0;
#X connect 38 0 36 1;
#X connect 38 0 39 0;
#X connect 40 0 6 0;
#X connect 41 0 40 0;
#X connect 41 1 3 0;
#X connect 42 2 47 0;
#X connect 43 0 45 0;
#X connect 44 1 36 0;
#X connect 45 0 46 1;
#X connect 46 0 44 0;
#X connect 48 0 18 2;
#X connect 49 0 50 0;
#X connect 50 0 37 0;
#X connect 50 1 38 0;
#X connect 51 0 52 0;
#X connect 52 0 12 0;
#X connect 52 1 11 0;
