#N canvas 0 30 681 722 10;
#X obj 155 20 inlet;
#X obj 70 148 sdEventToProperties;
#X obj 122 269 outlet~;
#X obj 171 68 sdObjState \$1 \$2 \$3;
#X obj 224 256 s \$0-fromProps;
#X obj 226 22 r \$0-fromProps;
#X obj 226 45 list;
#X obj 45 116 sdPackFilter info update;
#X obj 143 221 sdSynthVoice~;
#X text 672 382 5th C.P.;
#X obj 258 118 print \$1.in;
#X connect 0 0 3 0;
#X connect 1 0 8 1;
#X connect 1 1 8 2;
#X connect 3 0 7 0;
#X connect 3 0 10 0;
#X connect 3 1 8 2;
#X connect 5 0 6 0;
#X connect 6 0 3 1;
#X connect 7 1 1 0;
#X connect 8 0 2 0;
#X connect 8 1 4 0;
