#N canvas 0 30 681 736 10;
#X obj 198 2 inlet;
#X obj 33 638 *~;
#X obj 433 509 sdSeqPlayer;
#X obj 462 461 list prepend set sequence;
#X obj 462 484 list trim;
#X obj 604 665 pack 0 500;
#X obj 604 688 line~;
#X obj 457 666 pack 0 500;
#X obj 514 643 r \$0-delay;
#X obj 457 689 line~;
#X obj 389 562 s \$0-nextRamp;
#X obj 447 535 t b a;
#X obj 487 533 s \$0-delay;
#X obj 661 642 r \$0-delay;
#X obj 604 711 s~ \$0-rt_volume;
#X obj 457 713 s~ \$0-rt_pitch;
#X obj 476 582 sdUnEvent pitch volume, f 43;
#X obj 31 334 mtof~;
#X obj 60 615 r~ \$0-rt_volume;
#X obj 39 241 r~ \$0-rt_pitch;
#X obj 54 265 r \$0-pitch;
#X obj 31 310 +~;
#X obj 47 591 sdNum2Sig~;
#X obj 32 613 *~;
#X obj 47 568 r \$0-volume;
#X obj 32 665 outlet~;
#X obj 31 357 osc~;
#X obj 9 6 inlet~;
#X obj 190 57 route init;
#X obj 354 235 outlet;
#X msg 331 435 start;
#X obj 743 197 r \$0-stop;
#X msg 943 280 stop;
#X obj 221 108 s \$0-init;
#X obj 190 81 t b b;
#X obj 190 135 sdSetSelector priv.get;
#X obj 199 604 expr 16*$f1*$f1*$f1*$f1*$f1-20*$f1*$f1*$f1+5*$f1, f
27;
#X obj 155 476 sdDist~;
#X obj 199 652 s \$0-fromFunc;
#X obj 194 453 r \$0-fromFunc;
#X obj 342 89 sdProperty volume \$0 1 intern 0 1;
#X obj 144 545 sdGate~;
#X obj 198 581 expr ($f1-($f2-1)/2)/(($f2-3)/2);
#X obj 178 424 r \$0-dist;
#X obj 139 447 sdGate~;
#X obj 183 522 r \$0-dist.wet;
#X obj 10 542 sdGate~;
#X obj 61 492 r \$0-dist.wet;
#X obj 61 515 expr 1-$f1;
#X obj 396 137 sdProperty dist.wet \$0 0.5 intern 0 1;
#X obj 378 114 sdProperty dist \$0 0.5 intern 0 1;
#X obj 198 25 t a a;
#X obj 778 314 sdPackFromHuman;
#X obj 743 220 t b b;
#X obj 743 243 t b b;
#X obj 778 338 list prepend set sequence;
#X obj 778 361 list trim;
#X msg 734 320 start;
#X obj 774 477 t a;
#X obj 340 9 loadbang;
#X msg 340 32 init;
#X msg 778 265 list p1 ( delay ( 50 ) volume ( 0 ) ), f 19;
#X obj 406 162 sdPropertyList envelopes \$0;
#X obj 324 61 sdProperty pitch \$0 60 intern 0 127 1;
#X obj 92 8 inlet;
#X obj 190 158 s \$0-envelopes_rcv;
#X obj 224 197 r \$0-envelopes;
#X obj 87 69 symbol;
#X obj 684 44 print env.find;
#X obj 337 403 t b a;
#N canvas 0 30 885 722 get_env 0;
#X obj 55 26 inlet;
#X obj 284 24 inlet;
#X obj 63 375 outlet;
#X obj 361 83 list length;
#X obj 328 60 t a a;
#X obj 328 128 sdGate;
#X obj 361 106 != 0;
#X obj 67 343 sdUnPack;
#X obj 78 149 sdSetSelector set;
#X obj 100 92 list;
#X obj 73 69 t s b;
#X msg 73 120 filterAccept \$1 \, bang;
#X obj 374 233 sdPackFromHuman;
#X msg 374 158 list start ( p1 ( delay ( 50 ) volume ( 1 ) ) ) stop
( p1 ( delay ( 50 ) volume ( 0 ) ) ), f 19;
#X obj 100 274 list length;
#X obj 67 251 t a a;
#X obj 67 319 sdGate;
#X obj 100 297 != 0;
#X obj 67 172 sdData bang serialize;
#X obj 322 532 outlet;
#X obj 347 360 sdSetSelector set;
#X obj 304 249 t a;
#X obj 322 308 t b a;
#X msg 321 332 serialize;
#X obj 326 395 sdData;
#X obj 326 418 sdUnPack;
#X obj 304 488 sdList;
#X msg 247 455 bang \, clear, f 12;
#X obj 302 277 t b a;
#X obj 402 470 print;
#X connect 0 0 10 0;
#X connect 1 0 4 0;
#X connect 3 0 6 0;
#X connect 4 0 5 0;
#X connect 4 1 3 0;
#X connect 5 0 21 0;
#X connect 5 1 13 0;
#X connect 6 0 5 1;
#X connect 7 0 2 0;
#X connect 8 0 18 0;
#X connect 9 0 8 0;
#X connect 10 0 11 0;
#X connect 10 1 9 0;
#X connect 11 0 18 0;
#X connect 12 0 21 0;
#X connect 13 0 12 0;
#X connect 14 0 17 0;
#X connect 15 0 16 0;
#X connect 15 1 14 0;
#X connect 16 0 7 0;
#X connect 17 0 16 1;
#X connect 18 0 15 0;
#X connect 20 0 24 0;
#X connect 21 0 9 1;
#X connect 21 0 28 0;
#X connect 22 0 23 0;
#X connect 22 1 20 0;
#X connect 23 0 24 0;
#X connect 24 0 25 0;
#X connect 25 2 26 1;
#X connect 26 0 19 0;
#X connect 27 0 26 0;
#X connect 28 0 27 0;
#X connect 28 1 22 0;
#X restore 168 221 pd get_env;
#X obj 54 288 sig~;
#X obj 416 191 sdPropertyList events \$0;
#X obj 304 309 s \$0-events_rcv;
#X obj 302 283 sdSetSelector priv.set;
#X obj 474 283 r \$0-events;
#X obj 474 306 l2s;
#X symbolatom 474 329 10 0 0 0 - - -;
#X obj 473 381 l2s;
#X symbolatom 473 404 30 0 0 0 - - -;
#X obj 473 358 r \$0-envelopes;
#X connect 0 0 51 0;
#X connect 1 0 25 0;
#X connect 2 1 11 0;
#X connect 2 2 12 0;
#X connect 3 0 4 0;
#X connect 4 0 2 0;
#X connect 5 0 6 0;
#X connect 6 0 14 0;
#X connect 7 0 9 0;
#X connect 8 0 7 1;
#X connect 9 0 15 0;
#X connect 11 0 10 0;
#X connect 11 1 16 0;
#X connect 13 0 5 1;
#X connect 16 0 7 0;
#X connect 16 1 5 0;
#X connect 17 0 26 0;
#X connect 18 0 1 1;
#X connect 19 0 21 0;
#X connect 20 0 71 0;
#X connect 21 0 17 0;
#X connect 22 0 23 1;
#X connect 23 0 1 0;
#X connect 24 0 22 0;
#X connect 26 0 44 0;
#X connect 26 0 46 0;
#X connect 27 0 21 0;
#X connect 28 0 34 0;
#X connect 30 0 2 0;
#X connect 31 0 53 0;
#X connect 32 0 58 0;
#X connect 34 0 35 0;
#X connect 34 1 33 0;
#X connect 35 0 65 0;
#X connect 36 0 38 0;
#X connect 37 0 41 0;
#X connect 37 1 42 0;
#X connect 37 2 42 1;
#X connect 39 0 37 1;
#X connect 40 0 29 0;
#X connect 40 1 50 0;
#X connect 41 0 23 0;
#X connect 42 0 36 0;
#X connect 43 0 44 1;
#X connect 44 0 37 0;
#X connect 45 0 41 1;
#X connect 46 0 23 0;
#X connect 47 0 48 0;
#X connect 48 0 46 1;
#X connect 49 0 29 0;
#X connect 49 1 62 0;
#X connect 50 0 29 0;
#X connect 50 1 49 0;
#X connect 51 0 28 0;
#X connect 51 1 63 0;
#X connect 52 0 55 0;
#X connect 53 0 54 0;
#X connect 53 1 32 0;
#X connect 54 0 57 0;
#X connect 54 1 61 0;
#X connect 55 0 56 0;
#X connect 56 0 58 0;
#X connect 57 0 58 0;
#X connect 58 0 2 0;
#X connect 59 0 60 0;
#X connect 60 0 51 0;
#X connect 61 0 52 0;
#X connect 62 0 29 0;
#X connect 62 1 72 0;
#X connect 63 0 29 0;
#X connect 63 1 40 0;
#X connect 64 0 67 0;
#X connect 66 0 70 1;
#X connect 67 0 70 0;
#X connect 69 0 30 0;
#X connect 69 1 3 0;
#X connect 70 0 69 0;
#X connect 70 1 74 0;
#X connect 71 0 21 1;
#X connect 72 0 29 0;
#X connect 74 0 73 0;
#X connect 75 0 76 0;
#X connect 76 0 77 0;
#X connect 78 0 79 0;
#X connect 80 0 78 0;
