#N canvas 0 30 681 722 10;
#X obj 105 19 inlet;
#X obj 31 103 sdPackFilter info update;
#X obj 316 565 throw~ \$0-out;
#X obj 76 608 catch~ \$0-out;
#X obj 34 661 outlet~;
#X obj 144 281 pack f f;
#X obj 136 571 send;
#X obj 133 163 t a a;
#X obj 171 68 sdObjState \$1 \$2 \$3;
#X obj 408 597 throw~ \$0-out;
#X obj 376 171 s \$0-all-voices;
#X msg 189 258 1;
#X obj 107 231 sdUnEvent pitch;
#X obj 298 380 list;
#X obj 144 384 route 0;
#X obj 144 331 swap;
#X msg 234 285 stop;
#X obj 204 486 s \$0-dest;
#X obj 199 456 sdReplace \$0;
#X msg 199 432 symbol %0-voice.\$1;
#X obj 144 356 pack;
#X obj 144 407 t b a;
#X obj 157 549 r \$0-dest;
#X obj 118 434 sdPack stop;
#X obj 118 457 s \$0-event;
#X obj 103 516 r \$0-event;
#X obj 298 353 t b a;
#X obj 393 467 s \$0-dest;
#X obj 393 444 sdReplace \$0;
#X msg 393 420 symbol %0-voice.\$1;
#X obj 360 379 unpack;
#X obj 298 403 s \$0-event;
#X obj 105 205 t a b;
#X obj 215 181 t a b;
#X msg 222 256 0;
#X obj 316 547 sdSynthVoice_obj~ \$0-voice.1 \$0-all-voices;
#X obj 408 574 sdSynthVoice_obj~ \$0-voice.2 \$0-all-voices;
#X obj 491 107 list split 2;
#X obj 488 165 list;
#X obj 485 134 t b a;
#X obj 488 197 sdPack;
#X obj 534 166 unpack s s;
#X obj 491 224 sdPack;
#X obj 364 97 s \$0-fromProperties;
#X obj 226 22 r \$0-fromProperties;
#X obj 226 45 list;
#X obj 76 631 *~;
#X obj 184 642 sdNum2Sig~;
#X obj 364 74 sdProperty out-volume \$0 0.5 intern 0 1;
#X obj 184 619 r \$0-out-volume;
#X obj 321 642 throw~ \$0-out;
#X obj 413 674 throw~ \$0-out;
#X obj 321 624 sdSynthVoice_obj~ \$0-voice.3 \$0-all-voices;
#X obj 413 651 sdSynthVoice_obj~ \$0-voice.4 \$0-all-voices;
#X obj 144 305 poly 4 1, f 10;
#N canvas 0 30 681 722 filter_has_pitch 0;
#X obj 115 114 sdPackMatch;
#X obj 222 36 loadbang;
#X obj 57 38 inlet;
#X obj 91 194 outlet;
#X obj 92 147 sdUnPack;
#X obj 92 170 sdUnPack;
#X msg 222 63 clear \, add has_pitch pack=[ ? ( * pitch ( * ) ) =]
;
#X obj 228 173 outlet;
#X connect 0 0 4 0;
#X connect 0 1 7 0;
#X connect 1 0 6 0;
#X connect 2 0 0 0;
#X connect 4 0 5 0;
#X connect 5 0 3 0;
#X connect 6 0 0 0;
#X restore 201 102 pd filter_has_pitch;
#X obj 312 125 sdPackFilter stop;
#X obj 194 127 sdPackFilter stop;
#X obj 423 17 loadbang;
#X msg 423 40 init;
#X connect 0 0 8 0;
#X connect 1 1 55 0;
#X connect 3 0 46 0;
#X connect 5 0 54 0;
#X connect 7 0 32 0;
#X connect 7 1 13 1;
#X connect 8 0 1 0;
#X connect 8 1 48 0;
#X connect 11 0 5 1;
#X connect 12 0 5 0;
#X connect 13 0 31 0;
#X connect 14 0 21 0;
#X connect 14 1 26 0;
#X connect 15 0 20 0;
#X connect 15 1 20 1;
#X connect 16 0 54 0;
#X connect 18 0 17 0;
#X connect 19 0 18 0;
#X connect 20 0 14 0;
#X connect 21 0 23 0;
#X connect 21 1 19 0;
#X connect 22 0 6 1;
#X connect 23 0 24 0;
#X connect 25 0 6 0;
#X connect 26 0 13 0;
#X connect 26 1 30 0;
#X connect 28 0 27 0;
#X connect 29 0 28 0;
#X connect 30 1 29 0;
#X connect 32 0 12 0;
#X connect 32 1 11 0;
#X connect 33 0 12 0;
#X connect 33 1 34 0;
#X connect 34 0 5 1;
#X connect 35 0 2 0;
#X connect 36 0 9 0;
#X connect 37 0 39 0;
#X connect 37 1 38 1;
#X connect 38 0 40 0;
#X connect 39 0 38 0;
#X connect 39 1 41 0;
#X connect 40 0 42 0;
#X connect 41 0 42 1;
#X connect 41 1 40 1;
#X connect 42 0 1 0;
#X connect 44 0 45 0;
#X connect 45 0 8 1;
#X connect 46 0 4 0;
#X connect 47 0 46 1;
#X connect 48 0 43 0;
#X connect 48 1 37 0;
#X connect 49 0 47 0;
#X connect 52 0 50 0;
#X connect 53 0 51 0;
#X connect 54 0 15 0;
#X connect 54 2 15 1;
#X connect 55 0 57 0;
#X connect 55 1 56 0;
#X connect 56 0 16 0;
#X connect 56 1 10 0;
#X connect 57 0 33 0;
#X connect 57 1 7 0;
#X connect 58 0 59 0;
#X connect 59 0 48 0;
