#N canvas 0 30 885 722 10;
#X obj 105 19 inlet;
#X obj 182 155 sdPackFilter info update, f 12;
#X obj 254 525 throw~ \$0-out;
#X obj 24 614 catch~ \$0-out;
#X obj 24 691 outlet~;
#X obj 30 433 send;
#X obj 171 68 sdObjState \$1 \$2 \$3;
#X obj 255 574 throw~ \$0-out;
#X obj 348 194 s \$0-fromProperties;
#X obj 226 22 r \$0-fromProperties;
#X obj 226 45 list;
#X obj 24 667 *~;
#X obj 53 664 sdNum2Sig~;
#X obj 369 96 sdProperty out-volume \$0 0.5 intern 0 1;
#X obj 53 641 r \$0-out-volume;
#X obj 254 622 throw~ \$0-out;
#X obj 253 670 throw~ \$0-out;
#X msg 326 110 init;
#X obj 171 91 t a a;
#X obj 14 124 sdPackFilter init;
#X obj 14 195 s \$0-events_rcv;
#X msg 14 171 priv.set play start stop;
#X obj 30 408 sdUnPack;
#X obj 648 494 s \$0-fromProperties;
#X obj 265 44 print fromProps;
#X obj 643 240 s \$0-dummy-voice;
#X obj 452 146 t a a;
#X obj 643 217 t a a;
#X obj 670 336 r \$0-fromDummy;
#X obj 670 359 t a a;
#X obj 648 470 sdPackToMessage;
#N canvas 0 30 885 722 ObjTrackAll 0;
#X obj 77 110 sdUnPack;
#X obj 77 86 sdPackFilter info update;
#X obj 218 134 sdUnPack;
#X obj 214 210 sdData serialize, f 18;
#X obj 218 159 t b a, f 17;
#X msg 214 187 serialize \, clear;
#X obj 219 111 sdPackFilter \$0-dummy-voice;
#X obj 71 164 t a;
#X obj 62 17 inlet;
#X obj 71 187 outlet;
#X obj 374 21 inlet;
#X connect 0 0 7 0;
#X connect 1 0 0 0;
#X connect 1 1 6 0;
#X connect 2 0 4 0;
#X connect 3 0 7 0;
#X connect 4 0 5 0;
#X connect 4 1 3 1;
#X connect 5 0 3 0;
#X connect 6 0 2 0;
#X connect 7 0 9 0;
#X connect 8 0 1 0;
#X connect 10 0 6 1;
#X restore 648 445 pd ObjTrackAll;
#X obj 700 410 sdSymbolBang \$0-dummy-voice;
#X obj 526 264 s \$0-dummy-voice;
#X obj 526 217 sdUnPack;
#X obj 526 241 sdPack set;
#X obj 301 219 t a a;
#X obj 31 373 t a a;
#X obj 254 502 \$5 \$0-voice.1 \$0-all-voices \$0-gIntern;
#X obj 255 551 \$5 \$0-voice.2 \$0-all-voices \$0-gIntern;
#X obj 254 598 \$5 \$0-voice.3 \$0-all-voices \$0-gIntern;
#X obj 253 646 \$5 \$0-voice.4 \$0-all-voices \$0-gIntern;
#X obj 647 688 s \$0-all-voices;
#X obj 651 655 sdPack set;
#X obj 550 590 sdPackFilter \$4 \$6 \$7 \$8 \$9;
#X obj 648 22 loadbang;
#X obj 648 45 f \$0;
#X obj 648 115 s \$0-dummy-voice;
#X obj 648 92 sdPackFromHuman;
#X msg 648 69 list out ( add \$1-fromDummy );
#X obj 570 300 \$5 \$0-dummy-voice \$0-GLOB \$0-gIntern;
#X obj 663 626 sdPackFilter;
#X text 89 449 \$4: pitch \; \$5 voice \; \$6...: properties to newer
set on children;
#X obj 400 169 sdPropertyList props-only-at-play \$0;
#X obj 350 327 r \$0-props-only-at-play;
#X obj 30 351 sdEventToVoices \$4 \$0-voice \$0-dummy-voice \$6 \$7
\$8 \$9;
#X obj 726 592 r \$0-props-only-at-play;
#X obj 755 690 print \$1.toAll;
#X obj 700 386 print \$1.fromDummy;
#X obj 474 471 sdPackFilter out range_info;
#X obj 118 417 print \$1.toVoices;
#X obj 14 147 t b b;
#X obj 203 194 sdPackFilter init;
#X obj 31 269 s \$0-all-voices;
#X obj 667 167 list prepend raw;
#X obj 667 190 list trim;
#N canvas 0 30 885 722 to 0;
#X obj 150 140 list split 2;
#X obj 163 195 list;
#X obj 150 164 t b a;
#X obj 163 217 sdPack;
#X obj 204 188 unpack s s;
#X obj 163 239 sdPack, f 9;
#X obj 310 153 sdPack;
#X obj 310 128 t b s;
#X obj 304 177 sdPackFilter get get_with_range;
#X obj 304 262 sdEventAddParam;
#X obj 329 204 sdSymbolBang \$0-fromDummy;
#X msg 329 227 list out 1 \$1;
#X obj 502 285 t a;
#X obj 192 356 t a;
#X connect 0 0 2 0;
#X connect 0 1 1 1;
#X connect 0 2 7 0;
#X connect 1 0 3 0;
#X connect 2 0 1 0;
#X connect 2 1 4 0;
#X connect 3 0 5 0;
#X connect 4 0 5 1;
#X connect 4 1 3 1;
#X connect 5 0 13 0;
#X connect 6 0 8 0;
#X connect 7 0 6 0;
#X connect 7 1 6 1;
#X connect 8 0 9 0;
#X connect 8 1 12 0;
#X connect 9 0 13 0;
#X connect 10 0 11 0;
#X connect 11 0 9 1;
#X connect 12 0 13 0;
#X restore 753 216 pd to instr legacy;
#X text 751 198 (working \, but clumsy);
#X obj 136 245 s \$0-dummy-voice;
#X connect 0 0 6 0;
#X connect 1 1 62 0;
#X connect 3 0 11 0;
#X connect 6 0 18 0;
#X connect 6 1 13 0;
#X connect 9 0 10 0;
#X connect 10 0 6 1;
#X connect 11 0 4 0;
#X connect 12 0 11 1;
#X connect 13 0 8 0;
#X connect 13 1 26 0;
#X connect 14 0 12 0;
#X connect 17 0 13 0;
#X connect 18 0 19 0;
#X connect 18 1 1 0;
#X connect 19 0 61 0;
#X connect 21 0 20 0;
#X connect 22 0 5 0;
#X connect 22 2 5 1;
#X connect 26 0 53 0;
#X connect 26 1 64 0;
#X connect 27 0 25 0;
#X connect 28 0 29 0;
#X connect 29 0 31 0;
#X connect 29 1 58 0;
#X connect 30 0 23 0;
#X connect 31 0 30 0;
#X connect 31 0 59 0;
#X connect 32 0 31 1;
#X connect 34 0 35 0;
#X connect 35 0 33 0;
#X connect 36 0 55 0;
#X connect 36 1 34 0;
#X connect 37 0 22 0;
#X connect 37 1 60 0;
#X connect 38 0 2 0;
#X connect 39 0 7 0;
#X connect 40 0 15 0;
#X connect 41 0 16 0;
#X connect 43 0 42 0;
#X connect 43 0 57 0;
#X connect 44 1 51 0;
#X connect 45 0 46 0;
#X connect 46 0 49 0;
#X connect 48 0 47 0;
#X connect 49 0 48 0;
#X connect 51 1 43 0;
#X connect 53 0 8 0;
#X connect 54 0 55 1;
#X connect 55 0 37 0;
#X connect 56 0 51 1;
#X connect 59 1 44 0;
#X connect 61 0 21 0;
#X connect 61 1 17 0;
#X connect 62 0 63 0;
#X connect 62 0 68 0;
#X connect 62 1 36 0;
#X connect 64 0 65 0;
#X connect 65 0 27 0;
