#N canvas 0 30 681 722 10;
#X obj 324 61 sdProperty pitch \$0 0 intern 0 127 1;
#X obj 103 11 inlet;
#X obj 33 638 *~;
#X obj 352 86 sdPropertyList envelope \$0;
#X obj 434 467 sdSeqPlayer;
#X obj 463 409 list prepend set sequence;
#X obj 463 432 list trim;
#X obj 605 641 f;
#X obj 604 665 pack 0 500;
#X obj 604 688 line~;
#X obj 457 666 pack 0 500;
#X obj 514 643 r \$0-delay;
#X obj 459 643 f;
#X obj 457 689 line~;
#X obj 390 520 s \$0-nextRamp;
#X obj 463 616 r \$0-nextRamp;
#X obj 593 606 r \$0-nextRamp;
#X obj 448 493 t b a;
#X obj 488 491 s \$0-delay;
#X obj 661 642 r \$0-delay;
#X obj 604 711 s~ \$0-rt_volume;
#X obj 457 713 s~ \$0-rt_pitch;
#X obj 476 582 sdUnEvent pitch volume, f 43;
#X obj 31 334 mtof~;
#X obj 60 615 r~ \$0-rt_volume;
#X obj 39 241 r~ \$0-rt_pitch;
#X obj 54 265 r \$0-pitch;
#X obj 31 310 +~;
#X obj 54 288 sdNum2Sig~;
#X obj 47 591 sdNum2Sig~;
#X obj 32 613 *~;
#X obj 47 568 r \$0-volume;
#X obj 32 665 outlet~;
#X obj 31 357 osc~;
#X obj 12 12 inlet~;
#X obj 104 34 route init;
#X obj 321 180 outlet;
#X obj 199 64 route start stop;
#X obj 199 87 s \$0-start;
#X obj 247 112 s \$0-stop;
#X obj 337 334 r \$0-start;
#X msg 337 357 start;
#X obj 386 357 r \$0-stop;
#X msg 386 380 stop;
#X msg 122 85 init;
#X obj 104 57 t b b;
#X obj 593 278 r \$0-envelope;
#X obj 626 324 list length;
#X obj 593 301 t a a;
#X obj 593 369 sdGate;
#X obj 626 347 != 0;
#X obj 106 139 s \$0-init;
#X obj 75 112 t b b;
#X obj 422 380 r \$0-init;
#X msg 422 403 init;
#X obj 671 436 sdPackFromHuman;
#X msg 670 413 list p1 ( pitch ( 0 ) volume ( 1 ) );
#X obj 75 189 s \$0-envelope_rcv;
#X obj 75 166 sdSetSelector priv.get;
#X obj 643 389 t b b;
#X obj 648 463 s \$0-start;
#X obj 199 604 expr 16*$f1*$f1*$f1*$f1*$f1-20*$f1*$f1*$f1+5*$f1, f
27;
#X obj 155 476 sdDist~;
#X obj 199 652 s \$0-fromFunc;
#X obj 194 453 r \$0-fromFunc;
#X obj 364 114 sdProperty volume \$0 1 intern 0 1;
#X obj 144 545 sdGate~;
#X obj 198 581 expr ($f1-($f2-1)/2)/(($f2-3)/2);
#X obj 178 424 r \$0-dist;
#X obj 139 447 sdGate~;
#X obj 183 522 r \$0-dist.wet;
#X obj 10 542 sdGate~;
#X obj 61 492 r \$0-dist.wet;
#X obj 61 515 expr 1-$f1;
#X obj 418 162 sdProperty dist.wet \$0 0.5 intern 0 1;
#X obj 400 139 sdProperty dist \$0 0.5 intern 0 1;
#X connect 0 0 36 0;
#X connect 0 1 3 0;
#X connect 1 0 35 0;
#X connect 2 0 32 0;
#X connect 3 0 36 0;
#X connect 3 1 65 0;
#X connect 4 1 17 0;
#X connect 4 2 18 0;
#X connect 5 0 6 0;
#X connect 6 0 4 0;
#X connect 7 0 8 0;
#X connect 8 0 9 0;
#X connect 9 0 20 0;
#X connect 10 0 13 0;
#X connect 11 0 10 1;
#X connect 12 0 10 0;
#X connect 13 0 21 0;
#X connect 15 0 12 0;
#X connect 16 0 7 0;
#X connect 17 0 14 0;
#X connect 17 1 22 0;
#X connect 19 0 8 1;
#X connect 22 0 12 1;
#X connect 22 1 7 1;
#X connect 23 0 33 0;
#X connect 24 0 2 1;
#X connect 25 0 27 0;
#X connect 26 0 28 0;
#X connect 27 0 23 0;
#X connect 28 0 27 1;
#X connect 29 0 30 1;
#X connect 30 0 2 0;
#X connect 31 0 29 0;
#X connect 33 0 69 0;
#X connect 33 0 71 0;
#X connect 34 0 27 0;
#X connect 35 0 45 0;
#X connect 35 1 37 0;
#X connect 37 0 38 0;
#X connect 37 1 39 0;
#X connect 37 2 0 0;
#X connect 40 0 41 0;
#X connect 41 0 4 0;
#X connect 42 0 43 0;
#X connect 43 0 4 0;
#X connect 44 0 37 0;
#X connect 45 0 52 0;
#X connect 45 1 44 0;
#X connect 46 0 48 0;
#X connect 47 0 50 0;
#X connect 48 0 49 0;
#X connect 48 1 47 0;
#X connect 49 0 5 0;
#X connect 49 1 59 0;
#X connect 50 0 49 1;
#X connect 52 0 58 0;
#X connect 52 1 51 0;
#X connect 53 0 54 0;
#X connect 54 0 4 0;
#X connect 55 0 5 0;
#X connect 56 0 55 0;
#X connect 58 0 57 0;
#X connect 59 0 60 0;
#X connect 59 1 56 0;
#X connect 61 0 63 0;
#X connect 62 0 66 0;
#X connect 62 1 67 0;
#X connect 62 2 67 1;
#X connect 64 0 62 1;
#X connect 65 0 36 0;
#X connect 65 1 75 0;
#X connect 66 0 30 0;
#X connect 67 0 61 0;
#X connect 68 0 69 1;
#X connect 69 0 62 0;
#X connect 70 0 66 1;
#X connect 71 0 30 0;
#X connect 72 0 73 0;
#X connect 73 0 71 1;
#X connect 74 0 36 0;
#X connect 75 0 36 0;
#X connect 75 1 74 0;
