#N canvas 0 30 844 722 10;
#X obj 155 20 inlet;
#X obj 80 222 sdEventToProperties;
#X obj 137 413 outlet~;
#X obj 171 68 sdObjState \$1 \$2 \$3;
#X obj 239 400 s \$0-fromProps;
#X obj 226 22 r \$0-fromProps;
#X obj 226 45 list;
#X obj 55 190 sdPackFilter info update;
#X obj 158 365 sdSynthVoice~;
#X obj 130 156 print \$1.in;
#X obj 395 195 outlet;
#X obj 243 267 sdProperty debug \$0 0 intern 0 1 1;
#X obj 235 300 s \$0-fromProps;
#X obj 278 235 t a a;
#X obj 131 133 sdGate;
#X obj 164 105 r \$0-debug;
#X obj 384 134 sdGate;
#X obj 417 106 r \$0-debug;
#X obj 383 157 print \$1.out;
#X obj 309 94 t a a;
#X connect 0 0 3 0;
#X connect 1 0 8 1;
#X connect 1 1 11 0;
#X connect 1 1 8 2;
#X connect 3 0 7 0;
#X connect 3 0 14 0;
#X connect 3 1 13 0;
#X connect 3 2 19 0;
#X connect 5 0 6 0;
#X connect 6 0 3 1;
#X connect 7 1 1 0;
#X connect 8 0 2 0;
#X connect 8 1 4 0;
#X connect 11 0 12 0;
#X connect 13 0 11 0;
#X connect 13 1 8 2;
#X connect 14 0 9 0;
#X connect 15 0 14 1;
#X connect 16 0 18 0;
#X connect 17 0 16 1;
#X connect 19 0 10 0;
#X connect 19 1 16 0;
