#N canvas 0 30 681 736 10;
#X obj 324 31 inlet;
#X obj 47 169 sdPack set;
#X obj 47 192 s \$1;
#X obj 303 84 t a a, f 11;
#X obj 20 678 outlet~;
#X obj 46 145 sdObjTrack length samples sample.index;
#X obj 502 92 t a a;
#X obj 523 377 outlet;
#X obj 661 385 outlet;
#X obj 153 104 t a a;
#X obj 324 55 sdObjState \$1 \$2 \$3;
#X obj 378 32 list;
#X obj 324 240 sdEventToProperties;
#X obj 128 176 sdPackFilter info update;
#X obj 188 214 sdPackFilter start stop;
#X obj 377 79 s \$0-toProps;
#X obj 167 42 print \$1.in;
#X obj 153 513 send;
#X obj 34 425 sdUnPack;
#X obj 34 361 t a a;
#X obj 123 405 print \$1.toVoices;
#X obj 487 12 loadbang;
#X msg 487 35 list init 0;
#X obj 501 120 sdObjTrackAll;
#X text 626 35 \$4: table \;;
#X obj 473 453 r \$0-allVoices;
#X obj 633 267 s \$0-allVoices;
#X obj 365 477 throw~ \$0-audio-out;
#X obj 20 654 catch~ \$0-audio-out;
#X obj 608 216 sdPack set;
#X obj 608 239 sdEventToProperties;
#X obj 26 459 sdEventToProperties;
#X obj 51 35 sdPackFilter init;
#X obj 51 58 t b;
#X msg 51 81 init;
#X obj 51 104 s \$0-allVoices;
#X obj 378 9 r \$0-fromProps;
#X obj 393 354 s \$0-fromProps;
#X obj 406 309 r \$0-toProps;
#X obj 122 382 sdGate;
#X obj 170 381 tgl 15 0 empty empty empty 17 7 0 10 -262144 -1 -1 0
1;
#X obj 34 327 sdEventToVoices pitch \$0-voice \$1;
#X obj 587 178 sdPackFilter pitch range_info;
#X obj 512 147 sdPackFilter events;
#X obj 512 170 sdUnPack;
#X obj 512 193 s \$0-events;
#X obj 302 174 r \$0-events;
#X obj 450 429 r \$0-voice.1.props;
#X obj 344 429 r \$0-voice.1.msg;
#X obj 473 523 r \$0-allVoices;
#X obj 365 547 throw~ \$0-audio-out;
#X obj 473 593 r \$0-allVoices;
#X obj 365 617 throw~ \$0-audio-out;
#X obj 473 663 r \$0-allVoices;
#X obj 365 687 throw~ \$0-audio-out;
#X obj 344 499 r \$0-voice.2.msg;
#X obj 450 499 r \$0-voice.2.props;
#X obj 344 569 r \$0-voice.3.msg;
#X obj 450 569 r \$0-voice.3.props;
#X obj 450 639 r \$0-voice.4.props;
#X obj 344 639 r \$0-voice.4.msg;
#X msg 189 513 symbol \$1.props;
#X obj 152 459 t s s;
#X obj 20 513 send;
#X obj 293 329 sdSynthVoice~;
#X obj 365 524 sdSynthVoice~;
#X obj 365 454 sdSynthVoice~;
#X obj 365 594 sdSynthVoice~;
#X obj 365 663 sdSynthVoice~;
#X msg 56 513 symbol \$1.msg;
#X connect 0 0 10 0;
#X connect 1 0 2 0;
#X connect 3 0 9 0;
#X connect 3 1 8 0;
#X connect 5 0 1 0;
#X connect 6 0 23 0;
#X connect 6 1 7 0;
#X connect 9 0 5 0;
#X connect 9 0 32 0;
#X connect 9 1 13 0;
#X connect 10 0 3 0;
#X connect 10 0 16 0;
#X connect 10 1 15 0;
#X connect 10 2 6 0;
#X connect 11 0 10 1;
#X connect 12 0 64 1;
#X connect 12 1 64 2;
#X connect 13 1 14 0;
#X connect 14 0 41 0;
#X connect 14 1 12 0;
#X connect 18 0 31 0;
#X connect 18 2 62 0;
#X connect 19 0 18 0;
#X connect 19 1 39 0;
#X connect 21 0 22 0;
#X connect 22 0 10 0;
#X connect 23 0 43 0;
#X connect 25 0 66 2;
#X connect 28 0 4 0;
#X connect 29 0 30 0;
#X connect 30 1 26 0;
#X connect 31 0 63 0;
#X connect 31 1 17 0;
#X connect 32 0 33 0;
#X connect 33 0 34 0;
#X connect 34 0 35 0;
#X connect 36 0 11 0;
#X connect 38 0 64 2;
#X connect 39 0 20 0;
#X connect 40 0 39 1;
#X connect 41 0 19 0;
#X connect 42 1 29 0;
#X connect 43 0 44 0;
#X connect 43 1 42 0;
#X connect 44 0 45 0;
#X connect 46 0 14 1;
#X connect 47 0 66 2;
#X connect 48 0 66 1;
#X connect 49 0 65 2;
#X connect 51 0 67 2;
#X connect 53 0 68 2;
#X connect 55 0 65 1;
#X connect 56 0 65 2;
#X connect 57 0 67 1;
#X connect 58 0 67 2;
#X connect 59 0 68 2;
#X connect 60 0 68 1;
#X connect 61 0 17 1;
#X connect 62 0 69 0;
#X connect 62 1 61 0;
#X connect 64 1 37 0;
#X connect 65 0 50 0;
#X connect 66 0 27 0;
#X connect 67 0 52 0;
#X connect 68 0 54 0;
#X connect 69 0 63 1;
