#N canvas 0 30 721 736 12;
#X obj 75 45 inlet~;
#X obj 54 386 outlet~;
#X obj 308 43 inlet;
#X obj 308 71 sdObjState \$1 \$2 \$3;
#X obj 168 157 sdEventToProperties;
#X obj 147 121 sdPackFilter info update;
#X obj 551 301 outlet;
#X obj 290 342 s \$0-fromProps;
#X obj 387 19 r \$0-fromProps;
#X obj 387 44 list;
#X obj 191 301 sdCompressor~ \$4 \$5 \$6;
#X connect 0 0 10 0;
#X connect 2 0 3 0;
#X connect 3 0 5 0;
#X connect 3 1 10 1;
#X connect 3 2 6 0;
#X connect 4 0 10 1;
#X connect 4 1 10 1;
#X connect 5 1 4 0;
#X connect 8 0 9 0;
#X connect 9 0 3 1;
#X connect 10 0 1 0;
#X connect 10 1 7 0;
