#N canvas 0 30 721 736 12;
#X obj 7 634 outlet~;
#X obj 21 9 inlet~;
#X obj 21 61 r~ \$0-audio-in;
#X obj 21 34 s~ \$0-audio-in;
#X obj 184 174 env~ 1024;
#X obj 185 147 r~ \$0-audio-in;
#X obj 532 549 samplerate~;
#X obj 542 518 bng 15 250 50 0 empty empty empty 17 7 0 10 -262144
-1 -1;
#X obj 534 575 expr 1024*(1/$f1)*1000;
#X obj 30 602 *~;
#X obj 21 87 delwrite~ \$0-del 1000;
#X obj 17 149 delread~ \$0-del 0;
#X obj 563 518 loadbang;
#X obj 252 25 inlet;
#X obj 254 94 outlet;
#X obj 184 199 moses 50;
#X obj 322 473 dbtorms;
#X obj 322 448 expr 100+$f1;
#X obj 256 198 r \$0-threshold;
#X obj 353 22 sdFloatBang \$1;
#X obj 353 47 t f f;
#X obj 353 72 sdGate;
#X msg 353 110 priv.set \$1;
#X obj 492 46 t f f;
#X obj 492 71 sdGate;
#X msg 492 96 priv.set \$1;
#X obj 640 52 t f f;
#X obj 640 77 sdGate;
#X msg 640 102 priv.set \$1;
#X obj 640 27 sdFloatBang \$3;
#X obj 492 21 sdFloatBang \$2;
#X obj 353 135 s \$0-threshold_rcv;
#X obj 640 127 s \$0-factor_rcv;
#X obj 48 197 sdNum_ui 0 100;
#N canvas 0 30 721 736 properties 0;
#X obj 62 29 inlet;
#X obj 137 465 outlet;
#X obj 127 171 sdProperty threshold \$0 50 intern 0 100;
#X obj 240 355 sdProperty attack-time \$0 23.22 intern 0 1000;
#X obj 249 384 sdProperty release-time \$0 23.22 intern 0 1000;
#X obj 264 417 sdProperty signal-delay \$0 23.22 intern 0 1000;
#X obj 274 446 sdProperty is-on \$0 0 intern 0 1 1;
#X obj 224 297 sdProperty off-factor \$0 1 intern 0 100;
#X obj 207 268 sdProperty off-level \$0 0 intern 0 100;
#X obj 195 229 sdProperty factor \$0 10 intern 0 1000;
#X obj 172 199 sdProperty level \$0 50 intern 0 100;
#X connect 0 0 2 0;
#X connect 2 0 1 0;
#X connect 2 1 10 0;
#X connect 3 0 1 0;
#X connect 3 1 4 0;
#X connect 4 0 1 0;
#X connect 4 1 5 0;
#X connect 5 0 1 0;
#X connect 5 1 6 0;
#X connect 6 0 1 0;
#X connect 7 0 1 0;
#X connect 7 1 3 0;
#X connect 8 0 1 0;
#X connect 8 1 7 0;
#X connect 9 0 1 0;
#X connect 9 1 8 0;
#X connect 10 0 1 0;
#X connect 10 1 9 0;
#X restore 241 58 pd properties;
#X obj 64 576 line~;
#X obj 281 508 pack 0 50;
#X obj 352 506 r \$0-attack-time;
#X obj 523 170 r \$0-threshold;
#X floatatom 523 195 5 0 0 0 - - -;
#X floatatom 523 244 5 0 0 0 - - -;
#X floatatom 523 293 5 0 0 0 - - -;
#X floatatom 409 245 5 0 0 0 - - -;
#X obj 634 170 r \$0-attack-time;
#X floatatom 634 195 5 0 0 0 - - -;
#X obj 634 219 r \$0-release-time;
#X floatatom 634 244 5 0 0 0 - - -;
#X obj 634 268 r \$0-signal-delay;
#X floatatom 634 293 5 0 0 0 - - -;
#X msg 370 635 priv.set \$1;
#X obj 370 660 s \$0-is-on_rcv;
#X obj 131 267 s \$0-off;
#X obj 237 269 s \$0-on;
#X obj 244 242 t b f;
#X obj 375 551 r \$0-on;
#X msg 375 576 1;
#X obj 414 577 r \$0-off;
#X msg 414 602 0;
#X obj 48 476 dbtorms;
#X obj 131 241 t b f;
#X obj 48 451 expr 100+$f1;
#X obj 120 360 r \$0-off-factor;
#X floatatom 409 293 5 0 0 0 - - -;
#X obj 409 268 r \$0-off-factor;
#X obj 59 513 pack 0 50;
#X obj 130 511 r \$0-release-time;
#X obj 238 596 sdNum_ui -150 150;
#X obj 17 122 r \$0-signal-delay;
#X floatatom 204 414 5 0 0 0 - - -;
#X obj 48 387 expr (($f1-$f3) / $f2) - $f1 + $f3, f 21;
#X obj 322 383 expr (($f1-$f3) / $f2) - $f1 + $f3, f 21;
#X obj 534 626 s \$0-signal-delay_rcv;
#X msg 534 600 priv.set \$1;
#X floatatom 148 117 5 0 0 0 - - -;
#X obj 409 220 r \$0-off-level;
#X obj 206 387 r \$0-off-level;
#X obj 479 381 r \$0-level;
#X obj 394 357 r \$0-factor;
#X obj 523 219 r \$0-level;
#X obj 523 268 r \$0-factor;
#X obj 492 122 s \$0-level_rcv;
#X connect 1 0 3 0;
#X connect 2 0 10 0;
#X connect 4 0 15 0;
#X connect 4 0 33 0;
#X connect 5 0 4 0;
#X connect 6 0 8 0;
#X connect 7 0 6 0;
#X connect 8 0 72 0;
#X connect 9 0 0 0;
#X connect 11 0 9 0;
#X connect 12 0 6 0;
#X connect 13 0 34 0;
#X connect 15 0 59 0;
#X connect 15 1 53 0;
#X connect 16 0 36 0;
#X connect 17 0 16 0;
#X connect 18 0 15 1;
#X connect 19 0 20 0;
#X connect 20 0 21 0;
#X connect 20 1 21 1;
#X connect 21 0 22 0;
#X connect 22 0 31 0;
#X connect 23 0 24 0;
#X connect 23 1 24 1;
#X connect 24 0 25 0;
#X connect 25 0 80 0;
#X connect 26 0 27 0;
#X connect 26 1 27 1;
#X connect 27 0 28 0;
#X connect 28 0 32 0;
#X connect 29 0 26 0;
#X connect 30 0 23 0;
#X connect 34 0 14 0;
#X connect 35 0 9 1;
#X connect 36 0 35 0;
#X connect 37 0 36 1;
#X connect 38 0 39 0;
#X connect 43 0 44 0;
#X connect 45 0 46 0;
#X connect 47 0 48 0;
#X connect 49 0 50 0;
#X connect 53 0 52 0;
#X connect 53 1 70 0;
#X connect 54 0 55 0;
#X connect 55 0 49 0;
#X connect 56 0 57 0;
#X connect 57 0 49 0;
#X connect 58 0 64 0;
#X connect 59 0 51 0;
#X connect 59 1 69 0;
#X connect 60 0 58 0;
#X connect 60 0 66 0;
#X connect 61 0 69 1;
#X connect 63 0 62 0;
#X connect 64 0 35 0;
#X connect 65 0 64 1;
#X connect 67 0 11 0;
#X connect 67 0 73 0;
#X connect 69 0 60 0;
#X connect 70 0 17 0;
#X connect 72 0 71 0;
#X connect 74 0 42 0;
#X connect 75 0 68 0;
#X connect 75 0 69 2;
#X connect 76 0 70 2;
#X connect 77 0 70 1;
#X connect 78 0 40 0;
#X connect 79 0 41 0;
