#N canvas 0 30 721 736 12;
#X obj 7 634 outlet~;
#X obj 35 50 inlet~;
#X obj 35 102 r~ \$0-audio-in;
#X obj 35 75 s~ \$0-audio-in;
#X floatatom 424 456 5 0 0 0 - - -;
#X obj 184 252 env~ 1024;
#X obj 156 214 r~ \$0-audio-in;
#X obj 536 496 samplerate~;
#X obj 546 465 bng 15 250 50 0 empty empty empty 17 7 0 10 -262144
-1 -1;
#X obj 538 522 expr 1024*(1/$f1)*1000;
#X obj 30 602 *~;
#X obj 35 128 delwrite~ \$0-del 1000;
#X obj 31 190 delread~ \$0-del 0;
#X obj 538 547 s \$0-del-time;
#X obj 31 163 r \$0-del-time;
#X obj 567 465 loadbang;
#X floatatom 163 188 5 0 0 0 - - -;
#X obj 328 432 expr ((\$1-$f3) / $f2) - $f1 + $f3;
#X obj 442 406 r \$0-factor;
#X obj 556 406 r \$0-limit;
#X obj 252 25 inlet;
#X obj 320 205 outlet;
#X obj 184 277 moses 50;
#X obj 327 482 dbtorms;
#X obj 328 457 expr 100+$f1;
#X obj 256 276 r \$0-threshold;
#X obj 353 22 sdFloatBang \$1;
#X obj 353 47 t f f;
#X obj 353 72 sdGate;
#X msg 353 110 priv.set \$1;
#X obj 492 46 t f f;
#X obj 492 71 sdGate;
#X msg 492 96 priv.set \$1;
#X obj 640 52 t f f;
#X obj 640 77 sdGate;
#X msg 640 102 priv.set \$1;
#X obj 640 27 sdFloatBang \$3;
#X obj 492 21 sdFloatBang \$2;
#X msg 581 98 init;
#X msg 730 102 init;
#X obj 353 135 s \$0-threshold_rcv;
#X obj 492 121 s \$0-limit_rcv;
#X obj 640 127 s \$0-factor_rcv;
#X msg 426 80 init;
#X obj 48 264 sdNum_ui 0 100;
#X obj 65 432 f 1;
#X obj 83 405 r \$0-noise-level;
#N canvas 0 30 721 736 properties 0;
#X obj 62 29 inlet;
#X obj 195 229 sdProperty factor \$0 10 intern 0 1000;
#X obj 137 465 outlet;
#X obj 172 199 sdProperty limit \$0 50 intern 0 100;
#X obj 127 171 sdProperty threshold \$0 50 intern 0 100;
#X obj 219 304 sdProperty attack-time \$0 23.22 intern 0 1000;
#X obj 228 333 sdProperty release-time \$0 23.22 intern 0 1000;
#X obj 243 366 sdProperty signal-delay \$0 23.22 intern 0 1000;
#X obj 253 395 sdProperty is-on \$0 0 intern 0 1 1;
#X obj 207 268 sdProperty noise-level \$0 100 intern 0 100;
#X connect 0 0 4 0;
#X connect 1 0 2 0;
#X connect 1 1 9 0;
#X connect 3 0 2 0;
#X connect 3 1 1 0;
#X connect 4 0 2 0;
#X connect 4 1 3 0;
#X connect 5 0 2 0;
#X connect 5 1 6 0;
#X connect 6 0 2 0;
#X connect 6 1 7 0;
#X connect 7 0 2 0;
#X connect 7 1 8 0;
#X connect 8 0 2 0;
#X connect 9 0 2 0;
#X connect 9 1 5 0;
#X restore 307 169 pd properties;
#X obj 64 576 line~;
#X obj 128 547 pack 0 50;
#X obj 199 545 r \$0-attack-time;
#X obj 64 483 pack 0 50;
#X obj 135 481 r \$0-release-time;
#X obj 417 177 r \$0-threshold;
#X floatatom 417 202 5 0 0 0 - - -;
#X obj 417 225 r \$0-limit;
#X floatatom 417 250 5 0 0 0 - - -;
#X obj 417 274 r \$0-factor;
#X floatatom 417 299 5 0 0 0 - - -;
#X obj 417 323 r \$0-noise-level;
#X floatatom 417 348 5 0 0 0 - - -;
#X obj 634 170 r \$0-attack-time;
#X floatatom 634 195 5 0 0 0 - - -;
#X obj 634 219 r \$0-release-time;
#X floatatom 634 244 5 0 0 0 - - -;
#X obj 634 268 r \$0-signal-delay;
#X floatatom 634 293 5 0 0 0 - - -;
#X msg 487 667 priv.set \$1;
#X obj 487 692 s \$0-is-on_rcv;
#X obj 150 343 s \$0-off;
#X obj 237 347 s \$0-on;
#X obj 150 318 t b b;
#X obj 244 320 t b f;
#X obj 487 591 r \$0-on;
#X msg 487 616 1;
#X obj 526 617 r \$0-off;
#X msg 526 642 0;
#X obj 64 457 dbtorms;
#X floatatom 109 430 5 0 0 0 - - -;
#X connect 1 0 3 0;
#X connect 2 0 11 0;
#X connect 5 0 22 0;
#X connect 5 0 44 0;
#X connect 6 0 5 0;
#X connect 7 0 9 0;
#X connect 8 0 7 0;
#X connect 9 0 13 0;
#X connect 10 0 0 0;
#X connect 12 0 10 0;
#X connect 14 0 12 0;
#X connect 14 0 16 0;
#X connect 15 0 7 0;
#X connect 17 0 4 0;
#X connect 17 0 24 0;
#X connect 18 0 17 1;
#X connect 19 0 17 2;
#X connect 20 0 47 0;
#X connect 22 0 71 0;
#X connect 22 1 72 0;
#X connect 23 0 49 0;
#X connect 24 0 23 0;
#X connect 25 0 22 1;
#X connect 26 0 27 0;
#X connect 27 0 28 0;
#X connect 27 1 28 1;
#X connect 28 0 29 0;
#X connect 28 1 43 0;
#X connect 29 0 40 0;
#X connect 30 0 31 0;
#X connect 30 1 31 1;
#X connect 31 0 32 0;
#X connect 31 1 38 0;
#X connect 32 0 41 0;
#X connect 33 0 34 0;
#X connect 33 1 34 1;
#X connect 34 0 35 0;
#X connect 34 1 39 0;
#X connect 35 0 42 0;
#X connect 36 0 33 0;
#X connect 37 0 30 0;
#X connect 38 0 41 0;
#X connect 39 0 42 0;
#X connect 43 0 40 0;
#X connect 45 0 78 0;
#X connect 45 0 77 0;
#X connect 46 0 45 1;
#X connect 47 0 21 0;
#X connect 48 0 10 1;
#X connect 49 0 48 0;
#X connect 50 0 49 1;
#X connect 51 0 48 0;
#X connect 52 0 51 1;
#X connect 53 0 54 0;
#X connect 55 0 56 0;
#X connect 57 0 58 0;
#X connect 59 0 60 0;
#X connect 61 0 62 0;
#X connect 63 0 64 0;
#X connect 65 0 66 0;
#X connect 67 0 68 0;
#X connect 71 0 69 0;
#X connect 71 1 45 0;
#X connect 72 0 70 0;
#X connect 72 1 17 0;
#X connect 73 0 74 0;
#X connect 74 0 67 0;
#X connect 75 0 76 0;
#X connect 76 0 67 0;
#X connect 77 0 51 0;
