#N canvas 0 30 721 736 12;
#X obj 7 634 outlet~;
#X obj 21 9 inlet~;
#X obj 167 324 delread~ \$0-del 0;
#X obj 417 28 inlet;
#X obj 444 98 outlet;
#N canvas 0 30 721 736 properties 0;
#X obj 62 29 inlet;
#X obj 137 247 outlet;
#X obj 62 55 sdProperty delay \$0 1000 intern 0 30000;
#X obj 176 89 sdProperty feedback \$0 0 intern 0 1;
#X obj 208 123 sdProperty wet \$0 0.5 intern 0 1;
#X connect 0 0 2 0;
#X connect 2 0 1 0;
#X connect 2 1 3 0;
#X connect 3 0 1 0;
#X connect 3 1 4 0;
#X connect 4 0 1 0;
#X restore 442 62 pd properties;
#X floatatom 274 463 5 0 0 0 - - -;
#X floatatom 363 460 5 0 0 0 - - -;
#X obj 167 298 r \$0-delay;
#X obj 274 437 r \$0-delay;
#X obj 363 435 r \$0-feedback;
#X obj 199 532 sdFloatBang \$1;
#X obj 199 557 t f f;
#X obj 199 582 sdGate;
#X msg 199 610 priv.set \$1;
#X obj 338 556 t f f;
#X obj 338 581 sdGate;
#X msg 338 606 priv.set \$1;
#X obj 486 562 t f f;
#X obj 486 587 sdGate;
#X msg 486 612 priv.set \$1;
#X obj 486 537 sdFloatBang \$3;
#X obj 338 531 sdFloatBang \$2;
#X obj 199 635 s \$0-threshold_rcv;
#X obj 486 637 s \$0-factor_rcv;
#X obj 338 632 s \$0-level_rcv;
#X obj 253 159 r~ \$0-feedback;
#X obj 191 366 s~ \$0-feedback;
#X obj 36 115 *~;
#X obj 168 121 *~;
#X obj 183 49 expr (1-$f1) \; $f1;
#X obj 70 115 sdNum2Sig~;
#X obj 202 121 sdNum2Sig~;
#X obj 183 19 r \$0-wet;
#X floatatom 187 462 5 0 0 0 - - -;
#X obj 187 436 r \$0-wet;
#X obj 253 214 *~;
#X obj 292 185 r \$0-feedback;
#X obj 292 210 sdNum2Sig~;
#X obj 166 263 delwrite~ \$0-del \$1;
#X connect 1 0 28 0;
#X connect 1 0 29 0;
#X connect 2 0 0 0;
#X connect 2 0 27 0;
#X connect 3 0 5 0;
#X connect 5 0 4 0;
#X connect 8 0 2 0;
#X connect 9 0 6 0;
#X connect 10 0 7 0;
#X connect 11 0 12 0;
#X connect 12 0 13 0;
#X connect 12 1 13 1;
#X connect 13 0 14 0;
#X connect 14 0 23 0;
#X connect 15 0 16 0;
#X connect 15 1 16 1;
#X connect 16 0 17 0;
#X connect 17 0 25 0;
#X connect 18 0 19 0;
#X connect 18 1 19 1;
#X connect 19 0 20 0;
#X connect 20 0 24 0;
#X connect 21 0 18 0;
#X connect 22 0 15 0;
#X connect 26 0 36 0;
#X connect 28 0 0 0;
#X connect 29 0 39 0;
#X connect 30 0 31 0;
#X connect 30 0 32 0;
#X connect 31 0 28 1;
#X connect 32 0 29 1;
#X connect 33 0 30 0;
#X connect 35 0 34 0;
#X connect 36 0 39 0;
#X connect 37 0 38 0;
#X connect 38 0 36 1;
