#N canvas 683 30 681 160 12;
#X obj 98 396 freeverb~;
#X msg 172 179 roomsize \$1;
#X msg 211 239 damping \$1;
#X msg 291 315 width \$1;
#X msg 373 361 wet \$1;
#X msg 441 356 dry \$1;
#X obj 346 53 sdProperty roomsize \$0 0.5 intern 0.1 1.1;
#X obj 403 81 sdProperty damping \$0 0.5 intern 0 2;
#X obj 432 114 sdProperty width \$0 1 intern 0 1;
#X obj 458 144 sdProperty wet \$0 0.5 intern 0 1;
#X obj 380 313 expr $f1 \; 1-$f1;
#X obj 380 285 r \$0-wet;
#X obj 291 288 r \$0-width;
#X obj 211 212 r \$0-damping;
#X obj 167 147 r \$0-roomsize;
#X obj 299 22 inlet;
#X obj 384 200 outlet;
#X obj 21 39 inlet~;
#X obj 88 43 inlet~;
#X obj 42 454 outlet~;
#X obj 175 449 outlet~;
#X connect 0 0 19 0;
#X connect 0 1 20 0;
#X connect 1 0 0 0;
#X connect 2 0 0 0;
#X connect 3 0 0 0;
#X connect 4 0 0 0;
#X connect 5 0 0 0;
#X connect 6 0 16 0;
#X connect 6 1 7 0;
#X connect 7 0 16 0;
#X connect 7 1 8 0;
#X connect 8 0 16 0;
#X connect 8 1 9 0;
#X connect 9 0 16 0;
#X connect 10 0 4 0;
#X connect 10 1 5 0;
#X connect 11 0 10 0;
#X connect 12 0 3 0;
#X connect 13 0 2 0;
#X connect 14 0 1 0;
#X connect 15 0 6 0;
#X connect 17 0 0 0;
#X connect 18 0 0 1;
