#N canvas 0 30 681 736 12;
#X obj 21 39 inlet~;
#X obj 88 43 inlet~;
#X obj 42 454 outlet~;
#X obj 175 449 outlet~;
#X obj 154 320 sdFreeverb~;
#X obj 206 23 inlet;
#X obj 549 226 outlet;
#X obj 319 94 sdObjState \$1 \$2 \$3;
#X obj 167 191 sdEventToProperties;
#X obj 175 149 sdFilter info update;
#X obj 241 356 s \$0-fromProperties;
#X obj 374 33 r \$0-fromProperties;
#X obj 374 58 list;
#X connect 0 0 4 0;
#X connect 1 0 4 1;
#X connect 4 0 2 0;
#X connect 4 1 3 0;
#X connect 4 2 10 0;
#X connect 5 0 7 0;
#X connect 7 0 9 0;
#X connect 7 1 4 2;
#X connect 7 2 6 0;
#X connect 8 0 4 2;
#X connect 8 1 4 2;
#X connect 9 1 8 0;
#X connect 11 0 12 0;
#X connect 12 0 7 1;
