#N canvas 0 30 844 722 10;
#X obj 583 171 catch~ out;
#X floatatom 712 326 5 0 0 0 - - -;
#X floatatom 712 423 5 0 0 0 - - -;
#X floatatom 722 377 6 0 0 0 - - -;
#X obj 712 400 sdSizeFromLength;
#X obj 712 356 sdLengthFromSize;
#X obj 575 308 s~ in;
#X obj 60 156 r~ in;
#N canvas 0 30 844 722 glue 0;
#X msg 195 144 2;
#X obj 195 167 until;
#X obj 195 104 t b b;
#X obj 176 33 bng 15 250 50 0 empty empty empty 17 7 0 10 -262144 -1
-1;
#X msg 281 164 1;
#X obj 195 191 sdCounter -1;
#X msg 195 214 \; tab\$1 list set 3 tableLength 1 60000;
#X msg 473 134 list init 0;
#X obj 195 31 inlet;
#X obj 473 157 s GLOBAL;
#N canvas 0 30 844 722 modes 0;
#X obj 106 110 t b b;
#X obj 550 48 t b b;
#X msg 733 369 clear;
#X obj 198 678 outlet;
#X obj 70 18 inlet;
#X obj 198 589 sdData;
#X obj 70 41 t b b;
#X obj 50 535 t b;
#X obj 198 635 sdPack set;
#X obj 198 612 sdPack modes;
#X obj 362 156 t b b;
#N canvas 0 30 844 722 read 0;
#X obj 103 60 inlet;
#X obj 751 117 inlet;
#X text 749 98 volumes;
#X obj 201 500 sdData;
#X obj 103 83 t b b;
#X msg 72 245 bang \, clear;
#X obj 201 523 outlet;
#X obj 232 389 sdPackFromHuman;
#X obj 168 85 t b b;
#X msg 168 113 list read_pos ( #[ ( analog ( * index ( 0 ) value (
?value ) ) ) ( Print ( Pack ( readTab1 Pack ( set_pos Pack ( pos $
( value ) ) ) ) ) Out ( list ) ) #] ) read_pos ( #[ ( analog ( * index
( 1 ) value ( ?value ) ) ) ( Print ( Pack ( readSamp1 Pack ( set_pos
Pack ( pos $ ( value ) ) ) ) ) Out ( list ) ) #] ) read_pos ( #[ (
analog ( * index ( 2 ) value ( ?value ) ) ) ( Print ( Pack ( tapeHead1
Pack ( set_pos Pack ( pos $ ( value ) ) ) ) ) Out ( list ) ) #] );
#X msg 241 248 list sel_sample ( #[ ( switch ( * index ( ?value ) value
( 1 ) ) ) ( If ( < ( $ ( value ) 4 ) Print ( Pack ( gRead Pack ( set_samp
Pack ( sample.index $ ( value ) ) ) ) ) Out ( list ) ) ) #] );
#X connect 0 0 4 0;
#X connect 1 0 3 1;
#X connect 3 0 6 0;
#X connect 4 0 5 0;
#X connect 4 1 8 0;
#X connect 5 0 3 0;
#X connect 7 0 3 1;
#X connect 8 0 9 0;
#X connect 8 1 10 0;
#X connect 9 0 7 0;
#X connect 10 0 7 0;
#X restore 321 317 pd read mode;
#X obj 124 21 bng 15 250 50 0 empty empty empty 17 7 0 10 -262144 -1
-1;
#N canvas 0 30 844 345 rec 0;
#X obj 96 23 inlet;
#X obj 410 56 inlet;
#X text 408 37 volumes;
#X obj 251 304 sdData;
#X obj 96 46 t b b;
#X msg 104 204 bang \, clear;
#X obj 251 327 outlet;
#X obj 192 169 sdPackFromHuman;
#X msg 192 95 list start_rec ( #[ ( switch ( * index ( 0 ) value (
1 ) ) ) ( Print ( Pack ( recSamp Pack ( start ) ) ) Out ( list ) )
#] ) stop_rec ( #[ ( switch ( * index ( 0 ) value ( 0 ) ) ) ( Print
( Pack ( recSamp Pack ( stop ) ) ) Out ( list ) ) #] );
#X connect 0 0 4 0;
#X connect 1 0 3 1;
#X connect 3 0 6 0;
#X connect 4 0 5 0;
#X connect 5 0 3 0;
#X connect 7 0 3 1;
#X connect 8 0 7 0;
#X restore 670 508 pd rec mode;
#X obj 669 531 sdPack rec_mode;
#N canvas 0 30 844 722 common 0;
#X obj 175 375 sdPackFromHuman;
#X obj 189 16 inlet;
#X obj 175 398 outlet;
#X obj 189 63 t b b;
#X msg 189 86 list io_out ( #[ ( analog ( * index ( 5 ) value ( ?value
) ) ) ( Print ( Pack ( io Pack ( set_vol Pack ( out-vol $ ( value )
) ) ) ) Out ( list ) ) #] ) io_in ( #[ ( analog ( * index ( 4 ) value
( ?value ) ) ) ( Print ( Pack ( io Pack ( set_vol Pack ( in-vol $ (
value ) ) ) ) ) Out ( list ) ) #] );
#X obj 189 39 t b b;
#X msg 309 278 list start_sampling ( #[ ( switch ( * index ( 4 ) value
( 1 ) ) ) ( Print ( Pack ( recSamp Pack ( sample.start ) ) ) Out (
list ) ) #] ) stop_sampling ( #[ ( switch ( * index ( 4 ) value ( 0
) ) ) ( Print ( Pack ( recSamp Pack ( sample.stop ) ) ) Out ( list
) ) #] );
#X msg 230 182 list start_rec ( #[ ( switch ( * index ( 5 ) value (
1 ) ) ) ( Print ( Pack ( recSamp Pack ( start ) ) ) Out ( list ) Print
( Pack ( io Pack ( dsp_on Pack ( audio-on 1 ) ) ) ) Out ( list ) )
#] ) stop_rec ( #[ ( switch ( * index ( 5 ) value ( 0 ) ) ) ( Print
( Pack ( recSamp Pack ( stop ) ) ) Out ( list ) ) #] );
#X connect 0 0 2 0;
#X connect 1 0 5 0;
#X connect 3 0 4 0;
#X connect 3 1 7 0;
#X connect 4 0 0 0;
#X connect 5 0 3 0;
#X connect 5 1 6 0;
#X connect 6 0 0 0;
#X connect 7 0 0 0;
#X restore 495 195 pd common;
#X obj 321 340 sdPack read_mode;
#N canvas 0 30 844 722 play 0;
#X obj 23 10 inlet;
#X obj 751 117 inlet;
#X text 749 98 volumes;
#X obj 201 500 sdData;
#X obj 23 33 t b b;
#X msg 72 245 bang \, clear;
#X obj 201 523 outlet;
#X obj 232 389 sdPackFromHuman;
#X obj 168 85 t b b;
#X msg 240 248 list play ( #[ ( switch ( * index ( 0 ) value ( 1 )
) ) ( Print ( Pack ( playSamp Pack ( start ) ) ) Out ( list ) ) #]
) stop ( #[ ( switch ( * index ( 0 ) value ( 0 ) ) ) ( Print ( Pack
( playSamp Pack ( stop ) ) ) Out ( list ) ) #] ) play_gran ( #[ ( switch
( * index ( 1 ) value ( 1 ) ) ) ( Print ( Pack ( playGran Pack ( start
) ) ) Out ( list ) ) #] ) stop_gran ( #[ ( switch ( * index ( 1 ) value
( 0 ) ) ) ( Print ( Pack ( playGran Pack ( stop ) ) ) Out ( list )
) #] );
#X msg 160 135 list timeFac ( #[ ( analog ( * index ( 0 ) value ( ?value
) ) ) ( Print ( Pack ( playGran Pack ( set_timeFac Pack ( timeFactor
$ ( value ) ) ) ) ) Out ( list ) ) #] );
#X connect 0 0 4 0;
#X connect 1 0 3 1;
#X connect 3 0 6 0;
#X connect 4 0 5 0;
#X connect 4 1 8 0;
#X connect 5 0 3 0;
#X connect 7 0 3 1;
#X connect 8 0 10 0;
#X connect 8 1 9 0;
#X connect 9 0 7 0;
#X connect 10 0 7 0;
#X restore 159 327 pd play mode;
#X obj 159 350 sdPack play_mode;
#X connect 0 1 10 0;
#X connect 1 0 0 0;
#X connect 1 1 2 0;
#X connect 1 1 15 0;
#X connect 2 0 5 0;
#X connect 4 0 6 0;
#X connect 5 0 9 0;
#X connect 6 0 7 0;
#X connect 6 1 1 0;
#X connect 7 0 5 0;
#X connect 8 0 3 0;
#X connect 9 0 8 0;
#X connect 10 0 17 0;
#X connect 10 1 11 0;
#X connect 11 0 16 0;
#X connect 12 0 6 0;
#X connect 13 0 14 0;
#X connect 15 0 11 1;
#X connect 15 0 17 1;
#X connect 16 0 5 1;
#X connect 17 0 18 0;
#X connect 18 0 5 1;
#X restore 296 105 pd modes;
#X obj 296 129 s sgDevice;
#X connect 0 0 1 0;
#X connect 1 0 5 0;
#X connect 2 0 0 0;
#X connect 2 1 4 0;
#X connect 3 0 2 0;
#X connect 4 0 5 0;
#X connect 5 0 6 0;
#X connect 7 0 9 0;
#X connect 8 0 7 0;
#X connect 8 0 10 0;
#X connect 10 0 11 0;
#X restore 552 31 pd glue;
#N canvas 0 30 844 722 gui 0;
#X text 394 48 gRec gRead gTab;
#X obj 552 136 loadbang;
#X msg 552 189 list init 0;
#X obj 552 212 s UI-INIT;
#X obj 73 93 sdObjState_ui UI-INIT gRec gRead gTab;
#X connect 2 0 3 0;
#X restore 52 38 pd gui;
#X obj 559 348 table tab1.array;
#X obj 559 375 table tab2.array;
#X text 17 65 table;
#X obj 552 9 loadbang;
#X obj 615 11 bng 15 250 50 0 empty empty empty 17 7 0 10 -262144 -1
-1;
#X text 23 17 user interface to control all objects;
#X text 21 526 play with granular time stretching and/or pitch shifting
;
#X text 26 386 loop a grain starting at pos;
#X text 14 137 record to tables;
#X text 17 266 read from a table;
#X text 279 266 read a section of a table (a "sample");
#X text 286 372 play a section of the table;
#X text 335 642 structuredData:;
#X obj 308 158 r~ in;
#X obj 308 180 sdRecorderSamp_ui~ recSamp gRec gTab;
#X obj 559 401 table tab1noSamp.array;
#X obj 284 125 sdTableNoArray_obj tab1noSamp gTab 60000;
#X obj 60 179 sdRecorder_ui~ rec1 gRec gTab;
#X obj 61 90 print tab1.out;
#X obj 286 90 print tab1.in;
#X obj 553 198 sdIO_ui~ io gIO;
#X obj 553 59 sgDeviceModes_ui sgDevice GLOBAL;
#X obj 553 124 sdUnPack;
#X obj 553 147 send;
#X obj 60 287 sdReadTable_ui~ readTab1 gRead gTab;
#X obj 308 284 sdReadSample_ui~ readSamp1 gRead gTab;
#X obj 55 413 sdTapeHead_ui~ tapeHead1 gRead gTab;
#X obj 307 412 sdPlaySample_ui~ playSamp gRead gTab;
#X obj 61 68 sdTableSampNoArray_obj tab1 gTab 60000;
#X obj 56 546 sdPlayGranular_ui~ playGran gRead gTab;
#X text 554 443 1 set sgDevice to switch mode;
#X text 567 453 for all modes:;
#X text 578 467 analog5: out-vol \; analog4: in-vol \; switch5: rec
\; switch4: sample \;;
#X text 571 521 mode0:;
#X text 582 532 switch0-3: select sample \; analog: pos;
#X text 572 558 mode1:;
#X text 316 625 note:;
#X text 583 569 switch0: playSamp play \; switch1: playGran play \;
analog1: timeFactor;
#X text 350 655 sdFilter should take multiple init args!;
#X connect 0 0 30 0;
#X connect 0 0 30 1;
#X connect 1 0 5 0;
#X connect 4 0 2 0;
#X connect 5 0 3 0;
#X connect 5 0 4 0;
#X connect 7 0 27 0;
#X connect 13 0 8 0;
#X connect 14 0 8 0;
#X connect 23 0 24 0;
#X connect 30 0 6 0;
#X connect 30 1 6 0;
#X connect 31 0 32 0;
#X connect 32 0 33 0;
#X connect 32 2 33 1;
#X connect 38 0 28 0;
#X connect 38 1 29 0;
