#N canvas 0 30 846 854 10;
#X obj 621 12 catch~ out;
#X floatatom 544 669 5 0 0 0 - - -;
#X floatatom 544 766 5 0 0 0 - - -;
#X floatatom 554 720 6 0 0 0 - - -;
#X obj 544 743 sdSizeFromLength;
#X obj 544 699 sdLengthFromSize;
#X obj 645 157 s~ in;
#X obj 60 169 r~ in;
#N canvas 0 30 894 854 glue 0;
#X msg 195 94 2;
#X obj 195 117 until;
#X obj 195 54 t b b;
#X obj 176 33 bng 15 250 50 0 empty empty empty 17 7 0 10 -262144 -1
-1;
#X msg 281 114 1;
#X obj 195 141 sdCounter -1;
#X msg 195 164 \; tab\$1 list set 3 tableLength 1 60000;
#X obj 473 157 s \$0-GLOBAL;
#X msg 473 134 list init 0;
#X obj 195 31 inlet;
#X connect 0 0 1 0;
#X connect 1 0 5 0;
#X connect 2 0 0 0;
#X connect 2 1 4 0;
#X connect 3 0 2 0;
#X connect 4 0 5 0;
#X connect 5 0 6 0;
#X connect 8 0 7 0;
#X connect 9 0 2 0;
#X connect 9 0 8 0;
#X restore 625 263 pd glue;
#N canvas 0 30 846 411 gui 0;
#X obj 144 56 sdObjState_ui \$0-GLOBAL;
#X restore 52 38 pd gui;
#X obj 624 319 table tab1.array;
#X obj 624 346 table tab2.array;
#X obj 58 373 sdReadSample_ui~ readSample1 \$0-GLOBAL tab1;
#X obj 58 286 sdReadTable_ui~ readTable1 \$0-GLOBAL tab1;
#X obj 57 460 sdPlaySample_ui~ playSample1 \$0-GLOBAL tab1;
#X obj 56 694 sdPlayGranular_ui~ granePlayer \$0-GLOBAL tab1;
#X text 17 65 table;
#X obj 625 241 loadbang;
#X obj 60 192 sdRecorder_ui~ rec1 \$0-GLOBAL tab1;
#X obj 56 564 sdTapeHead_ui~ tapeHead1 \$0-GLOBAL tab1;
#X obj 688 243 bng 15 250 50 0 empty empty empty 17 7 0 10 -262144
-1 -1;
#X text 23 17 user interface to control all objects;
#X text 21 674 play with granular time stretching and/or pitch shifting
;
#X text 27 537 loop a grain starting at pos;
#X text 14 150 record to tables;
#X text 18 270 read from a table;
#X text 19 355 read a section of a table (a "sample");
#X text 23 444 play a section of the table;
#X obj 604 39 sdIO_ui~;
#X text 529 557 structuredData:;
#X text 561 580 improve sdFilter!;
#X obj 62 89 sdTableSampNoArray_obj tab1 \$0-GLOBAL 60000;
#X text 356 87 also: sdTableNoArray;
#X obj 62 118 sdTableSampNoArray_obj tab2 \$0-GLOBAL 60000;
#X obj 328 170 r~ in;
#X obj 328 193 sdRecorderSamp_ui~ recSamp \$0-GLOBAL tab1;
#X connect 0 0 28 0;
#X connect 0 0 28 1;
#X connect 1 0 5 0;
#X connect 4 0 2 0;
#X connect 5 0 3 0;
#X connect 5 0 4 0;
#X connect 7 0 18 0;
#X connect 17 0 8 0;
#X connect 20 0 8 0;
#X connect 28 0 6 0;
#X connect 28 1 6 0;
#X connect 34 0 35 0;
