#N canvas 0 30 681 722 10;
#N canvas 0 30 681 722 glue 0;
#X msg 98 482 2;
#X obj 98 505 until;
#X obj 98 442 t b b;
#X obj 98 418 bng 15 250 50 0 empty empty empty 17 7 0 10 -262144 -1
-1;
#X msg 142 483 1;
#X obj 98 529 sdCounter -1;
#X msg 98 552 \; tab\$1 list set 3 tableLength 1 60000;
#X msg 452 148 list init 0;
#X obj 274 40 inlet;
#X obj 452 171 s GLOBAL;
#X obj 210 297 s sgDevice;
#N canvas 0 30 762 722 set 0;
#X obj 37 37 inlet;
#X obj 38 83 s sgDevice;
#X msg 37 60 list set 3 version 1 \$1;
#X connect 0 0 2 0;
#X connect 2 0 1 0;
#X restore 237 155 pd set device ver;
#X obj 210 179 route 1;
#X obj 210 202 t b;
#X obj 249 202 t b;
#X obj 249 250 s sgDevice;
#N canvas 0 30 681 722 modes 0;
#X obj 444 85 t b b;
#X msg 664 230 clear;
#X obj 198 678 outlet;
#X obj 70 18 inlet;
#X obj 198 589 sdData;
#X obj 70 41 t b b;
#X obj 50 535 t b;
#X obj 198 635 sdPack set;
#X obj 198 612 sdPack modes;
#X obj 362 156 t b b;
#N canvas 0 30 885 345 read 0;
#X obj 103 60 inlet;
#X obj 751 117 inlet;
#X text 749 98 volumes;
#X obj 201 500 sdData;
#X obj 103 83 t b b;
#X msg 72 245 bang \, clear;
#X obj 201 523 outlet;
#X obj 232 389 sdPackFromHuman;
#X obj 168 85 t b b;
#X msg 168 113 list read_pos ( #[ ( analog ( * index ( 0 ) value (
?value ) ) ) ( Print ( Pack ( readTab1 Pack ( set_pos Pack ( pos $
( value ) ) ) ) ) Out ( list ) ) #] ) read_pos ( #[ ( analog ( * index
( 1 ) value ( ?value ) ) ) ( Print ( Pack ( readSamp1 Pack ( set_pos
Pack ( pos $ ( value ) ) ) ) ) Out ( list ) ) #] ) read_pos ( #[ (
analog ( * index ( 2 ) value ( ?value ) ) ) ( Print ( Pack ( tapeHead1
Pack ( set_pos Pack ( pos $ ( value ) ) ) ) ) Out ( list ) ) #] );
#X msg 241 248 list sel_sample ( #[ ( trigger ( * index ( ?value )
value ( 127 ) ) ) ( If ( < ( $ ( value ) 4 ) Print ( Pack ( gRead Pack
( set_samp Pack ( sample.index $ ( value ) ) ) ) ) Out ( list ) ) )
#] );
#X connect 0 0 4 0;
#X connect 1 0 3 1;
#X connect 3 0 6 0;
#X connect 4 0 5 0;
#X connect 4 1 8 0;
#X connect 5 0 3 0;
#X connect 7 0 3 0;
#X connect 8 0 9 0;
#X connect 8 1 10 0;
#X connect 9 0 7 0;
#X connect 10 0 7 0;
#X restore 321 317 pd read mode;
#X obj 124 21 bng 15 250 50 0 empty empty empty 17 7 0 10 -262144 -1
-1;
#N canvas 0 30 803 722 rec 0;
#X obj 96 23 inlet;
#X obj 410 56 inlet;
#X text 408 37 volumes;
#X obj 251 304 sdData;
#X obj 96 46 t b b;
#X msg 104 204 bang \, clear;
#X obj 251 327 outlet;
#X obj 192 169 sdPackFromHuman;
#X msg 192 95 list start_rec ( #[ ( switch ( * index ( 0 ) value (
1 ) ) ) ( Print ( Pack ( recSamp Pack ( start ) ) ) Out ( list ) )
#] ) stop_rec ( #[ ( switch ( * index ( 0 ) value ( 0 ) ) ) ( Print
( Pack ( recSamp Pack ( stop ) ) ) Out ( list ) ) #] );
#X connect 0 0 4 0;
#X connect 1 0 3 1;
#X connect 3 0 6 0;
#X connect 4 0 5 0;
#X connect 5 0 3 0;
#X connect 7 0 3 1;
#X connect 8 0 7 0;
#X restore 670 508 pd rec mode;
#X obj 669 531 sdPack rec_mode;
#N canvas 0 30 681 722 common 0;
#X obj 175 375 sdPackFromHuman;
#X obj 189 16 inlet;
#X obj 175 398 outlet;
#X obj 189 63 t b b;
#X obj 189 39 t b b;
#X msg 189 86 list io_out ( #[ ( analog ( * index ( 7 ) value ( ?value
) ) ) ( Print ( Pack ( io Pack ( set_vol Pack ( out-vol $ ( value )
) ) ) ) Out ( list ) ) #] ) io_in ( #[ ( analog ( * index ( 15 ) value
( ?value ) ) ) ( Print ( Pack ( io Pack ( set_vol Pack ( in-vol $ (
value ) ) ) ) ) Out ( list ) ) #] );
#X msg 309 278 list start_sampling ( #[ ( switch ( * index ( 15 ) value
( 127 ) ) ) ( Print ( Pack ( recSamp Pack ( sample.start ) ) ) Out
( list ) ) #] ) stop_sampling ( #[ ( switch ( * index ( 15 ) value
( 0 ) ) ) ( Print ( Pack ( recSamp Pack ( sample.stop ) ) ) Out ( list
) ) #] );
#X msg 230 182 list start_rec ( #[ ( switch ( * index ( 14 ) value
( 127 ) ) ) ( Print ( Pack ( recSamp Pack ( start ) ) ) Out ( list
) Print ( Pack ( io Pack ( dsp_on Pack ( audio-on 1 ) ) ) ) Out ( list
) ) #] ) stop_rec ( #[ ( switch ( * index ( 14 ) value ( 0 ) ) ) (
Print ( Pack ( recSamp Pack ( stop ) ) ) Out ( list ) ) #] );
#X connect 0 0 2 0;
#X connect 1 0 4 0;
#X connect 3 0 5 0;
#X connect 3 1 7 0;
#X connect 4 0 3 0;
#X connect 4 1 6 0;
#X connect 5 0 0 0;
#X connect 6 0 0 0;
#X connect 7 0 0 0;
#X restore 495 195 pd common;
#X obj 321 340 sdPack read_mode;
#N canvas 0 30 885 722 play 0;
#X obj 23 10 inlet;
#X obj 751 117 inlet;
#X text 749 98 volumes;
#X obj 201 500 sdData;
#X obj 23 33 t b b;
#X msg 72 245 bang \, clear;
#X obj 201 523 outlet;
#X obj 232 389 sdPackFromHuman;
#X obj 168 85 t b b;
#X msg 240 248 list play ( #[ ( switch ( * index ( 0 ) value ( 1 )
) ) ( Print ( Pack ( playSamp Pack ( start ) ) ) Out ( list ) ) #]
) stop ( #[ ( switch ( * index ( 0 ) value ( 0 ) ) ) ( Print ( Pack
( playSamp Pack ( stop ) ) ) Out ( list ) ) #] ) play_gran ( #[ ( switch
( * index ( 1 ) value ( 1 ) ) ) ( Print ( Pack ( playGran Pack ( start
) ) ) Out ( list ) ) #] ) stop_gran ( #[ ( switch ( * index ( 1 ) value
( 0 ) ) ) ( Print ( Pack ( playGran Pack ( stop ) ) ) Out ( list )
) #] );
#X msg 160 135 list timeFac ( #[ ( analog ( * index ( 0 ) value ( ?value
) ) ) ( Print ( Pack ( playGran Pack ( set_timeFac Pack ( timeFactor
$ ( value ) ) ) ) ) Out ( list ) ) #] );
#X connect 0 0 4 0;
#X connect 1 0 3 1;
#X connect 3 0 6 0;
#X connect 4 0 5 0;
#X connect 4 1 8 0;
#X connect 5 0 3 0;
#X connect 7 0 3 1;
#X connect 8 0 10 0;
#X connect 8 1 9 0;
#X connect 9 0 7 0;
#X connect 10 0 7 0;
#X restore 159 327 pd play mode;
#X obj 159 350 sdPack play_mode;
#X connect 0 0 9 0;
#X connect 0 1 1 0;
#X connect 0 1 14 0;
#X connect 1 0 4 0;
#X connect 3 0 5 0;
#X connect 4 0 8 0;
#X connect 5 0 6 0;
#X connect 5 1 0 0;
#X connect 6 0 4 0;
#X connect 7 0 2 0;
#X connect 8 0 7 0;
#X connect 9 1 10 0;
#X connect 10 0 15 0;
#X connect 11 0 5 0;
#X connect 12 0 13 0;
#X connect 14 0 10 1;
#X connect 15 0 4 1;
#X connect 16 0 17 0;
#X restore 249 226 pd modes 2;
#N canvas 0 30 762 722 modes 0;
#X obj 106 110 t b b;
#X obj 550 48 t b b;
#X msg 733 369 clear;
#X obj 198 678 outlet;
#X obj 70 18 inlet;
#X obj 198 589 sdData;
#X obj 70 41 t b b;
#X obj 50 535 t b;
#X obj 198 635 sdPack set;
#X obj 198 612 sdPack modes;
#X obj 362 156 t b b;
#N canvas 0 30 844 722 read 0;
#X obj 103 60 inlet;
#X obj 751 117 inlet;
#X text 749 98 volumes;
#X obj 201 500 sdData;
#X obj 103 83 t b b;
#X msg 72 245 bang \, clear;
#X obj 201 523 outlet;
#X obj 232 389 sdPackFromHuman;
#X obj 168 85 t b b;
#X msg 168 113 list read_pos ( #[ ( analog ( * index ( 0 ) value (
?value ) ) ) ( Print ( Pack ( readTab1 Pack ( set_pos Pack ( pos $
( value ) ) ) ) ) Out ( list ) ) #] ) read_pos ( #[ ( analog ( * index
( 1 ) value ( ?value ) ) ) ( Print ( Pack ( readSamp1 Pack ( set_pos
Pack ( pos $ ( value ) ) ) ) ) Out ( list ) ) #] ) read_pos ( #[ (
analog ( * index ( 2 ) value ( ?value ) ) ) ( Print ( Pack ( tapeHead1
Pack ( set_pos Pack ( pos $ ( value ) ) ) ) ) Out ( list ) ) #] );
#X msg 241 248 list sel_sample ( #[ ( switch ( * index ( ?value ) value
( 1 ) ) ) ( If ( < ( $ ( value ) 4 ) Print ( Pack ( gRead Pack ( set_samp
Pack ( sample.index $ ( value ) ) ) ) ) Out ( list ) ) ) #] );
#X connect 0 0 4 0;
#X connect 1 0 3 1;
#X connect 3 0 6 0;
#X connect 4 0 5 0;
#X connect 4 1 8 0;
#X connect 5 0 3 0;
#X connect 7 0 3 1;
#X connect 8 0 9 0;
#X connect 8 1 10 0;
#X connect 9 0 7 0;
#X connect 10 0 7 0;
#X restore 321 317 pd read mode;
#X obj 124 21 bng 15 250 50 0 empty empty empty 17 7 0 10 -262144 -1
-1;
#N canvas 0 30 844 345 rec 0;
#X obj 96 23 inlet;
#X obj 410 56 inlet;
#X text 408 37 volumes;
#X obj 251 304 sdData;
#X obj 96 46 t b b;
#X msg 104 204 bang \, clear;
#X obj 251 327 outlet;
#X obj 192 169 sdPackFromHuman;
#X msg 192 95 list start_rec ( #[ ( switch ( * index ( 0 ) value (
1 ) ) ) ( Print ( Pack ( recSamp Pack ( start ) ) ) Out ( list ) )
#] ) stop_rec ( #[ ( switch ( * index ( 0 ) value ( 0 ) ) ) ( Print
( Pack ( recSamp Pack ( stop ) ) ) Out ( list ) ) #] );
#X connect 0 0 4 0;
#X connect 1 0 3 1;
#X connect 3 0 6 0;
#X connect 4 0 5 0;
#X connect 5 0 3 0;
#X connect 7 0 3 1;
#X connect 8 0 7 0;
#X restore 670 508 pd rec mode;
#X obj 669 531 sdPack rec_mode;
#N canvas 0 30 844 722 common 0;
#X obj 175 375 sdPackFromHuman;
#X obj 189 16 inlet;
#X obj 175 398 outlet;
#X obj 189 63 t b b;
#X msg 189 86 list io_out ( #[ ( analog ( * index ( 5 ) value ( ?value
) ) ) ( Print ( Pack ( io Pack ( set_vol Pack ( out-vol $ ( value )
) ) ) ) Out ( list ) ) #] ) io_in ( #[ ( analog ( * index ( 4 ) value
( ?value ) ) ) ( Print ( Pack ( io Pack ( set_vol Pack ( in-vol $ (
value ) ) ) ) ) Out ( list ) ) #] );
#X obj 189 39 t b b;
#X msg 309 278 list start_sampling ( #[ ( switch ( * index ( 4 ) value
( 1 ) ) ) ( Print ( Pack ( recSamp Pack ( sample.start ) ) ) Out (
list ) ) #] ) stop_sampling ( #[ ( switch ( * index ( 4 ) value ( 0
) ) ) ( Print ( Pack ( recSamp Pack ( sample.stop ) ) ) Out ( list
) ) #] );
#X msg 230 182 list start_rec ( #[ ( switch ( * index ( 5 ) value (
1 ) ) ) ( Print ( Pack ( recSamp Pack ( start ) ) ) Out ( list ) Print
( Pack ( io Pack ( dsp_on Pack ( audio-on 1 ) ) ) ) Out ( list ) )
#] ) stop_rec ( #[ ( switch ( * index ( 5 ) value ( 0 ) ) ) ( Print
( Pack ( recSamp Pack ( stop ) ) ) Out ( list ) ) #] );
#X connect 0 0 2 0;
#X connect 1 0 5 0;
#X connect 3 0 4 0;
#X connect 3 1 7 0;
#X connect 4 0 0 0;
#X connect 5 0 3 0;
#X connect 5 1 6 0;
#X connect 6 0 0 0;
#X connect 7 0 0 0;
#X restore 495 195 pd common;
#X obj 321 340 sdPack read_mode;
#N canvas 0 30 844 722 play 0;
#X obj 23 10 inlet;
#X obj 751 117 inlet;
#X text 749 98 volumes;
#X obj 201 500 sdData;
#X obj 23 33 t b b;
#X msg 72 245 bang \, clear;
#X obj 201 523 outlet;
#X obj 232 389 sdPackFromHuman;
#X obj 168 85 t b b;
#X msg 240 248 list play ( #[ ( switch ( * index ( 0 ) value ( 1 )
) ) ( Print ( Pack ( playSamp Pack ( start ) ) ) Out ( list ) ) #]
) stop ( #[ ( switch ( * index ( 0 ) value ( 0 ) ) ) ( Print ( Pack
( playSamp Pack ( stop ) ) ) Out ( list ) ) #] ) play_gran ( #[ ( switch
( * index ( 1 ) value ( 1 ) ) ) ( Print ( Pack ( playGran Pack ( start
) ) ) Out ( list ) ) #] ) stop_gran ( #[ ( switch ( * index ( 1 ) value
( 0 ) ) ) ( Print ( Pack ( playGran Pack ( stop ) ) ) Out ( list )
) #] );
#X msg 160 135 list timeFac ( #[ ( analog ( * index ( 0 ) value ( ?value
) ) ) ( Print ( Pack ( playGran Pack ( set_timeFac Pack ( timeFactor
$ ( value ) ) ) ) ) Out ( list ) ) #] );
#X connect 0 0 4 0;
#X connect 1 0 3 1;
#X connect 3 0 6 0;
#X connect 4 0 5 0;
#X connect 4 1 8 0;
#X connect 5 0 3 0;
#X connect 7 0 3 1;
#X connect 8 0 10 0;
#X connect 8 1 9 0;
#X connect 9 0 7 0;
#X connect 10 0 7 0;
#X restore 159 327 pd play mode;
#X obj 159 350 sdPack play_mode;
#X connect 0 1 10 0;
#X connect 1 0 0 0;
#X connect 1 1 2 0;
#X connect 1 1 15 0;
#X connect 2 0 5 0;
#X connect 4 0 6 0;
#X connect 5 0 9 0;
#X connect 6 0 7 0;
#X connect 6 1 1 0;
#X connect 7 0 5 0;
#X connect 8 0 3 0;
#X connect 9 0 8 0;
#X connect 10 0 17 0;
#X connect 10 1 11 0;
#X connect 11 0 16 0;
#X connect 12 0 6 0;
#X connect 13 0 14 0;
#X connect 15 0 11 1;
#X connect 15 0 17 1;
#X connect 16 0 5 1;
#X connect 17 0 18 0;
#X connect 18 0 5 1;
#X restore 210 273 pd modes 1;
#X obj 274 66 t f b;
#X obj 210 131 t f f;
#X obj 181 96 t b f;
#X obj 174 384 s gTab;
#X msg 143 327 list set ( savedir ( ../samples ) );
#X obj 143 350 sdPackFromHuman;
#X msg 66 236 list init 0;
#X obj 66 259 s GUI-INIT;
#X connect 0 0 1 0;
#X connect 1 0 5 0;
#X connect 2 0 0 0;
#X connect 2 1 4 0;
#X connect 3 0 2 0;
#X connect 4 0 5 0;
#X connect 5 0 6 0;
#X connect 7 0 9 0;
#X connect 8 0 18 0;
#X connect 12 0 13 0;
#X connect 12 1 14 0;
#X connect 13 0 17 0;
#X connect 14 0 16 0;
#X connect 16 0 15 0;
#X connect 17 0 10 0;
#X connect 18 0 20 0;
#X connect 18 1 7 0;
#X connect 19 0 12 0;
#X connect 19 1 11 0;
#X connect 20 0 22 0;
#X connect 20 1 19 0;
#X connect 23 0 21 0;
#X connect 24 0 25 0;
#X restore 594 58 pd glue;
#X text 2 3 user interface to control all objects;
#X obj 594 13 r dev_version;
#X floatatom 594 36 5 1 2 0 - - -;
#X obj 473 449 sgDeviceToInterface;
#X obj 473 502 s GUI;
#X obj 580 427 r \$0-fromGUI;
#N canvas 0 30 681 722 arrays 0;
#X obj 14 14 table tab1.array;
#X obj 14 41 table tab2.array;
#X obj 14 67 table tab1noSamp.array;
#X restore 516 12 pd arrays;
#X obj 13 676 s \$0-fromGUI;
#N canvas 0 30 681 722 (subpatch) 0;
#X obj 67 163 print;
#X obj 67 139 sdGate;
#X obj 121 103 tgl 15 0 empty empty empty 17 7 0 10 -262144 -1 -1 0
1;
#X obj 40 114 t a a;
#X text 136 101 print msgs;
#X obj 35 38 inlet;
#X obj 40 187 outlet;
#X connect 1 0 0 0;
#X connect 2 0 1 1;
#X connect 3 0 6 0;
#X connect 3 1 1 0;
#X connect 5 0 3 0;
#X coords 0 -1 1 1 100 22 1 100 100;
#X restore 473 421 pd;
#X text 339 340 sgDevice2:;
#N canvas 0 30 681 722 rec/read 0;
#X text 44 26 record to tables;
#X text 57 155 read from a table;
#X obj 90 68 sdRecorder_ui~ rec1 gRec gTab;
#X obj 85 215 throw~ \$0-sampling.out;
#X obj 90 45 r~ \$0-sampling.in;
#X obj 85 178 sdReadTabTimeBasedWithPos_obj~ readTab1 GLOBAL gRead
tab1, f 30;
#X connect 4 0 2 0;
#X connect 5 0 3 0;
#X restore 340 101 pd rec/read raw tables;
#N canvas 0 30 721 722 rec/read 0;
#X text 20 130 read a section of a table (a "sample");
#X obj 49 152 sdReadSampleWithPos_obj~ readSamp1 GLOBAL gRead tab1
, f 30;
#X text 23 209 play a section of the table;
#X obj 44 233 sdPlaySample_obj~ playSamp GLOBAL gRead tab1, f 30;
#X obj 49 44 sdRecorderSamp_ui~ recSamp gRec gTab;
#X obj 49 189 throw~ \$0-sampling.out;
#X obj 44 270 throw~ \$0-sampling.out;
#X obj 49 22 r~ \$0-sampling.in;
#X connect 1 0 5 0;
#X connect 3 0 6 0;
#X connect 7 0 4 0;
#X restore 340 128 pd rec/read samples;
#N canvas 0 30 721 736 read/play 0;
#X text 45 39 loop a "grain" starting at pos;
#X obj 59 388 sdPlayGranular_obj~ playGran GLOBAL gRead tab1;
#X text 35 363 play with granular time stretching and/or pitch shifting
;
#X text 46 136 loop 2 grains with overlap;
#X obj 59 64 sdReadGranular_obj~ readGranular GLOBAL gRead tab1;
#X obj 59 156 sdReadGranular2_obj~ readGranular2 GLOBAL gRead tab1
, f 32;
#X text 47 256 loop 4 grains with overlap;
#X obj 60 280 sdReadGranular4_obj~ readGranular4 GLOBAL gRead tab1
, f 32;
#X obj 57 473 sdSamplerGranular~ Sampler GLOBAL gSynth tab1;
#X obj 59 101 throw~ \$0-sampling.out;
#X obj 59 211 throw~ \$0-sampling.out;
#X obj 60 331 throw~ \$0-sampling.out;
#X obj 59 412 throw~ \$0-sampling.out;
#X obj 50 496 throw~ \$0-sampling.out;
#X connect 1 0 12 0;
#X connect 4 0 9 0;
#X connect 5 0 10 0;
#X connect 7 0 11 0;
#X connect 8 0 13 0;
#X restore 340 154 pd read/play samples "granular";
#X text 326 14 tables;
#N canvas 0 30 721 722 utilities 0;
#X floatatom 40 35 5 0 0 0 - - -;
#X floatatom 40 132 5 0 0 0 - - -;
#X floatatom 50 86 6 0 0 0 - - -;
#X obj 40 109 sdSizeFromLength;
#X obj 40 65 sdLengthFromSize;
#X connect 0 0 4 0;
#X connect 3 0 1 0;
#X connect 4 0 2 0;
#X connect 4 0 3 0;
#X restore 340 231 pd utilities;
#N canvas 0 30 721 722 Synth 0;
#X obj 157 333 sdPackFromHuman;
#X obj 157 375 sdSynthVoice_obj~ SynthVoice GLOBAL gSynth;
#X floatatom 63 34 5 0 0 0 - - -;
#X obj 22 17 bng 30 250 50 0 empty empty empty 17 7 0 10 -262144 -1
-1;
#X obj 32 54 f 57;
#X text 473 191 (empty env enables "always on" mode);
#X msg 68 194 list start ( );
#X msg 71 225 list stop ( );
#X obj 399 611 sdPackFromHuman;
#X msg 436 484 list start ( pitch ( 57 ) );
#X msg 456 538 list start ( pitch ( 58 ) );
#X msg 445 506 list stop ( pitch ( 57 ) );
#X msg 463 561 list stop ( pitch ( 58 ) );
#X msg 490 591 list stop ( );
#X text 271 118 set envelopes;
#X msg 311 190 list set ( envelopes ( ) );
#N canvas 0 30 721 722 start 0;
#X obj 234 121 inlet;
#X obj 205 441 outlet;
#X msg 249 300 list set ( duration ( 1000 ) );
#X msg 232 162 list set ( envelopes ( start ( z ( pitch ( 0 ) ) attack
( delay ( 0.1 ) volume ( 1 ) ) decay ( time ( 0.2 ) volume ( 0.5 )
) sustain ( time ( 0.5 ) pitch ( 1 ) ) sustain2 ( time ( 0.9 ) pitch
( 0 ) ) ) play ( z ( pitch ( 0 ) ) attack ( delay ( 0.1 ) volume (
1 ) ) decay ( time ( 0.2 ) volume ( 0.5 ) ) sustain ( time ( 0.5 )
pitch ( 1 ) ) sustain2 ( time ( 0.9 ) pitch ( 0 ) ) release ( time
( 1 ) volume ( 0 ) ) ) stop ( release ( delay ( 0.01 ) volume ( 0 )
) ) ) );
#X connect 0 0 3 0;
#X connect 0 0 2 0;
#X connect 2 0 1 0;
#X connect 3 0 1 0;
#X restore 275 163 pd start \, stop \, play env;
#X obj 271 142 bng 15 250 50 0 empty empty empty 17 7 0 10 -262144
-1 -1;
#X floatatom 64 118 5 0 0 0 - - -;
#X obj 18 102 bng 30 250 50 0 empty empty empty 17 7 0 10 -262144 -1
-1;
#X obj 33 138 f 57;
#X floatatom 246 39 5 0 0 0 - - -;
#X msg 246 63 list set ( pitch ( \$1 ) );
#X msg 429 449 list play ( pitch ( 57 ) );
#X text 298 410 NOTE: if a "play" msg. stops automatically \, this
isn't yet handled by the voice manager \, resulting in unnecessary
"stop" messages;
#X text 578 591 stop all voices;
#X obj 292 140 loadbang;
#X obj 399 636 sdSynth_obj~ Synth GLOBAL gSynth;
#X obj 158 402 throw~ \$0-sampling.out;
#X obj 399 660 throw~ \$0-sampling.out;
#X obj 276 217 s \$0-synth-init;
#X obj 182 301 r \$0-synth-init;
#X obj 297 580 r \$0-synth-init;
#X msg 32 77 list play ( pitch ( \$1 ) );
#X msg 33 163 list start ( pitch ( \$1 ) );
#X connect 0 0 1 0;
#X connect 1 0 28 0;
#X connect 2 0 4 1;
#X connect 3 0 4 0;
#X connect 4 0 33 0;
#X connect 6 0 0 0;
#X connect 7 0 0 0;
#X connect 8 0 27 0;
#X connect 9 0 8 0;
#X connect 10 0 8 0;
#X connect 11 0 8 0;
#X connect 12 0 8 0;
#X connect 13 0 8 0;
#X connect 15 0 30 0;
#X connect 16 0 30 0;
#X connect 17 0 16 0;
#X connect 18 0 20 1;
#X connect 19 0 20 0;
#X connect 20 0 34 0;
#X connect 21 0 22 0;
#X connect 22 0 0 0;
#X connect 23 0 8 0;
#X connect 26 0 16 0;
#X connect 27 0 29 0;
#X connect 31 0 0 0;
#X connect 32 0 8 0;
#X connect 33 0 0 0;
#X connect 34 0 0 0;
#X restore 340 180 pd Synth;
#X obj 509 594 sdObjTrack dest;
#X obj 509 617 sdUnPack;
#X obj 387 627 sdPack;
#X obj 388 652 sdUnPack;
#X obj 388 675 send;
#X obj 340 63 sdTableNoArray_obj tab1noSamp gTab 60000;
#X obj 340 37 sdTableSampNoArray_obj tab1 gTab 60000;
#X obj 341 360 sgDevice_obj sgDevice GLOBAL 2;
#X obj 390 570 sdPiano_obj piano GLOBAL 2 1 start stop, f 18;
#N canvas 0 30 762 722 (subpatch) 0;
#X obj 67 163 print;
#X obj 67 139 sdGate;
#X obj 121 103 tgl 15 0 empty empty empty 17 7 0 10 -262144 -1 -1 0
1;
#X obj 40 114 t a a;
#X text 136 101 print msgs;
#X obj 35 38 inlet;
#X obj 40 187 outlet;
#X connect 1 0 0 0;
#X connect 2 0 1 1;
#X connect 3 0 6 0;
#X connect 3 1 1 0;
#X connect 5 0 3 0;
#X coords 0 -1 1 1 100 22 1 100 100;
#X restore 341 450 pd;
#X obj 341 477 sgDeviceToInterface;
#N canvas 0 30 762 722 (subpatch) 0;
#X obj 67 163 print;
#X obj 67 139 sdGate;
#X obj 121 103 tgl 15 0 empty empty empty 17 7 0 10 -262144 -1 -1 0
1;
#X obj 40 114 t a a;
#X text 136 101 print msgs;
#X obj 35 38 inlet;
#X obj 40 187 outlet;
#X connect 1 0 0 0;
#X connect 2 0 1 1;
#X connect 3 0 6 0;
#X connect 3 1 1 0;
#X connect 5 0 3 0;
#X coords 0 -1 1 1 100 22 1 100 100;
#X restore 341 501 pd;
#X obj 341 529 sdObjGroupsInterface_obj DevToAudio GLOBAL AudioRouting
, f 42;
#N canvas 0 30 681 736 filter 0;
#X obj 43 30 inlet;
#X obj 53 386 outlet;
#X obj 338 389 outlet;
#N canvas 0 30 681 722 filter_analog 0;
#X obj 55 70 sdPackFilter analog, f 50;
#X obj 65 150 outlet;
#X obj 57 30 inlet;
#X obj 363 153 outlet;
#X obj 116 103 sdEvent_filterByIndex 8 8 0;
#X connect 0 0 4 0;
#X connect 0 1 3 0;
#X connect 2 0 0 0;
#X connect 4 0 1 0;
#X connect 4 1 3 0;
#X restore 42 60 pd filter_analog;
#N canvas 0 30 681 722 filter_switch 0;
#X obj 65 150 outlet;
#X obj 57 30 inlet;
#X obj 363 153 outlet;
#X obj 55 70 sdPackFilter switch, f 50;
#X obj 55 94 sdEvent_filterByIndex 8 8;
#X connect 1 0 3 0;
#X connect 3 0 4 0;
#X connect 3 1 2 0;
#X connect 4 0 0 0;
#X connect 4 1 2 0;
#X restore 135 84 pd filter_switch;
#X connect 0 0 3 0;
#X connect 3 0 1 0;
#X connect 3 1 4 0;
#X connect 4 0 1 0;
#X connect 4 1 2 0;
#X restore 341 385 pd filter reserved ctrls;
#N canvas 0 30 681 722 (subpatch) 0;
#X obj 67 163 print;
#X obj 67 139 sdGate;
#X obj 121 103 tgl 15 0 empty empty empty 17 7 0 10 -262144 -1 -1 0
1;
#X obj 40 114 t a a;
#X text 136 101 print msgs;
#X obj 35 38 inlet;
#X obj 40 187 outlet;
#X connect 1 0 0 0;
#X connect 2 0 1 1;
#X connect 3 0 6 0;
#X connect 3 1 1 0;
#X connect 5 0 3 0;
#X coords 0 -1 1 1 100 22 1 100 100;
#X restore 473 473 pd;
#X text 342 404 analog 8..15 \; trigger 8..15 \;;
#X text 485 404 other ctrls \;;
#N canvas 0 30 681 722 effects 0;
#X obj 91 188 r~ \$0-effects.in;
#X obj 255 249 env~;
#X obj 255 275 sdNum_ui 0 100;
#X text 19 153 adjust volume levels into the direction of a "limit"
;
#X obj 92 226 sdCompressor_obj~ Compressor GLOBAL gEffects;
#X obj 93 403 throw~ \$0-effects.out;
#X obj 256 398 env~;
#X obj 256 424 sdNum_ui 0 100;
#X obj 107 41 env~;
#X obj 107 67 sdNum_ui 0 100;
#X obj 93 375 sdEcho_obj~ Echo GLOBAL gEffects 60000 1000 0.5;
#N canvas 0 30 721 722 Test-tone 0;
#X obj 157 333 sdPackFromHuman;
#N canvas 0 30 721 722 start 0;
#X obj 234 121 inlet;
#X obj 205 441 outlet;
#X msg 112 281 list set ( duration ( 1000 ) volume ( 0.5 ) );
#X msg 234 162 list set ( envelopes ( play ( z ( pitch ( 0 ) ) attack
( delay ( 0.1 ) volume ( 1 ) ) decay ( time ( 0.3 ) volume ( 0.01 )
) release ( time ( 1 ) volume ( 0 ) ) ) stop ( release ( delay ( 50
) volume ( 0 ) ) ) ) );
#X connect 0 0 3 0;
#X connect 0 0 2 0;
#X connect 2 0 1 0;
#X connect 3 0 1 0;
#X restore 231 244 pd start \, stop \, play env;
#X obj 227 224 bng 15 250 50 0 empty empty empty 17 7 0 10 -262144
-1 -1;
#X floatatom 525 238 5 0 0 0 - - -;
#X msg 525 262 list set ( pitch ( \$1 ) );
#X obj 248 222 loadbang;
#X obj 157 379 outlet~;
#X obj 410 18 inlet;
#X msg 412 257 list play ( );
#X floatatom 451 312 5 0 0 0 - - -;
#X msg 451 337 list set ( duration ( \$1 ) );
#X obj 157 356 sdSynthVoice_obj~ TestTone GLOBAL gEffects;
#X obj 410 225 metro 3000;
#X connect 0 0 11 0;
#X connect 1 0 0 0;
#X connect 2 0 1 0;
#X connect 3 0 4 0;
#X connect 4 0 0 0;
#X connect 5 0 1 0;
#X connect 7 0 12 0;
#X connect 8 0 0 0;
#X connect 9 0 10 0;
#X connect 10 0 0 0;
#X connect 11 0 6 0;
#X connect 12 0 8 0;
#X restore 385 52 pd Test-tone;
#X obj 107 17 r~ \$0-effects.in;
#X obj 214 18 r~ \$0-test-tone;
#X obj 385 31 tgl 15 0 empty empty empty 17 7 0 10 -262144 -1 -1 1
1;
#X obj 201 187 r~ \$0-test-tone;
#X obj 384 76 s~ \$0-test-tone;
#X obj 385 7 loadbang;
#X connect 0 0 4 0;
#X connect 1 0 2 0;
#X connect 4 0 1 0;
#X connect 4 0 10 0;
#X connect 6 0 7 0;
#X connect 8 0 9 0;
#X connect 10 0 5 0;
#X connect 10 0 6 0;
#X connect 11 0 16 0;
#X connect 12 0 8 0;
#X connect 13 0 8 0;
#X connect 14 0 11 0;
#X connect 15 0 4 0;
#X connect 17 0 14 0;
#X restore 340 206 pd effects;
#N canvas 0 30 681 722 groups: 0;
#X obj 117 48 inlet;
#X msg 112 126 list gIO gRec gRead gSynth gEffects gTab;
#X obj 112 149 sdPack groups;
#X obj 112 172 sdPack set;
#X obj 112 195 outlet;
#X obj 117 71 sdPackFilter init;
#X obj 117 94 t b;
#X connect 0 0 5 0;
#X connect 1 0 2 0;
#X connect 2 0 3 0;
#X connect 3 0 4 0;
#X connect 5 0 6 0;
#X connect 6 0 1 0;
#X restore 13 47 pd groups: gIO gRec gRead gSynth gEffects gTab;
#X obj 509 571 r \$0-fromGUI;
#X obj 13 23 r GLOBAL;
#X obj 13 71 sdObjState_ui GUI;
#N canvas 0 30 681 722 audio 0;
#X obj 152 679 dac~;
#X obj 32 340 *~;
#X obj 139 647 *~;
#X obj 177 646 *~;
#X obj 252 605 sdNum2Sig~;
#X obj 63 339 sdNum2Sig~;
#X obj 219 340 *~;
#X obj 252 337 sdNum2Sig~;
#X obj 32 469 throw~ \$0-room-in;
#X obj 77 568 catch~ \$0-room-in;
#X obj 236 444 *~;
#X obj 267 443 sdNum2Sig~;
#X obj 236 468 throw~ \$0-room-in;
#X obj 220 392 catch~ \$0-sampling.out;
#X obj 219 364 send~ \$0-sampling.in;
#X obj 485 321 sdObjState AudioRouting GLOBAL gIO;
#X obj 60 274 sdNum2Sig~;
#X floatatom 345 339 5 0 0 0 - - -;
#X obj 585 272 r \$0-fromProps;
#X obj 585 295 list;
#X obj 459 279 inlet;
#X obj 60 251 r \$0->>in[1];
#X obj 252 581 r \$0-out>>;
#X floatatom 332 600 5 0 0 0 - - -;
#X floatatom 140 274 5 0 0 0 - - -;
#X obj 565 425 r \$0-audio-enable;
#X msg 565 448 \; pd dsp \$1;
#X obj 252 314 r \$0-in[1]>>sampling;
#X obj 63 316 r \$0-in[1]>>room;
#X obj 267 420 r \$0-sampling>>room;
#X floatatom 358 444 5 0 0 0 - - -;
#X obj 78 593 sdFreeverb_obj~ Reverb GLOBAL gIO, f 15;
#X floatatom 146 343 5 0 0 0 - - -;
#X obj 419 348 sdPackFilter init;
#X obj 419 371 sdEventToProperties;
#X obj 488 509 *~;
#X obj 519 508 sdNum2Sig~;
#X floatatom 602 512 5 0 0 0 - - -;
#X obj 519 485 r \$0-in[1]>>effects;
#X obj 254 525 catch~ \$0-effects.out;
#X obj 253 548 throw~ \$0-room-in;
#X obj 489 534 send~ \$0-effects.in;
#X obj 13 23 adc~ 1 2 3 4, f 49;
#X obj 9 152 *~;
#X obj 22 119 sdNum2Sig~;
#X floatatom 91 115 5 0 0 0 - - -;
#X obj 31 274 *~;
#X obj 30 297 +~;
#X obj 22 95 r \$0-in[1]-enable;
#X obj 57 155 *~;
#X obj 134 117 sdNum2Sig~;
#X floatatom 205 114 5 0 0 0 - - -;
#N canvas 0 30 721 736 properties 0;
#X obj 127 86 sdProperty >>in[1] \$0 0 intern 0 1;
#X obj 156 115 sdProperty out>> \$0 0 intern 0 1;
#X obj 281 232 sdProperty audio-enable \$0 0 intern 0 1 1;
#X obj 175 146 sdProperty in[1]>>room \$0 0 intern 0 1;
#X obj 197 177 sdProperty in[1]>>sampling \$0 1 intern 0 1;
#X obj 235 208 sdProperty sampling>>room \$0 1 intern 0 1;
#X obj 290 262 sdProperty in[1]>>effects \$0 0 intern 0 1;
#X obj 310 331 sdProperty in[1]-enable \$0 1 intern 0 1 1;
#X obj 316 359 sdProperty in[2]-enable \$0 1 intern 0 1 1;
#X obj 43 27 inlet;
#X obj 48 488 outlet;
#X obj 265 409 t a;
#X obj 339 385 sdProperty in[3]-enable \$0 0 intern 0 1 1;
#X obj 352 411 sdProperty in[4]-enable \$0 0 intern 0 1 1;
#X connect 0 0 10 0;
#X connect 0 1 1 0;
#X connect 1 0 10 0;
#X connect 1 1 3 0;
#X connect 2 0 10 0;
#X connect 2 1 6 0;
#X connect 3 0 10 0;
#X connect 3 1 4 0;
#X connect 4 0 10 0;
#X connect 4 1 5 0;
#X connect 5 0 10 0;
#X connect 5 1 2 0;
#X connect 6 0 11 0;
#X connect 6 1 7 0;
#X connect 7 0 11 0;
#X connect 7 1 8 0;
#X connect 8 0 11 0;
#X connect 8 1 12 0;
#X connect 9 0 0 0;
#X connect 11 0 10 0;
#X connect 12 0 11 0;
#X connect 12 1 13 0;
#X connect 13 0 11 0;
#X restore 590 372 pd properties;
#X obj 134 93 r \$0-in[2]-enable;
#X obj 246 119 *~;
#X obj 260 79 sdNum2Sig~;
#X floatatom 329 75 5 0 0 0 - - -;
#X obj 294 122 *~;
#X obj 372 77 sdNum2Sig~;
#X floatatom 443 74 5 0 0 0 - - -;
#X obj 260 54 r \$0-in[3]-enable;
#X obj 372 53 r \$0-in[4]-enable;
#X obj 590 395 s \$0-fromProps;
#X obj 501 142 tgl 15 0 empty empty empty 17 7 0 10 -262144 -1 -1 1
1;
#X obj 521 142 tgl 15 0 empty empty empty 17 7 0 10 -262144 -1 -1 1
1;
#X obj 541 142 tgl 15 0 empty empty empty 17 7 0 10 -262144 -1 -1 0
1;
#X obj 561 142 tgl 15 0 empty empty empty 17 7 0 10 -262144 -1 -1 0
1;
#X obj 644 459 tgl 15 0 empty empty empty 17 7 0 10 -262144 -1 -1 1
1;
#X msg 394 188 priv.set \$1;
#X obj 394 211 s \$0-in[1]-enable_rcv;
#X msg 473 164 priv.set \$1;
#X obj 473 187 s \$0-in[2]-enable_rcv;
#X msg 532 210 priv.set \$1;
#X msg 611 186 priv.set \$1;
#X obj 482 5 r \$0-in[1]-enable;
#X msg 482 28 set \$1;
#X msg 528 51 set \$1;
#X obj 528 28 r \$0-in[2]-enable;
#X msg 583 74 set \$1;
#X msg 629 97 set \$1;
#X obj 583 51 r \$0-in[3]-enable;
#X obj 629 74 r \$0-in[4]-enable;
#X obj 274 180 env~;
#X obj 274 203 sdNum_ui 0 120;
#X obj 532 233 s \$0-in[3]-enable_rcv;
#X obj 611 209 s \$0-in[4]-enable_rcv;
#X obj 685 100 r \$0-audio-enable;
#X msg 685 123 set \$1;
#X obj 569 116 tgl 15 0 empty empty empty 17 7 0 10 -262144 -1 -1 1
1;
#X msg 690 151 priv.set \$1;
#X obj 690 175 s \$0-audio-enable_rcv;
#X text 502 126 in chnnls:;
#X text 542 115 dsp:;
#X connect 1 0 8 0;
#X connect 2 0 0 0;
#X connect 3 0 0 1;
#X connect 4 0 3 1;
#X connect 4 0 2 1;
#X connect 5 0 1 1;
#X connect 6 0 14 0;
#X connect 7 0 6 1;
#X connect 9 0 31 0;
#X connect 9 0 31 1;
#X connect 10 0 12 0;
#X connect 11 0 10 1;
#X connect 13 0 10 0;
#X connect 15 0 33 0;
#X connect 15 1 52 0;
#X connect 16 0 46 1;
#X connect 18 0 19 0;
#X connect 19 0 15 1;
#X connect 20 0 15 0;
#X connect 21 0 16 0;
#X connect 21 0 24 0;
#X connect 22 0 4 0;
#X connect 22 0 23 0;
#X connect 25 0 26 0;
#X connect 25 0 67 0;
#X connect 27 0 7 0;
#X connect 27 0 17 0;
#X connect 28 0 5 0;
#X connect 28 0 32 0;
#X connect 29 0 11 0;
#X connect 29 0 30 0;
#X connect 31 0 2 0;
#X connect 31 1 3 0;
#X connect 33 0 34 0;
#X connect 34 0 52 0;
#X connect 34 1 52 0;
#X connect 35 0 41 0;
#X connect 36 0 35 1;
#X connect 38 0 36 0;
#X connect 38 0 37 0;
#X connect 39 0 40 0;
#X connect 42 0 43 0;
#X connect 42 1 49 0;
#X connect 42 2 54 0;
#X connect 42 3 57 0;
#X connect 43 0 46 0;
#X connect 44 0 43 1;
#X connect 46 0 47 0;
#X connect 46 0 82 0;
#X connect 47 0 1 0;
#X connect 47 0 6 0;
#X connect 47 0 35 0;
#X connect 48 0 44 0;
#X connect 48 0 45 0;
#X connect 49 0 46 0;
#X connect 50 0 49 1;
#X connect 52 0 62 0;
#X connect 53 0 50 0;
#X connect 53 0 51 0;
#X connect 54 0 46 0;
#X connect 55 0 54 1;
#X connect 57 0 46 0;
#X connect 58 0 57 1;
#X connect 60 0 55 0;
#X connect 60 0 56 0;
#X connect 61 0 58 0;
#X connect 61 0 59 0;
#X connect 63 0 68 0;
#X connect 64 0 70 0;
#X connect 65 0 72 0;
#X connect 66 0 73 0;
#X connect 68 0 69 0;
#X connect 70 0 71 0;
#X connect 72 0 84 0;
#X connect 73 0 85 0;
#X connect 74 0 75 0;
#X connect 75 0 63 0;
#X connect 76 0 64 0;
#X connect 77 0 76 0;
#X connect 78 0 65 0;
#X connect 79 0 66 0;
#X connect 80 0 78 0;
#X connect 81 0 79 0;
#X connect 82 0 83 0;
#X connect 86 0 87 0;
#X connect 87 0 88 0;
#X connect 88 0 89 0;
#X connect 89 0 90 0;
#X coords 0 -1 1 1 85 60 1 500 100;
#X restore 340 254 pd audio routing;
#X obj 541 88 r working-dir;
#X symbolatom 541 111 20 0 0 0 - - -;
#X obj 438 189 r working-dir;
#N canvas 0 30 681 722 save/load 0;
#X obj 107 12 inlet;
#X obj 111 89 sdTableSave_obj SaveTables GLOBAL gIO gTab, f 26;
#X msg 111 66 list set 3 save-dir 1 \$1/save/tables;
#X text 144 38 save state+table into a directory:;
#X connect 0 0 2 0;
#X connect 2 0 1 0;
#X restore 438 213 pd save/load tables;
#X connect 2 0 3 0;
#X connect 3 0 0 0;
#X connect 4 0 31 0;
#X connect 6 0 4 1;
#X connect 9 0 4 0;
#X connect 17 0 18 0;
#X connect 18 0 19 1;
#X connect 19 0 20 0;
#X connect 20 0 21 0;
#X connect 20 2 21 1;
#X connect 24 0 30 0;
#X connect 25 0 19 0;
#X connect 26 0 27 0;
#X connect 27 0 28 0;
#X connect 28 0 29 0;
#X connect 30 0 26 0;
#X connect 30 1 9 0;
#X connect 31 0 5 0;
#X connect 35 0 38 0;
#X connect 36 0 17 0;
#X connect 37 0 35 0;
#X connect 38 0 8 0;
#X connect 40 0 41 0;
#X connect 42 0 43 0;
