#N canvas 0 30 885 736 10;
#X obj 481 503 catch~ out;
#X obj 482 651 s~ in;
#N canvas 0 30 681 736 glue 0;
#X msg 98 482 2;
#X obj 98 505 until;
#X obj 98 442 t b b;
#X obj 98 418 bng 15 250 50 0 empty empty empty 17 7 0 10 -262144 -1
-1;
#X msg 142 483 1;
#X obj 98 529 sdCounter -1;
#X msg 98 552 \; tab\$1 list set 3 tableLength 1 60000;
#X msg 452 148 list init 0;
#X obj 274 40 inlet;
#X obj 452 171 s GLOBAL;
#X obj 210 297 s sgDevice;
#N canvas 0 30 762 722 set 0;
#X obj 37 37 inlet;
#X obj 38 83 s sgDevice;
#X msg 37 60 list set 3 version 1 \$1;
#X connect 0 0 2 0;
#X connect 2 0 1 0;
#X restore 237 155 pd set device ver;
#X obj 210 179 route 1;
#X obj 210 202 t b;
#X obj 249 202 t b;
#X obj 249 250 s sgDevice;
#N canvas 0 407 885 345 modes 0;
#X obj 444 85 t b b;
#X msg 664 230 clear;
#X obj 198 678 outlet;
#X obj 70 18 inlet;
#X obj 198 589 sdData;
#X obj 70 41 t b b;
#X obj 50 535 t b;
#X obj 198 635 sdPack set;
#X obj 198 612 sdPack modes;
#X obj 362 156 t b b;
#N canvas 0 30 885 345 read 0;
#X obj 103 60 inlet;
#X obj 751 117 inlet;
#X text 749 98 volumes;
#X obj 201 500 sdData;
#X obj 103 83 t b b;
#X msg 72 245 bang \, clear;
#X obj 201 523 outlet;
#X obj 232 389 sdPackFromHuman;
#X obj 168 85 t b b;
#X msg 168 113 list read_pos ( #[ ( analog ( * index ( 0 ) value (
?value ) ) ) ( Print ( Pack ( readTab1 Pack ( set_pos Pack ( pos $
( value ) ) ) ) ) Out ( list ) ) #] ) read_pos ( #[ ( analog ( * index
( 1 ) value ( ?value ) ) ) ( Print ( Pack ( readSamp1 Pack ( set_pos
Pack ( pos $ ( value ) ) ) ) ) Out ( list ) ) #] ) read_pos ( #[ (
analog ( * index ( 2 ) value ( ?value ) ) ) ( Print ( Pack ( tapeHead1
Pack ( set_pos Pack ( pos $ ( value ) ) ) ) ) Out ( list ) ) #] );
#X msg 241 248 list sel_sample ( #[ ( trigger ( * index ( ?value )
value ( 127 ) ) ) ( If ( < ( $ ( value ) 4 ) Print ( Pack ( gRead Pack
( set_samp Pack ( sample.index $ ( value ) ) ) ) ) Out ( list ) ) )
#] );
#X connect 0 0 4 0;
#X connect 1 0 3 1;
#X connect 3 0 6 0;
#X connect 4 0 5 0;
#X connect 4 1 8 0;
#X connect 5 0 3 0;
#X connect 7 0 3 0;
#X connect 8 0 9 0;
#X connect 8 1 10 0;
#X connect 9 0 7 0;
#X connect 10 0 7 0;
#X restore 321 317 pd read mode;
#X obj 124 21 bng 15 250 50 0 empty empty empty 17 7 0 10 -262144 -1
-1;
#N canvas 0 30 803 722 rec 0;
#X obj 96 23 inlet;
#X obj 410 56 inlet;
#X text 408 37 volumes;
#X obj 251 304 sdData;
#X obj 96 46 t b b;
#X msg 104 204 bang \, clear;
#X obj 251 327 outlet;
#X obj 192 169 sdPackFromHuman;
#X msg 192 95 list start_rec ( #[ ( switch ( * index ( 0 ) value (
1 ) ) ) ( Print ( Pack ( recSamp Pack ( start ) ) ) Out ( list ) )
#] ) stop_rec ( #[ ( switch ( * index ( 0 ) value ( 0 ) ) ) ( Print
( Pack ( recSamp Pack ( stop ) ) ) Out ( list ) ) #] );
#X connect 0 0 4 0;
#X connect 1 0 3 1;
#X connect 3 0 6 0;
#X connect 4 0 5 0;
#X connect 5 0 3 0;
#X connect 7 0 3 1;
#X connect 8 0 7 0;
#X restore 670 508 pd rec mode;
#X obj 669 531 sdPack rec_mode;
#N canvas 0 407 885 345 common 0;
#X obj 175 375 sdPackFromHuman;
#X obj 189 16 inlet;
#X obj 175 398 outlet;
#X obj 189 63 t b b;
#X obj 189 39 t b b;
#X msg 189 86 list io_out ( #[ ( analog ( * index ( 7 ) value ( ?value
) ) ) ( Print ( Pack ( io Pack ( set_vol Pack ( out-vol $ ( value )
) ) ) ) Out ( list ) ) #] ) io_in ( #[ ( analog ( * index ( 15 ) value
( ?value ) ) ) ( Print ( Pack ( io Pack ( set_vol Pack ( in-vol $ (
value ) ) ) ) ) Out ( list ) ) #] );
#X msg 309 278 list start_sampling ( #[ ( switch ( * index ( 15 ) value
( 127 ) ) ) ( Print ( Pack ( recSamp Pack ( sample.start ) ) ) Out
( list ) ) #] ) stop_sampling ( #[ ( switch ( * index ( 15 ) value
( 0 ) ) ) ( Print ( Pack ( recSamp Pack ( sample.stop ) ) ) Out ( list
) ) #] );
#X msg 230 182 list start_rec ( #[ ( switch ( * index ( 14 ) value
( 127 ) ) ) ( Print ( Pack ( recSamp Pack ( start ) ) ) Out ( list
) Print ( Pack ( io Pack ( dsp_on Pack ( audio-on 1 ) ) ) ) Out ( list
) ) #] ) stop_rec ( #[ ( switch ( * index ( 14 ) value ( 0 ) ) ) (
Print ( Pack ( recSamp Pack ( stop ) ) ) Out ( list ) ) #] );
#X connect 0 0 2 0;
#X connect 1 0 4 0;
#X connect 3 0 5 0;
#X connect 3 1 7 0;
#X connect 4 0 3 0;
#X connect 4 1 6 0;
#X connect 5 0 0 0;
#X connect 6 0 0 0;
#X connect 7 0 0 0;
#X restore 495 195 pd common;
#X obj 321 340 sdPack read_mode;
#N canvas 0 30 885 722 play 0;
#X obj 23 10 inlet;
#X obj 751 117 inlet;
#X text 749 98 volumes;
#X obj 201 500 sdData;
#X obj 23 33 t b b;
#X msg 72 245 bang \, clear;
#X obj 201 523 outlet;
#X obj 232 389 sdPackFromHuman;
#X obj 168 85 t b b;
#X msg 240 248 list play ( #[ ( switch ( * index ( 0 ) value ( 1 )
) ) ( Print ( Pack ( playSamp Pack ( start ) ) ) Out ( list ) ) #]
) stop ( #[ ( switch ( * index ( 0 ) value ( 0 ) ) ) ( Print ( Pack
( playSamp Pack ( stop ) ) ) Out ( list ) ) #] ) play_gran ( #[ ( switch
( * index ( 1 ) value ( 1 ) ) ) ( Print ( Pack ( playGran Pack ( start
) ) ) Out ( list ) ) #] ) stop_gran ( #[ ( switch ( * index ( 1 ) value
( 0 ) ) ) ( Print ( Pack ( playGran Pack ( stop ) ) ) Out ( list )
) #] );
#X msg 160 135 list timeFac ( #[ ( analog ( * index ( 0 ) value ( ?value
) ) ) ( Print ( Pack ( playGran Pack ( set_timeFac Pack ( timeFactor
$ ( value ) ) ) ) ) Out ( list ) ) #] );
#X connect 0 0 4 0;
#X connect 1 0 3 1;
#X connect 3 0 6 0;
#X connect 4 0 5 0;
#X connect 4 1 8 0;
#X connect 5 0 3 0;
#X connect 7 0 3 1;
#X connect 8 0 10 0;
#X connect 8 1 9 0;
#X connect 9 0 7 0;
#X connect 10 0 7 0;
#X restore 159 327 pd play mode;
#X obj 159 350 sdPack play_mode;
#X connect 0 0 9 0;
#X connect 0 1 1 0;
#X connect 0 1 14 0;
#X connect 1 0 4 0;
#X connect 3 0 5 0;
#X connect 4 0 8 0;
#X connect 5 0 6 0;
#X connect 5 1 0 0;
#X connect 6 0 4 0;
#X connect 7 0 2 0;
#X connect 8 0 7 0;
#X connect 9 1 10 0;
#X connect 10 0 15 0;
#X connect 11 0 5 0;
#X connect 12 0 13 0;
#X connect 14 0 10 1;
#X connect 15 0 4 1;
#X connect 16 0 17 0;
#X restore 249 226 pd modes 2;
#N canvas 0 30 762 722 modes 0;
#X obj 106 110 t b b;
#X obj 550 48 t b b;
#X msg 733 369 clear;
#X obj 198 678 outlet;
#X obj 70 18 inlet;
#X obj 198 589 sdData;
#X obj 70 41 t b b;
#X obj 50 535 t b;
#X obj 198 635 sdPack set;
#X obj 198 612 sdPack modes;
#X obj 362 156 t b b;
#N canvas 0 30 844 722 read 0;
#X obj 103 60 inlet;
#X obj 751 117 inlet;
#X text 749 98 volumes;
#X obj 201 500 sdData;
#X obj 103 83 t b b;
#X msg 72 245 bang \, clear;
#X obj 201 523 outlet;
#X obj 232 389 sdPackFromHuman;
#X obj 168 85 t b b;
#X msg 168 113 list read_pos ( #[ ( analog ( * index ( 0 ) value (
?value ) ) ) ( Print ( Pack ( readTab1 Pack ( set_pos Pack ( pos $
( value ) ) ) ) ) Out ( list ) ) #] ) read_pos ( #[ ( analog ( * index
( 1 ) value ( ?value ) ) ) ( Print ( Pack ( readSamp1 Pack ( set_pos
Pack ( pos $ ( value ) ) ) ) ) Out ( list ) ) #] ) read_pos ( #[ (
analog ( * index ( 2 ) value ( ?value ) ) ) ( Print ( Pack ( tapeHead1
Pack ( set_pos Pack ( pos $ ( value ) ) ) ) ) Out ( list ) ) #] );
#X msg 241 248 list sel_sample ( #[ ( switch ( * index ( ?value ) value
( 1 ) ) ) ( If ( < ( $ ( value ) 4 ) Print ( Pack ( gRead Pack ( set_samp
Pack ( sample.index $ ( value ) ) ) ) ) Out ( list ) ) ) #] );
#X connect 0 0 4 0;
#X connect 1 0 3 1;
#X connect 3 0 6 0;
#X connect 4 0 5 0;
#X connect 4 1 8 0;
#X connect 5 0 3 0;
#X connect 7 0 3 1;
#X connect 8 0 9 0;
#X connect 8 1 10 0;
#X connect 9 0 7 0;
#X connect 10 0 7 0;
#X restore 321 317 pd read mode;
#X obj 124 21 bng 15 250 50 0 empty empty empty 17 7 0 10 -262144 -1
-1;
#N canvas 0 30 844 345 rec 0;
#X obj 96 23 inlet;
#X obj 410 56 inlet;
#X text 408 37 volumes;
#X obj 251 304 sdData;
#X obj 96 46 t b b;
#X msg 104 204 bang \, clear;
#X obj 251 327 outlet;
#X obj 192 169 sdPackFromHuman;
#X msg 192 95 list start_rec ( #[ ( switch ( * index ( 0 ) value (
1 ) ) ) ( Print ( Pack ( recSamp Pack ( start ) ) ) Out ( list ) )
#] ) stop_rec ( #[ ( switch ( * index ( 0 ) value ( 0 ) ) ) ( Print
( Pack ( recSamp Pack ( stop ) ) ) Out ( list ) ) #] );
#X connect 0 0 4 0;
#X connect 1 0 3 1;
#X connect 3 0 6 0;
#X connect 4 0 5 0;
#X connect 5 0 3 0;
#X connect 7 0 3 1;
#X connect 8 0 7 0;
#X restore 670 508 pd rec mode;
#X obj 669 531 sdPack rec_mode;
#N canvas 0 30 844 722 common 0;
#X obj 175 375 sdPackFromHuman;
#X obj 189 16 inlet;
#X obj 175 398 outlet;
#X obj 189 63 t b b;
#X msg 189 86 list io_out ( #[ ( analog ( * index ( 5 ) value ( ?value
) ) ) ( Print ( Pack ( io Pack ( set_vol Pack ( out-vol $ ( value )
) ) ) ) Out ( list ) ) #] ) io_in ( #[ ( analog ( * index ( 4 ) value
( ?value ) ) ) ( Print ( Pack ( io Pack ( set_vol Pack ( in-vol $ (
value ) ) ) ) ) Out ( list ) ) #] );
#X obj 189 39 t b b;
#X msg 309 278 list start_sampling ( #[ ( switch ( * index ( 4 ) value
( 1 ) ) ) ( Print ( Pack ( recSamp Pack ( sample.start ) ) ) Out (
list ) ) #] ) stop_sampling ( #[ ( switch ( * index ( 4 ) value ( 0
) ) ) ( Print ( Pack ( recSamp Pack ( sample.stop ) ) ) Out ( list
) ) #] );
#X msg 230 182 list start_rec ( #[ ( switch ( * index ( 5 ) value (
1 ) ) ) ( Print ( Pack ( recSamp Pack ( start ) ) ) Out ( list ) Print
( Pack ( io Pack ( dsp_on Pack ( audio-on 1 ) ) ) ) Out ( list ) )
#] ) stop_rec ( #[ ( switch ( * index ( 5 ) value ( 0 ) ) ) ( Print
( Pack ( recSamp Pack ( stop ) ) ) Out ( list ) ) #] );
#X connect 0 0 2 0;
#X connect 1 0 5 0;
#X connect 3 0 4 0;
#X connect 3 1 7 0;
#X connect 4 0 0 0;
#X connect 5 0 3 0;
#X connect 5 1 6 0;
#X connect 6 0 0 0;
#X connect 7 0 0 0;
#X restore 495 195 pd common;
#X obj 321 340 sdPack read_mode;
#N canvas 0 30 844 722 play 0;
#X obj 23 10 inlet;
#X obj 751 117 inlet;
#X text 749 98 volumes;
#X obj 201 500 sdData;
#X obj 23 33 t b b;
#X msg 72 245 bang \, clear;
#X obj 201 523 outlet;
#X obj 232 389 sdPackFromHuman;
#X obj 168 85 t b b;
#X msg 240 248 list play ( #[ ( switch ( * index ( 0 ) value ( 1 )
) ) ( Print ( Pack ( playSamp Pack ( start ) ) ) Out ( list ) ) #]
) stop ( #[ ( switch ( * index ( 0 ) value ( 0 ) ) ) ( Print ( Pack
( playSamp Pack ( stop ) ) ) Out ( list ) ) #] ) play_gran ( #[ ( switch
( * index ( 1 ) value ( 1 ) ) ) ( Print ( Pack ( playGran Pack ( start
) ) ) Out ( list ) ) #] ) stop_gran ( #[ ( switch ( * index ( 1 ) value
( 0 ) ) ) ( Print ( Pack ( playGran Pack ( stop ) ) ) Out ( list )
) #] );
#X msg 160 135 list timeFac ( #[ ( analog ( * index ( 0 ) value ( ?value
) ) ) ( Print ( Pack ( playGran Pack ( set_timeFac Pack ( timeFactor
$ ( value ) ) ) ) ) Out ( list ) ) #] );
#X connect 0 0 4 0;
#X connect 1 0 3 1;
#X connect 3 0 6 0;
#X connect 4 0 5 0;
#X connect 4 1 8 0;
#X connect 5 0 3 0;
#X connect 7 0 3 1;
#X connect 8 0 10 0;
#X connect 8 1 9 0;
#X connect 9 0 7 0;
#X connect 10 0 7 0;
#X restore 159 327 pd play mode;
#X obj 159 350 sdPack play_mode;
#X connect 0 1 10 0;
#X connect 1 0 0 0;
#X connect 1 1 2 0;
#X connect 1 1 15 0;
#X connect 2 0 5 0;
#X connect 4 0 6 0;
#X connect 5 0 9 0;
#X connect 6 0 7 0;
#X connect 6 1 1 0;
#X connect 7 0 5 0;
#X connect 8 0 3 0;
#X connect 9 0 8 0;
#X connect 10 0 17 0;
#X connect 10 1 11 0;
#X connect 11 0 16 0;
#X connect 12 0 6 0;
#X connect 13 0 14 0;
#X connect 15 0 11 1;
#X connect 15 0 17 1;
#X connect 16 0 5 1;
#X connect 17 0 18 0;
#X connect 18 0 5 1;
#X restore 210 273 pd modes 1;
#X obj 274 66 t f b;
#X obj 210 131 t f f;
#X obj 181 96 t b f;
#X connect 0 0 1 0;
#X connect 1 0 5 0;
#X connect 2 0 0 0;
#X connect 2 1 4 0;
#X connect 3 0 2 0;
#X connect 4 0 5 0;
#X connect 5 0 6 0;
#X connect 7 0 9 0;
#X connect 8 0 18 0;
#X connect 12 0 13 0;
#X connect 12 1 14 0;
#X connect 13 0 17 0;
#X connect 14 0 16 0;
#X connect 16 0 15 0;
#X connect 17 0 10 0;
#X connect 18 0 20 0;
#X connect 18 1 7 0;
#X connect 19 0 12 0;
#X connect 19 1 11 0;
#X connect 20 1 19 0;
#X restore 594 58 pd glue;
#X text 2 12 user interface to control all objects;
#X obj 340 61 sdTableNoArray_obj tab1noSamp gTab 60000;
#X obj 340 37 sdTableSampNoArray_obj tab1 gTab 60000;
#X obj 594 13 r dev_version;
#X floatatom 594 36 5 1 2 0 - - -;
#X obj 491 332 sgDeviceToInterface;
#X obj 491 355 s GUI;
#X obj 600 304 r \$0-fromGUI;
#X obj 480 253 sgDevice_obj sgDevice GLOBAL 2;
#N canvas 683 180 681 119 arrays 0;
#X obj 14 14 table tab1.array;
#X obj 14 41 table tab2.array;
#X obj 14 67 table tab1noSamp.array;
#X restore 516 12 pd arrays;
#X obj 13 640 s \$0-fromGUI;
#N canvas 0 30 681 722 to-out 0;
#X obj 43 30 inlet;
#X obj 53 386 outlet;
#X obj 338 389 outlet;
#N canvas 0 30 681 722 filter_analog 0;
#X obj 55 70 sdPackFilter analog, f 50;
#X obj 65 150 outlet;
#X obj 57 30 inlet;
#X obj 363 153 outlet;
#X obj 55 94 sdEvent_filterByIndex 7 1;
#X obj 138 118 sdEvent_filterByIndex 14 1 1;
#X connect 0 0 4 0;
#X connect 0 1 3 0;
#X connect 2 0 0 0;
#X connect 4 0 1 0;
#X connect 4 1 5 0;
#X connect 5 0 1 0;
#X connect 5 1 3 0;
#X restore 42 60 pd filter_analog;
#N canvas 0 30 681 722 filter_switch 0;
#X obj 65 150 outlet;
#X obj 57 30 inlet;
#X obj 363 153 outlet;
#X obj 55 70 sdPackFilter switch, f 50;
#X obj 55 94 sdEvent_filterByIndex 15 1;
#X connect 1 0 3 0;
#X connect 3 0 4 0;
#X connect 3 1 2 0;
#X connect 4 0 0 0;
#X connect 4 1 2 0;
#X restore 135 84 pd filter_switch;
#X connect 0 0 3 0;
#X connect 3 0 1 0;
#X connect 3 1 4 0;
#X connect 4 0 1 0;
#X connect 4 1 2 0;
#X restore 480 278 pd to-out;
#N canvas 0 30 681 722 reserved-input 0;
#X obj 76 168 sdPackMatch;
#X obj 128 21 loadbang;
#X obj 76 191 outlet;
#X obj 8 17 inlet;
#X obj 143 193 outlet;
#X msg 128 44 clear \, add out analog ( * value ( ?out-vol ) index
( 0 ) ) \, add out analog ( * value ( ?in-vol ) index ( 1 ) ) \, add_script
audio-on ( switch ( * value ( ?value ) index ( 0 ) ) ) ( Print ( Pack
( out Pack ( audio-on != ( 0 $ ( value ) ) ) ) ) Out ( list ) );
#X connect 0 0 2 0;
#X connect 0 1 4 0;
#X connect 1 0 5 0;
#X connect 3 0 0 0;
#X connect 5 0 0 0;
#X restore 480 380 pd reserved-input;
#N canvas 0 30 762 736 to-objects 0;
#X obj 75 166 sdPackMatch;
#X obj 155 119 sdReplace \$0;
#X obj 155 57 loadbang;
#X obj 31 68 inlet;
#X obj 75 189 outlet;
#X msg 155 80 clear \, add_script out ( out ( args=[ * =] ) ) ( Print
( Pack ( io Pack ( set $ ( args ) ) ) ) Out ( list ) );
#X connect 0 0 4 0;
#X connect 1 0 0 0;
#X connect 2 0 5 0;
#X connect 3 0 0 0;
#X connect 5 0 1 0;
#X restore 480 403 pd to-objects;
#N canvas 0 30 762 722 (subpatch) 0;
#X obj 67 163 print;
#X obj 67 139 sdGate;
#X obj 121 103 tgl 15 0 empty empty empty 17 7 0 10 -262144 -1 -1 0
1;
#X obj 40 114 t a a;
#X text 136 101 print msgs;
#X obj 35 38 inlet;
#X obj 40 187 outlet;
#X connect 1 0 0 0;
#X connect 2 0 1 1;
#X connect 3 0 6 0;
#X connect 3 1 1 0;
#X connect 5 0 3 0;
#X coords 0 -1 1 1 100 22 1 100 100;
#X restore 480 427 pd;
#X obj 480 454 sdUnPack;
#X obj 480 477 send;
#N canvas 0 30 681 722 (subpatch) 0;
#X obj 67 163 print;
#X obj 67 139 sdGate;
#X obj 121 103 tgl 15 0 empty empty empty 17 7 0 10 -262144 -1 -1 0
1;
#X obj 40 114 t a a;
#X text 136 101 print msgs;
#X obj 35 38 inlet;
#X obj 40 187 outlet;
#X connect 1 0 0 0;
#X connect 2 0 1 1;
#X connect 3 0 6 0;
#X connect 3 1 1 0;
#X connect 5 0 3 0;
#X coords 0 -1 1 1 100 22 1 100 100;
#X restore 493 304 pd;
#X text 498 107 sgDevice2:;
#X text 508 125 analog 7 \, 15: io in \, out;
#X text 510 142 meta 15: dsp;
#N canvas 0 30 681 722 rec/read 0;
#X obj 90 45 r~ in;
#X text 44 26 record to tables;
#X text 57 155 read from a table;
#X obj 90 68 sdRecorder_ui~ rec1 gRec gTab;
#X obj 85 215 throw~ out;
#X obj 85 178 sdTabReadTimeBasedWithPos_obj~ readTab1 GLOBAL gRead
tab1, f 30;
#X connect 0 0 3 0;
#X connect 5 0 4 0;
#X restore 340 121 pd rec/read raw tables;
#N canvas 0 30 762 736 rec/read 0;
#X text 20 130 read a section of a table (a "sample");
#X obj 49 22 r~ in;
#X obj 49 44 sdRecorderSamp_ui~ recSamp gRec gTab;
#X obj 49 152 sdReadSampleWithPos_obj~ readSamp1 GLOBAL gRead tab1
, f 30;
#X obj 49 189 throw~ out;
#X text 23 209 play a section of the table;
#X obj 44 270 throw~ out;
#X obj 44 233 sdPlaySample_obj~ playSamp GLOBAL gRead tab1, f 30;
#X connect 1 0 2 0;
#X connect 3 0 4 0;
#X connect 7 0 6 0;
#X restore 340 148 pd rec/read samples;
#N canvas 0 30 885 736 read/play 0;
#X text 45 39 loop a "grain" starting at pos;
#X obj 59 211 throw~ out;
#X obj 59 101 throw~ out;
#X obj 59 388 sdPlayGranular_obj~ playGran GLOBAL gRead tab1;
#X obj 59 412 throw~ out;
#X text 35 363 play with granular time stretching and/or pitch shifting
;
#X text 46 136 loop 2 grains with overlap;
#X obj 59 64 sdReadGranular_obj~ readGranular GLOBAL gRead tab1;
#X obj 59 156 sdReadGranular2_obj~ readGranular2 GLOBAL gRead tab1
, f 32;
#X obj 60 331 throw~ out;
#X text 47 256 loop 4 grains with overlap;
#X obj 60 280 sdReadGranular4_obj~ readGranular4 GLOBAL gRead tab1
, f 32;
#X obj 517 597 sdPackFromHuman;
#X obj 517 657 throw~ out;
#X msg 608 577 list stop ( );
#X text 317 562 (empty env enables "always on" mode);
#X text 139 536 set envelopes;
#X msg 141 563 list set ( envelopes ( ) );
#N canvas 0 30 681 722 start 0;
#X obj 234 121 inlet;
#X obj 205 441 outlet;
#X msg 232 162 list set ( envelopes ( start ( z ( pitch ( 0 ) ) attack
( delay ( 200 ) volume ( 1 ) ) decay ( time ( 500 ) volume ( 0.5 )
) sustain ( time ( 1000 ) pitch ( 1 ) ) sustain2 ( time ( 1500 ) pitch
( 0 ) ) ) play ( z ( pitch ( 0 ) ) attack ( delay ( 200 ) volume (
1 ) ) decay ( time ( 500 ) volume ( 0.5 ) ) sustain ( time ( 1000 )
pitch ( 1 ) ) sustain2 ( time ( 1500 ) pitch ( 0 ) ) release ( delay
( 50 ) volume ( 0 ) ) ) stop ( release ( delay ( 50 ) volume ( 0 )
) ) ) );
#X connect 0 0 2 0;
#X connect 2 0 1 0;
#X restore 148 632 pd start \, stop \, play env;
#X obj 144 612 bng 15 250 50 0 empty empty empty 17 7 0 10 -262144
-1 -1;
#X text 396 396 NOTE: if a "play" msg. stops automatically \, this
isn't yet handled by the voice manager \, resulting in unnecessary
"stop" messages;
#X text 696 577 stop all voices;
#X obj 168 609 loadbang;
#X msg 199 667 list set ( table ( tab1 ) );
#X msg 547 435 list play ( pitch ( 0 ) );
#X msg 554 470 list start ( pitch ( 0 ) );
#X msg 563 492 list stop ( pitch ( 0 ) );
#X msg 574 524 list start ( pitch ( 1 ) );
#X msg 581 547 list stop ( pitch ( 1 ) );
#X obj 517 622 sdSynth_obj~ Sampler GLOBAL gSynth pitchShift sdPlayGranular_obj~
window.phase;
#X connect 3 0 4 0;
#X connect 7 0 2 0;
#X connect 8 0 1 0;
#X connect 11 0 9 0;
#X connect 12 0 29 0;
#X connect 14 0 12 0;
#X connect 17 0 12 0;
#X connect 18 0 12 0;
#X connect 19 0 18 0;
#X connect 22 0 18 0;
#X connect 22 0 23 0;
#X connect 23 0 12 0;
#X connect 24 0 12 0;
#X connect 25 0 12 0;
#X connect 26 0 12 0;
#X connect 27 0 12 0;
#X connect 28 0 12 0;
#X connect 29 0 13 0;
#X restore 340 174 pd read/play samples "granular";
#X text 326 14 tables;
#N canvas 0 30 885 736 utilities 0;
#X floatatom 40 35 5 0 0 0 - - -;
#X floatatom 40 132 5 0 0 0 - - -;
#X floatatom 50 86 6 0 0 0 - - -;
#X obj 40 109 sdSizeFromLength;
#X obj 40 65 sdLengthFromSize;
#X connect 0 0 4 0;
#X connect 3 0 1 0;
#X connect 4 0 2 0;
#X connect 4 0 3 0;
#X restore 340 226 pd utilities;
#N canvas 0 30 885 736 Synth 0;
#X obj 158 402 throw~ out;
#X obj 157 333 sdPackFromHuman;
#X obj 157 375 sdSynthVoice_obj~ SynthVoice GLOBAL gSynth;
#X floatatom 63 34 5 0 0 0 - - -;
#X obj 22 17 bng 30 250 50 0 empty empty empty 17 7 0 10 -262144 -1
-1;
#X obj 32 54 f 57;
#X text 414 274 (empty env enables "always on" mode);
#X msg 68 194 list start ( );
#X msg 71 225 list stop ( );
#X obj 399 611 sdPackFromHuman;
#X msg 436 484 list start ( pitch ( 57 ) );
#X msg 456 538 list start ( pitch ( 58 ) );
#X obj 399 672 throw~ out;
#X msg 445 506 list stop ( pitch ( 57 ) );
#X msg 463 561 list stop ( pitch ( 58 ) );
#X msg 490 591 list stop ( );
#X text 225 145 set envelopes;
#X msg 238 275 list set ( envelopes ( ) );
#X msg 32 77 list start ( pitch ( \$1 ) );
#X text 199 576 (empty env enables "always on" mode);
#X text 21 550 set envelopes;
#X msg 23 577 list set ( envelopes ( ) );
#X obj 238 167 bng 15 250 50 0 empty empty empty 17 7 0 10 -262144
-1 -1;
#N canvas 0 30 681 722 start 0;
#X msg 227 164 list set ( envelopes ( start ( z ( pitch ( 0 ) ) attack
( delay ( 200 ) volume ( 1 ) ) decay ( time ( 500 ) volume ( 0.5 )
) sustain ( time ( 1000 ) pitch ( 1 ) ) sustain2 ( time ( 1500 ) pitch
( 0 ) ) ) stop ( release ( delay ( 50 ) volume ( 0 ) ) ) ) );
#X obj 227 141 inlet;
#X obj 227 239 outlet;
#X connect 0 0 2 0;
#X connect 1 0 0 0;
#X restore 236 186 pd start \, stop env;
#N canvas 0 30 681 722 start 0;
#X obj 234 121 inlet;
#X obj 205 441 outlet;
#X msg 232 162 list set ( envelopes ( start ( z ( pitch ( 0 ) ) attack
( delay ( 200 ) volume ( 1 ) ) decay ( time ( 500 ) volume ( 0.5 )
) sustain ( time ( 1000 ) pitch ( 1 ) ) sustain2 ( time ( 1500 ) pitch
( 0 ) ) ) play ( z ( pitch ( 0 ) ) attack ( delay ( 200 ) volume (
1 ) ) decay ( time ( 500 ) volume ( 0.5 ) ) sustain ( time ( 1000 )
pitch ( 1 ) ) sustain2 ( time ( 1500 ) pitch ( 0 ) ) release ( delay
( 50 ) volume ( 0 ) ) ) stop ( release ( delay ( 50 ) volume ( 0 )
) ) ) );
#X connect 0 0 2 0;
#X connect 2 0 1 0;
#X restore 231 244 pd start \, stop \, play env;
#X obj 227 224 bng 15 250 50 0 empty empty empty 17 7 0 10 -262144
-1 -1;
#X msg 33 163 list play ( pitch ( \$1 ) );
#X floatatom 64 118 5 0 0 0 - - -;
#X obj 18 102 bng 30 250 50 0 empty empty empty 17 7 0 10 -262144 -1
-1;
#X obj 33 138 f 57;
#X floatatom 246 39 5 0 0 0 - - -;
#X msg 246 63 list set ( pitch ( \$1 ) );
#N canvas 0 30 681 722 start 0;
#X obj 234 121 inlet;
#X obj 205 441 outlet;
#X msg 232 162 list set ( envelopes ( start ( z ( pitch ( 0 ) ) attack
( delay ( 200 ) volume ( 1 ) ) decay ( time ( 500 ) volume ( 0.5 )
) sustain ( time ( 1000 ) pitch ( 1 ) ) sustain2 ( time ( 1500 ) pitch
( 0 ) ) ) play ( z ( pitch ( 0 ) ) attack ( delay ( 200 ) volume (
1 ) ) decay ( time ( 500 ) volume ( 0.5 ) ) sustain ( time ( 1000 )
pitch ( 1 ) ) sustain2 ( time ( 1500 ) pitch ( 0 ) ) release ( delay
( 50 ) volume ( 0 ) ) ) stop ( release ( delay ( 50 ) volume ( 0 )
) ) ) );
#X connect 0 0 2 0;
#X connect 2 0 1 0;
#X restore 30 646 pd start \, stop \, play env;
#X obj 26 626 bng 15 250 50 0 empty empty empty 17 7 0 10 -262144 -1
-1;
#X msg 429 449 list play ( pitch ( 57 ) );
#X text 278 410 NOTE: if a "play" msg. stops automatically \, this
isn't yet handled by the voice manager \, resulting in unnecessary
"stop" messages;
#X text 578 591 stop all voices;
#X obj 248 222 loadbang;
#X obj 50 623 loadbang;
#X obj 399 636 sdSynth_obj~ Synth GLOBAL gSynth pitch sdSynthVoice_obj~
;
#X connect 1 0 2 0;
#X connect 2 0 0 0;
#X connect 3 0 5 1;
#X connect 4 0 5 0;
#X connect 5 0 18 0;
#X connect 7 0 1 0;
#X connect 8 0 1 0;
#X connect 9 0 39 0;
#X connect 10 0 9 0;
#X connect 11 0 9 0;
#X connect 13 0 9 0;
#X connect 14 0 9 0;
#X connect 15 0 9 0;
#X connect 17 0 1 0;
#X connect 18 0 1 0;
#X connect 21 0 9 0;
#X connect 22 0 23 0;
#X connect 23 0 1 0;
#X connect 24 0 1 0;
#X connect 25 0 24 0;
#X connect 26 0 1 0;
#X connect 27 0 29 1;
#X connect 28 0 29 0;
#X connect 29 0 26 0;
#X connect 30 0 31 0;
#X connect 31 0 1 0;
#X connect 32 0 9 0;
#X connect 33 0 32 0;
#X connect 34 0 9 0;
#X connect 37 0 24 0;
#X connect 38 0 32 0;
#X connect 39 0 12 0;
#X restore 340 200 pd Synth;
#X obj 13 35 sdObjState_ui GUI GLOBAL gIO gRec gRead gSynth gTab;
#X obj 115 639 sdObjTrack dest;
#X obj 115 662 sdUnPack;
#X obj 349 662 sdPack;
#X obj 338 364 sdPiano_obj piano GLOBAL 2 1 start stop, f 18;
#X msg 364 636 list stop 0;
#X obj 350 687 sdUnPack;
#X obj 350 710 send;
#X obj 482 535 sdIO_obj_ui~ io GLOBAL gIO;
#X connect 0 0 38 0;
#X connect 0 0 38 1;
#X connect 6 0 7 0;
#X connect 7 0 2 0;
#X connect 8 0 9 0;
#X connect 10 0 8 1;
#X connect 11 0 14 0;
#X connect 14 0 15 0;
#X connect 14 1 20 0;
#X connect 15 0 16 0;
#X connect 16 0 17 0;
#X connect 17 0 18 0;
#X connect 18 0 19 0;
#X connect 18 2 19 1;
#X connect 20 0 8 0;
#X connect 30 0 13 0;
#X connect 30 0 31 0;
#X connect 31 0 32 0;
#X connect 32 0 33 1;
#X connect 33 0 36 0;
#X connect 34 0 33 0;
#X connect 35 0 33 0;
#X connect 36 0 37 0;
#X connect 36 2 37 1;
#X connect 38 0 1 0;
#X connect 38 1 1 0;
