#N canvas 0 30 1366 724 10;
#X obj 910 173 catch~ out;
#X floatatom 889 430 5 0 0 0 - - -;
#X floatatom 889 527 5 0 0 0 - - -;
#X floatatom 899 481 6 0 0 0 - - -;
#X obj 889 504 sdSizeFromLength;
#X obj 889 460 sdLengthFromSize;
#X obj 902 310 s~ in;
#X obj 387 118 r~ in;
#N canvas 0 30 681 722 glue 0;
#X msg 98 482 2;
#X obj 98 505 until;
#X obj 98 442 t b b;
#X obj 98 418 bng 15 250 50 0 empty empty empty 17 7 0 10 -262144 -1
-1;
#X msg 142 483 1;
#X obj 98 529 sdCounter -1;
#X msg 98 552 \; tab\$1 list set 3 tableLength 1 60000;
#X msg 452 148 list init 0;
#X obj 274 40 inlet;
#X obj 452 171 s GLOBAL;
#X obj 210 297 s sgDevice;
#N canvas 0 30 885 722 set 0;
#X obj 37 37 inlet;
#X obj 38 83 s sgDevice;
#X msg 37 60 list set 3 version 1 \$1;
#X connect 0 0 2 0;
#X connect 2 0 1 0;
#X restore 237 155 pd set device ver;
#X obj 210 179 route 1;
#X obj 210 202 t b;
#X obj 249 202 t b;
#X obj 249 250 s sgDevice;
#N canvas 0 407 885 345 modes 0;
#X obj 444 85 t b b;
#X msg 664 230 clear;
#X obj 198 678 outlet;
#X obj 70 18 inlet;
#X obj 198 589 sdData;
#X obj 70 41 t b b;
#X obj 50 535 t b;
#X obj 198 635 sdPack set;
#X obj 198 612 sdPack modes;
#X obj 362 156 t b b;
#N canvas 0 30 885 345 read 0;
#X obj 103 60 inlet;
#X obj 751 117 inlet;
#X text 749 98 volumes;
#X obj 201 500 sdData;
#X obj 103 83 t b b;
#X msg 72 245 bang \, clear;
#X obj 201 523 outlet;
#X obj 232 389 sdPackFromHuman;
#X obj 168 85 t b b;
#X msg 168 113 list read_pos ( #[ ( analog ( * index ( 0 ) value (
?value ) ) ) ( Print ( Pack ( readTab1 Pack ( set_pos Pack ( pos $
( value ) ) ) ) ) Out ( list ) ) #] ) read_pos ( #[ ( analog ( * index
( 1 ) value ( ?value ) ) ) ( Print ( Pack ( readSamp1 Pack ( set_pos
Pack ( pos $ ( value ) ) ) ) ) Out ( list ) ) #] ) read_pos ( #[ (
analog ( * index ( 2 ) value ( ?value ) ) ) ( Print ( Pack ( tapeHead1
Pack ( set_pos Pack ( pos $ ( value ) ) ) ) ) Out ( list ) ) #] );
#X msg 241 248 list sel_sample ( #[ ( trigger ( * index ( ?value )
value ( 127 ) ) ) ( If ( < ( $ ( value ) 4 ) Print ( Pack ( gRead Pack
( set_samp Pack ( sample.index $ ( value ) ) ) ) ) Out ( list ) ) )
#] );
#X connect 0 0 4 0;
#X connect 1 0 3 1;
#X connect 3 0 6 0;
#X connect 4 0 5 0;
#X connect 4 1 8 0;
#X connect 5 0 3 0;
#X connect 7 0 3 0;
#X connect 8 0 9 0;
#X connect 8 1 10 0;
#X connect 9 0 7 0;
#X connect 10 0 7 0;
#X restore 321 317 pd read mode;
#X obj 124 21 bng 15 250 50 0 empty empty empty 17 7 0 10 -262144 -1
-1;
#N canvas 0 30 803 722 rec 0;
#X obj 96 23 inlet;
#X obj 410 56 inlet;
#X text 408 37 volumes;
#X obj 251 304 sdData;
#X obj 96 46 t b b;
#X msg 104 204 bang \, clear;
#X obj 251 327 outlet;
#X obj 192 169 sdPackFromHuman;
#X msg 192 95 list start_rec ( #[ ( switch ( * index ( 0 ) value (
1 ) ) ) ( Print ( Pack ( recSamp Pack ( start ) ) ) Out ( list ) )
#] ) stop_rec ( #[ ( switch ( * index ( 0 ) value ( 0 ) ) ) ( Print
( Pack ( recSamp Pack ( stop ) ) ) Out ( list ) ) #] );
#X connect 0 0 4 0;
#X connect 1 0 3 1;
#X connect 3 0 6 0;
#X connect 4 0 5 0;
#X connect 5 0 3 0;
#X connect 7 0 3 1;
#X connect 8 0 7 0;
#X restore 670 508 pd rec mode;
#X obj 669 531 sdPack rec_mode;
#N canvas 0 407 885 345 common 0;
#X obj 175 375 sdPackFromHuman;
#X obj 189 16 inlet;
#X obj 175 398 outlet;
#X obj 189 63 t b b;
#X obj 189 39 t b b;
#X msg 189 86 list io_out ( #[ ( analog ( * index ( 7 ) value ( ?value
) ) ) ( Print ( Pack ( io Pack ( set_vol Pack ( out-vol $ ( value )
) ) ) ) Out ( list ) ) #] ) io_in ( #[ ( analog ( * index ( 15 ) value
( ?value ) ) ) ( Print ( Pack ( io Pack ( set_vol Pack ( in-vol $ (
value ) ) ) ) ) Out ( list ) ) #] );
#X msg 309 278 list start_sampling ( #[ ( switch ( * index ( 15 ) value
( 127 ) ) ) ( Print ( Pack ( recSamp Pack ( sample.start ) ) ) Out
( list ) ) #] ) stop_sampling ( #[ ( switch ( * index ( 15 ) value
( 0 ) ) ) ( Print ( Pack ( recSamp Pack ( sample.stop ) ) ) Out ( list
) ) #] );
#X msg 230 182 list start_rec ( #[ ( switch ( * index ( 14 ) value
( 127 ) ) ) ( Print ( Pack ( recSamp Pack ( start ) ) ) Out ( list
) Print ( Pack ( io Pack ( dsp_on Pack ( audio-on 1 ) ) ) ) Out ( list
) ) #] ) stop_rec ( #[ ( switch ( * index ( 14 ) value ( 0 ) ) ) (
Print ( Pack ( recSamp Pack ( stop ) ) ) Out ( list ) ) #] );
#X connect 0 0 2 0;
#X connect 1 0 4 0;
#X connect 3 0 5 0;
#X connect 3 1 7 0;
#X connect 4 0 3 0;
#X connect 4 1 6 0;
#X connect 5 0 0 0;
#X connect 6 0 0 0;
#X connect 7 0 0 0;
#X restore 495 195 pd common;
#X obj 321 340 sdPack read_mode;
#N canvas 0 30 885 722 play 0;
#X obj 23 10 inlet;
#X obj 751 117 inlet;
#X text 749 98 volumes;
#X obj 201 500 sdData;
#X obj 23 33 t b b;
#X msg 72 245 bang \, clear;
#X obj 201 523 outlet;
#X obj 232 389 sdPackFromHuman;
#X obj 168 85 t b b;
#X msg 240 248 list play ( #[ ( switch ( * index ( 0 ) value ( 1 )
) ) ( Print ( Pack ( playSamp Pack ( start ) ) ) Out ( list ) ) #]
) stop ( #[ ( switch ( * index ( 0 ) value ( 0 ) ) ) ( Print ( Pack
( playSamp Pack ( stop ) ) ) Out ( list ) ) #] ) play_gran ( #[ ( switch
( * index ( 1 ) value ( 1 ) ) ) ( Print ( Pack ( playGran Pack ( start
) ) ) Out ( list ) ) #] ) stop_gran ( #[ ( switch ( * index ( 1 ) value
( 0 ) ) ) ( Print ( Pack ( playGran Pack ( stop ) ) ) Out ( list )
) #] );
#X msg 160 135 list timeFac ( #[ ( analog ( * index ( 0 ) value ( ?value
) ) ) ( Print ( Pack ( playGran Pack ( set_timeFac Pack ( timeFactor
$ ( value ) ) ) ) ) Out ( list ) ) #] );
#X connect 0 0 4 0;
#X connect 1 0 3 1;
#X connect 3 0 6 0;
#X connect 4 0 5 0;
#X connect 4 1 8 0;
#X connect 5 0 3 0;
#X connect 7 0 3 1;
#X connect 8 0 10 0;
#X connect 8 1 9 0;
#X connect 9 0 7 0;
#X connect 10 0 7 0;
#X restore 159 327 pd play mode;
#X obj 159 350 sdPack play_mode;
#X connect 0 0 9 0;
#X connect 0 1 1 0;
#X connect 0 1 14 0;
#X connect 1 0 4 0;
#X connect 3 0 5 0;
#X connect 4 0 8 0;
#X connect 5 0 6 0;
#X connect 5 1 0 0;
#X connect 6 0 4 0;
#X connect 7 0 2 0;
#X connect 8 0 7 0;
#X connect 9 1 10 0;
#X connect 10 0 15 0;
#X connect 11 0 5 0;
#X connect 12 0 13 0;
#X connect 14 0 10 1;
#X connect 15 0 4 1;
#X connect 16 0 17 0;
#X restore 249 226 pd modes 2;
#N canvas 0 30 803 722 modes 0;
#X obj 106 110 t b b;
#X obj 550 48 t b b;
#X msg 733 369 clear;
#X obj 198 678 outlet;
#X obj 70 18 inlet;
#X obj 198 589 sdData;
#X obj 70 41 t b b;
#X obj 50 535 t b;
#X obj 198 635 sdPack set;
#X obj 198 612 sdPack modes;
#X obj 362 156 t b b;
#N canvas 0 30 844 722 read 0;
#X obj 103 60 inlet;
#X obj 751 117 inlet;
#X text 749 98 volumes;
#X obj 201 500 sdData;
#X obj 103 83 t b b;
#X msg 72 245 bang \, clear;
#X obj 201 523 outlet;
#X obj 232 389 sdPackFromHuman;
#X obj 168 85 t b b;
#X msg 168 113 list read_pos ( #[ ( analog ( * index ( 0 ) value (
?value ) ) ) ( Print ( Pack ( readTab1 Pack ( set_pos Pack ( pos $
( value ) ) ) ) ) Out ( list ) ) #] ) read_pos ( #[ ( analog ( * index
( 1 ) value ( ?value ) ) ) ( Print ( Pack ( readSamp1 Pack ( set_pos
Pack ( pos $ ( value ) ) ) ) ) Out ( list ) ) #] ) read_pos ( #[ (
analog ( * index ( 2 ) value ( ?value ) ) ) ( Print ( Pack ( tapeHead1
Pack ( set_pos Pack ( pos $ ( value ) ) ) ) ) Out ( list ) ) #] );
#X msg 241 248 list sel_sample ( #[ ( switch ( * index ( ?value ) value
( 1 ) ) ) ( If ( < ( $ ( value ) 4 ) Print ( Pack ( gRead Pack ( set_samp
Pack ( sample.index $ ( value ) ) ) ) ) Out ( list ) ) ) #] );
#X connect 0 0 4 0;
#X connect 1 0 3 1;
#X connect 3 0 6 0;
#X connect 4 0 5 0;
#X connect 4 1 8 0;
#X connect 5 0 3 0;
#X connect 7 0 3 1;
#X connect 8 0 9 0;
#X connect 8 1 10 0;
#X connect 9 0 7 0;
#X connect 10 0 7 0;
#X restore 321 317 pd read mode;
#X obj 124 21 bng 15 250 50 0 empty empty empty 17 7 0 10 -262144 -1
-1;
#N canvas 0 30 844 345 rec 0;
#X obj 96 23 inlet;
#X obj 410 56 inlet;
#X text 408 37 volumes;
#X obj 251 304 sdData;
#X obj 96 46 t b b;
#X msg 104 204 bang \, clear;
#X obj 251 327 outlet;
#X obj 192 169 sdPackFromHuman;
#X msg 192 95 list start_rec ( #[ ( switch ( * index ( 0 ) value (
1 ) ) ) ( Print ( Pack ( recSamp Pack ( start ) ) ) Out ( list ) )
#] ) stop_rec ( #[ ( switch ( * index ( 0 ) value ( 0 ) ) ) ( Print
( Pack ( recSamp Pack ( stop ) ) ) Out ( list ) ) #] );
#X connect 0 0 4 0;
#X connect 1 0 3 1;
#X connect 3 0 6 0;
#X connect 4 0 5 0;
#X connect 5 0 3 0;
#X connect 7 0 3 1;
#X connect 8 0 7 0;
#X restore 670 508 pd rec mode;
#X obj 669 531 sdPack rec_mode;
#N canvas 0 30 844 722 common 0;
#X obj 175 375 sdPackFromHuman;
#X obj 189 16 inlet;
#X obj 175 398 outlet;
#X obj 189 63 t b b;
#X msg 189 86 list io_out ( #[ ( analog ( * index ( 5 ) value ( ?value
) ) ) ( Print ( Pack ( io Pack ( set_vol Pack ( out-vol $ ( value )
) ) ) ) Out ( list ) ) #] ) io_in ( #[ ( analog ( * index ( 4 ) value
( ?value ) ) ) ( Print ( Pack ( io Pack ( set_vol Pack ( in-vol $ (
value ) ) ) ) ) Out ( list ) ) #] );
#X obj 189 39 t b b;
#X msg 309 278 list start_sampling ( #[ ( switch ( * index ( 4 ) value
( 1 ) ) ) ( Print ( Pack ( recSamp Pack ( sample.start ) ) ) Out (
list ) ) #] ) stop_sampling ( #[ ( switch ( * index ( 4 ) value ( 0
) ) ) ( Print ( Pack ( recSamp Pack ( sample.stop ) ) ) Out ( list
) ) #] );
#X msg 230 182 list start_rec ( #[ ( switch ( * index ( 5 ) value (
1 ) ) ) ( Print ( Pack ( recSamp Pack ( start ) ) ) Out ( list ) Print
( Pack ( io Pack ( dsp_on Pack ( audio-on 1 ) ) ) ) Out ( list ) )
#] ) stop_rec ( #[ ( switch ( * index ( 5 ) value ( 0 ) ) ) ( Print
( Pack ( recSamp Pack ( stop ) ) ) Out ( list ) ) #] );
#X connect 0 0 2 0;
#X connect 1 0 5 0;
#X connect 3 0 4 0;
#X connect 3 1 7 0;
#X connect 4 0 0 0;
#X connect 5 0 3 0;
#X connect 5 1 6 0;
#X connect 6 0 0 0;
#X connect 7 0 0 0;
#X restore 495 195 pd common;
#X obj 321 340 sdPack read_mode;
#N canvas 0 30 844 722 play 0;
#X obj 23 10 inlet;
#X obj 751 117 inlet;
#X text 749 98 volumes;
#X obj 201 500 sdData;
#X obj 23 33 t b b;
#X msg 72 245 bang \, clear;
#X obj 201 523 outlet;
#X obj 232 389 sdPackFromHuman;
#X obj 168 85 t b b;
#X msg 240 248 list play ( #[ ( switch ( * index ( 0 ) value ( 1 )
) ) ( Print ( Pack ( playSamp Pack ( start ) ) ) Out ( list ) ) #]
) stop ( #[ ( switch ( * index ( 0 ) value ( 0 ) ) ) ( Print ( Pack
( playSamp Pack ( stop ) ) ) Out ( list ) ) #] ) play_gran ( #[ ( switch
( * index ( 1 ) value ( 1 ) ) ) ( Print ( Pack ( playGran Pack ( start
) ) ) Out ( list ) ) #] ) stop_gran ( #[ ( switch ( * index ( 1 ) value
( 0 ) ) ) ( Print ( Pack ( playGran Pack ( stop ) ) ) Out ( list )
) #] );
#X msg 160 135 list timeFac ( #[ ( analog ( * index ( 0 ) value ( ?value
) ) ) ( Print ( Pack ( playGran Pack ( set_timeFac Pack ( timeFactor
$ ( value ) ) ) ) ) Out ( list ) ) #] );
#X connect 0 0 4 0;
#X connect 1 0 3 1;
#X connect 3 0 6 0;
#X connect 4 0 5 0;
#X connect 4 1 8 0;
#X connect 5 0 3 0;
#X connect 7 0 3 1;
#X connect 8 0 10 0;
#X connect 8 1 9 0;
#X connect 9 0 7 0;
#X connect 10 0 7 0;
#X restore 159 327 pd play mode;
#X obj 159 350 sdPack play_mode;
#X connect 0 1 10 0;
#X connect 1 0 0 0;
#X connect 1 1 2 0;
#X connect 1 1 15 0;
#X connect 2 0 5 0;
#X connect 4 0 6 0;
#X connect 5 0 9 0;
#X connect 6 0 7 0;
#X connect 6 1 1 0;
#X connect 7 0 5 0;
#X connect 8 0 3 0;
#X connect 9 0 8 0;
#X connect 10 0 17 0;
#X connect 10 1 11 0;
#X connect 11 0 16 0;
#X connect 12 0 6 0;
#X connect 13 0 14 0;
#X connect 15 0 11 1;
#X connect 15 0 17 1;
#X connect 16 0 5 1;
#X connect 17 0 18 0;
#X connect 18 0 5 1;
#X restore 210 273 pd modes 1;
#X obj 274 66 t f b;
#X obj 210 131 t f f;
#X msg 78 202 list init 0;
#X obj 78 225 s GUI-INIT;
#X obj 181 96 t b f;
#X connect 0 0 1 0;
#X connect 1 0 5 0;
#X connect 2 0 0 0;
#X connect 2 1 4 0;
#X connect 3 0 2 0;
#X connect 4 0 5 0;
#X connect 5 0 6 0;
#X connect 7 0 9 0;
#X connect 8 0 18 0;
#X connect 12 0 13 0;
#X connect 12 1 14 0;
#X connect 14 0 16 0;
#X connect 16 0 15 0;
#X connect 17 0 10 0;
#X connect 18 0 22 0;
#X connect 18 1 7 0;
#X connect 19 0 12 0;
#X connect 19 1 11 0;
#X connect 20 0 21 0;
#X connect 22 1 19 0;
#X restore 913 58 pd glue;
#X text 344 14 table;
#X text 2 12 user interface to control all objects;
#X text 348 498 play with granular time stretching and/or pitch shifting
;
#X text 341 99 record to tables;
#X text 344 228 read from a table;
#X text 606 228 read a section of a table (a "sample");
#X text 613 357 play a section of the table;
#X text 662 594 structuredData:;
#X obj 635 120 r~ in;
#X obj 635 142 sdRecorderSamp_ui~ recSamp gRec gTab;
#X obj 611 87 sdTableNoArray_obj tab1noSamp gTab 60000;
#X obj 387 141 sdRecorder_ui~ rec1 gRec gTab;
#X obj 388 52 print tab1.out;
#X obj 613 52 print tab1.in;
#X obj 880 200 sdIO_ui~ io gIO;
#X obj 387 249 sdReadTable_ui~ readTab1 gRead gTab;
#X obj 635 246 sdReadSample_ui~ readSamp1 gRead gTab;
#X obj 382 385 sdTapeHead_ui~ tapeHead1 gRead gTab;
#X obj 634 384 sdPlaySample_ui~ playSamp gRead gTab;
#X obj 388 30 sdTableSampNoArray_obj tab1 gTab 60000;
#X text 643 577 note:;
#X text 677 607 sdFilter should take multiple init args!;
#X obj 913 13 r dev_version;
#X floatatom 913 36 5 1 2 0 - - -;
#X obj 381 523 sdPlayGranular_ui~ playGran gRead gTab;
#X obj 877 110 sgDeviceToInterface;
#X obj 877 133 s GUI;
#X obj 1002 110 r \$0-fromGUI;
#X obj 877 87 sgDevice_obj sgDevice GLOBAL 2;
#N canvas 0 30 681 722 arrays 0;
#X obj 14 14 table tab1.array;
#X obj 14 41 table tab2.array;
#X obj 14 67 table tab1noSamp.array;
#X restore 715 20 pd arrays;
#X obj 13 534 s \$0-fromGUI;
#X obj 13 35 sdObjState_ui GUI GLOBAL gIO gRec gRead gTab;
#X text 353 358 loop a "grain" starting at pos;
#X connect 0 0 23 0;
#X connect 0 0 23 1;
#X connect 1 0 5 0;
#X connect 4 0 2 0;
#X connect 5 0 3 0;
#X connect 5 0 4 0;
#X connect 7 0 20 0;
#X connect 17 0 18 0;
#X connect 23 0 6 0;
#X connect 23 1 6 0;
#X connect 28 0 21 0;
#X connect 28 1 22 0;
#X connect 31 0 32 0;
#X connect 32 0 8 0;
#X connect 34 0 35 0;
#X connect 36 0 34 1;
#X connect 37 0 34 0;
#X connect 40 0 39 0;
