#N canvas 0 407 721 345 10;
#X obj 10 10 sdObjState_ui \$0-GLOBAL;
#X obj 581 32 bng 15 250 50 0 empty empty empty 17 7 0 10 -262144 -1
-1;
#N canvas 0 30 844 722 modes 0;
#X obj 114 320 sdPackFromHuman;
#X msg 99 223 list play ( #[ ( trigger ( index ( ?index ) ) ) ( Print
( Pack ( play Pack ( pitch $ ( index ) ) ) ) Out ( list ) ) #] ) volume
( #[ ( analog ( * index ( 0 ) value ( ?value ) ) ) ( Print ( Pack (
volume $ ( value ) ) ) Out ( list ) ) #] ) bend ( #[ ( analog ( * index
( 1 ) value ( ?value ) ) ) ( Print ( Pack ( bend $ ( value ) ) ) Out
( list ) ) #] );
#X obj 106 110 t b b;
#X obj 114 343 sdPack modei;
#X obj 266 65 t b b;
#X msg 733 209 clear;
#X obj 114 367 sdSetSelector append;
#X obj 198 518 outlet;
#X obj 70 18 inlet;
#X obj 198 429 sdData;
#X obj 70 41 t b b;
#X obj 50 375 t b;
#X obj 198 475 sdPack set;
#X obj 198 452 sdPack modes;
#X msg 133 132 list io_out ( #[ ( analog ( * index ( 5 ) value ( ?value
) ) ) ( Print ( Pack ( io.out_volume $ ( value ) ) ) Out ( list ) )
#] ) io_in ( #[ ( analog ( * index ( 4 ) value ( ?value ) ) ) ( Print
( Pack ( io.in_volume $ ( value ) ) ) Out ( list ) ) #] );
#X connect 0 0 3 0;
#X connect 1 0 0 0;
#X connect 2 0 1 0;
#X connect 2 1 14 0;
#X connect 3 0 6 0;
#X connect 4 0 2 0;
#X connect 4 1 5 0;
#X connect 5 0 9 0;
#X connect 6 0 9 0;
#X connect 8 0 10 0;
#X connect 9 0 13 0;
#X connect 10 0 11 0;
#X connect 10 1 4 0;
#X connect 11 0 9 0;
#X connect 12 0 7 0;
#X connect 13 0 12 0;
#X connect 14 0 0 0;
#X restore 620 71 pd modes;
#X obj 336 74 s \$0-input;
#N canvas 0 30 844 722 modes 0;
#X obj 114 238 sdPackFromHuman;
#X obj 122 377 sdPack modei;
#X obj 247 49 t b b, f 36;
#X msg 616 210 clear;
#X obj 122 401 sdSetSelector append;
#X obj 205 641 outlet;
#X obj 17 10 inlet;
#X obj 205 552 sdData;
#X obj 17 33 t b b;
#X obj 50 375 t b;
#X obj 205 598 sdPack set;
#X obj 205 575 sdPack modes;
#X msg 114 188 list out_vol ( #[ ( key ( * symbol ( \$1 ) value ( 1
) ) ) ( Print ( Pack ( play Pack ( pitch \$2 ) ) ) Out ( list ) ) #]
);
#X obj 114 165 pack s f;
#X msg 114 129 a 0 \, s 2 \, d 4 \, f 5 \, g 7 \, h 9 \, j 11 \, k
12 \, w 1 \, e 3 \, t 6 \, z 8 \, u 10;
#X obj 122 354 sdData;
#X msg 519 225 clear;
#X obj 76 94 t b b b, f 66;
#X obj 81 67 bng 15 250 50 0 empty empty empty 17 7 0 10 -262144 -1
-1;
#X msg 481 129 a 0 \, s 2 \, d 4 \, f 5;
#X connect 0 0 15 1;
#X connect 1 0 4 0;
#X connect 2 0 17 0;
#X connect 2 1 3 0;
#X connect 3 0 7 0;
#X connect 4 0 7 0;
#X connect 6 0 8 0;
#X connect 7 0 11 0;
#X connect 8 0 9 0;
#X connect 8 1 2 0;
#X connect 9 0 7 0;
#X connect 10 0 5 0;
#X connect 11 0 10 0;
#X connect 12 0 0 0;
#X connect 13 0 12 0;
#X connect 14 0 13 0;
#X connect 15 0 1 0;
#X connect 16 0 15 0;
#X connect 17 0 15 0;
#X connect 17 1 14 0;
#X connect 17 2 16 0;
#X connect 18 0 17 0;
#X connect 19 0 13 0;
#X restore 581 118 pd modes;
#X obj 581 141 s Keyboard;
#X obj 336 196 s \$0-input;
#X obj 336 145 sdKeyboardModes_ui Keyboard \$0-GLOBAL;
#X obj 581 52 t b b;
#X floatatom 336 102 5 0 0 0 - - -;
#X msg 336 123 list set 3 mode 1 \$1;
#X obj 336 9 sgDeviceModes_ui sgDevice \$0-GLOBAL;
#X obj 620 95 s sgDevice;
#X obj 361 364 r \$0-input;
#N canvas 0 30 844 345 distribute 0;
#X obj 37 37 inlet;
#X obj 111 42 loadbang;
#X obj 91 97 sdPackMatch volume;
#N canvas 0 30 844 345 <event> 0;
#X obj 89 29 inlet;
#X obj 104 297 outlet;
#X msg 576 129 add_script play_to_instr ( play ( args=[ * =] ) ) (
Print ( Pack ( instr Pack ( start $ ( args ) Pack ( volume $ ( volume
) ) ) ) ) Out ( list ) );
#X msg 112 105 clear \, add_script vol_to_instr ( volume ( ?vol ) )
( = ( volume $ ( vol ) ) ) \, add_script io_vol ( io.out_volume ( any=[
* =] ) ) ( Print ( Pack ( io Pack ( set_vol Pack ( out-vol $ ( any
) ) ) ) ) Out ( list ) ) ) \, add_script io_in ( io.in_volume ( any=[
* =] ) ) ( Print ( Pack ( io Pack ( set_in Pack ( in-vol $ ( any )
) ) ) ) Out ( list ) ) );
#X connect 0 0 3 0;
#X connect 3 0 1 0;
#X restore 111 65 pd <event> -> <dest> ( <event> );
#N canvas 0 30 762 722 (subpatch) 0;
#X obj 67 163 print;
#X obj 67 139 sdGate;
#X obj 121 103 tgl 15 0 empty empty empty 17 7 0 10 -262144 -1 -1 0
1;
#X obj 40 114 t a a;
#X text 136 101 print msgs;
#X obj 35 38 inlet;
#X obj 40 187 outlet;
#X connect 1 0 0 0;
#X connect 2 0 1 1;
#X connect 3 0 6 0;
#X connect 3 1 1 0;
#X connect 5 0 3 0;
#X coords 0 -1 1 1 100 22 1 100 100;
#X restore 62 129 pd;
#X obj 169 44 bng 15 250 50 0 empty empty empty 17 7 0 10 -262144 -1
-1;
#X obj 62 156 outlet;
#X connect 0 0 2 0;
#X connect 1 0 3 0;
#X connect 2 0 4 0;
#X connect 3 0 2 0;
#X connect 4 0 6 0;
#X connect 5 0 3 0;
#X restore 361 387 pd distribute;
#X obj 558 97 bng 15 250 50 0 empty empty empty 17 7 0 10 -262144 -1
-1;
#X obj 675 53 bng 15 250 50 0 empty empty empty 17 7 0 10 -262144 -1
-1;
#N canvas 0 407 844 345 send_to_audio_patch 0;
#X obj 77 189 netsend;
#X msg 161 162 connect localhost 3000;
#X msg 164 190 disconnect;
#X obj 92 49 sdSetSelector send;
#X floatatom 77 212 5 0 0 0 - - -;
#X obj 99 22 inlet;
#X obj 184 106 loadbang;
#X obj 184 129 del 1000;
#X connect 0 0 4 0;
#X connect 1 0 0 0;
#X connect 2 0 0 0;
#X connect 3 0 0 0;
#X connect 5 0 3 0;
#X connect 6 0 7 0;
#X connect 7 0 1 0;
#X restore 361 410 pd send_to_audio_patch;
#X obj 570 9 loadbang;
#X text 598 31 set modes;
#X connect 1 0 8 0;
#X connect 2 0 12 0;
#X connect 4 0 5 0;
#X connect 7 0 6 0;
#X connect 8 0 4 0;
#X connect 8 1 2 0;
#X connect 9 0 10 0;
#X connect 10 0 7 0;
#X connect 11 0 3 0;
#X connect 13 0 14 0;
#X connect 14 0 17 0;
#X connect 15 0 4 0;
#X connect 16 0 2 0;
#X connect 18 0 8 0;
