#N canvas 0 30 844 722 10;
#X obj 467 543 sdIO_ui~ io \$0-GLOBAL;
#N canvas 0 30 844 345 rcv_input 0;
#X obj 371 19 netreceive 3000;
#X obj 371 89 sdUnPack;
#X obj 371 112 send;
#N canvas 0 30 844 345 print 0;
#X obj 60 101 t a a;
#X obj 90 127 sdGate;
#X obj 153 102 tgl 15 0 empty empty empty 17 7 0 10 -262144 -1 -1 0
1;
#X obj 90 150 print;
#X obj 34 14 inlet;
#X obj 39 179 outlet;
#X connect 0 0 5 0;
#X connect 0 1 1 0;
#X connect 1 0 3 0;
#X connect 2 0 1 1;
#X connect 4 0 0 0;
#X coords 0 -1 1 1 70 19 1 100 100;
#X restore 575 216 pd print;
#X obj 371 42 list;
#X obj 166 117 tgl 15 0 empty empty empty 17 7 0 10 -262144 -1 -1 0
1;
#X obj 410 62 t a a;
#X obj 437 84 sdGate;
#X obj 437 107 print;
#X text 129 116 print;
#X connect 0 0 4 0;
#X connect 1 0 2 0;
#X connect 1 2 2 1;
#X connect 4 0 6 0;
#X connect 5 0 7 1;
#X connect 6 0 1 0;
#X connect 6 1 7 0;
#X connect 7 0 8 0;
#X coords 0 -1 1 1 82 33 1 100 100;
#X restore 360 12 pd rcv_input;
#X obj 467 670 s~ \$0-in.l;
#X obj 510 647 s~ \$0-in.r;
#X obj 353 115 r~ \$0-in.l;
#X obj 553 7 loadbang;
#X obj 13 637 table \$0-tab2.array;
#X obj 339 557 env~;
#X floatatom 339 580 5 0 0 0 - - -;
#X obj 11 587 table \$0-tab1.array;
#N canvas 0 30 844 722 init 0;
#X msg 100 69 list init 0;
#X obj 63 20 inlet;
#X obj 63 43 t b b;
#X obj 100 92 s GLOBAL;
#X connect 0 0 3 0;
#X connect 1 0 2 0;
#X connect 2 1 0 0;
#X restore 553 30 pd init;
#X obj 622 9 bng 15 250 50 0 empty empty empty 17 7 0 10 -262144 -1
-1;
#X obj 353 138 sdRecorderSamp_ui~ rec gRec gTables;
#X obj 11 564 sdTableSampNoArray_obj \$0-tab1 gTables 60000;
#X obj 13 614 sdTableSampNoArray_obj \$0-tab2 gTables 60000;
#X obj 352 242 sdPlaySample_ui~ player gPlay;
#X obj 10 10 sdObjState_ui GLOBAL gRec gPlay gTables;
#X connect 0 0 2 0;
#X connect 0 1 3 0;
#X connect 4 0 12 0;
#X connect 5 0 10 0;
#X connect 7 0 8 0;
#X connect 11 0 10 0;
