#N canvas 0 30 894 854 10;
#X obj 32 20 inlet;
#X obj 125 255 outlet;
#X obj 135 130 samplerate~;
#X obj 64 94 t f b;
#X obj 125 208 expr $f1/1000*$f2;
#X connect 0 0 3 0;
#X connect 2 0 4 1;
#X connect 3 0 4 0;
#X connect 3 1 2 0;
#X connect 4 0 1 0;
