#N canvas 0 30 681 736 10;
#X obj 324 31 inlet;
#X obj 47 169 sdPack set;
#X obj 47 192 s \$1;
#X obj 303 84 t a a, f 11;
#X obj 20 678 outlet~;
#X obj 46 145 sdObjTrack length samples sample.index;
#X obj 502 92 t a a;
#X obj 523 377 outlet;
#X obj 725 276 sdObjGet \$1 length samples sample.index;
#X obj 861 253 print -n;
#X msg 861 229 \$2: connected \$1 -> \$2;
#X obj 710 170 sdUnPack;
#X obj 725 196 sdObjConnectTo \$1 \$1;
#X text 864 200 print info for the dumb user;
#X obj 710 147 sdObjTrack table;
#X obj 661 385 outlet;
#X obj 153 104 t a a;
#X obj 324 55 sdObjState \$1 \$2 \$3;
#X obj 378 32 list;
#X obj 324 240 sdEventToProperties;
#X obj 128 176 sdPackFilter info update;
#X obj 188 214 sdPackFilter start stop;
#X obj 377 79 s \$0-toProps;
#X obj 167 42 print \$1.in;
#X obj 35 507 send;
#X obj 34 425 sdUnPack;
#X obj 34 361 t a a;
#X obj 123 405 print \$1.toVoices;
#X obj 293 329 sdPlayGranular~ \$4;
#X obj 487 12 loadbang;
#X msg 487 35 list init 0;
#X obj 712 306 sdObjTrackAll;
#X text 626 35 \$4: table \;;
#X obj 365 504 sdPlayGranular~ \$4;
#X obj 365 480 r \$0-voice.1;
#X obj 34 327 sdEventToVoices pitchShift \$0-voice \$1;
#X obj 446 480 r \$0-allVoices;
#X obj 808 418 s \$0-allVoices;
#X obj 365 527 throw~ \$0-audio-out;
#X obj 21 579 catch~ \$0-audio-out;
#X obj 744 369 sdPack set;
#X obj 744 392 sdEventToProperties;
#X obj 26 459 sdEventToProperties;
#X obj 723 331 sdPackFilter pitchShift range_info;
#X obj 51 35 sdPackFilter init;
#X obj 51 58 t b;
#X msg 51 81 init;
#X obj 51 104 s \$0-allVoices;
#X obj 365 577 sdPlayGranular~ \$4;
#X obj 446 553 r \$0-allVoices;
#X obj 365 600 throw~ \$0-audio-out;
#X obj 365 553 r \$0-voice.2;
#X obj 550 502 sdPlayGranular~ \$4;
#X obj 631 478 r \$0-allVoices;
#X obj 550 525 throw~ \$0-audio-out;
#X obj 550 575 sdPlayGranular~ \$4;
#X obj 631 551 r \$0-allVoices;
#X obj 550 598 throw~ \$0-audio-out;
#X obj 550 478 r \$0-voice.3;
#X obj 550 551 r \$0-voice.4;
#X obj 378 9 r \$0-fromProps;
#X obj 393 354 s \$0-fromProps;
#X obj 355 305 r \$0-toProps;
#X obj 122 382 sdGate;
#X obj 170 381 tgl 15 0 empty empty empty 17 7 0 10 -262144 -1 -1 0
1;
#X connect 0 0 17 0;
#X connect 1 0 2 0;
#X connect 3 0 16 0;
#X connect 3 1 15 0;
#X connect 5 0 1 0;
#X connect 6 0 14 0;
#X connect 6 0 31 0;
#X connect 6 1 7 0;
#X connect 10 0 9 0;
#X connect 11 0 12 0;
#X connect 12 0 8 0;
#X connect 12 1 10 0;
#X connect 14 0 11 0;
#X connect 16 0 5 0;
#X connect 16 0 44 0;
#X connect 16 1 20 0;
#X connect 17 0 3 0;
#X connect 17 0 23 0;
#X connect 17 1 22 0;
#X connect 17 2 6 0;
#X connect 18 0 17 1;
#X connect 19 0 28 0;
#X connect 19 1 28 0;
#X connect 20 1 21 0;
#X connect 21 0 35 0;
#X connect 21 1 19 0;
#X connect 25 0 42 0;
#X connect 25 2 24 1;
#X connect 26 0 25 0;
#X connect 26 1 63 0;
#X connect 28 2 61 0;
#X connect 29 0 30 0;
#X connect 30 0 17 0;
#X connect 31 0 43 0;
#X connect 33 0 38 0;
#X connect 34 0 33 0;
#X connect 35 0 26 0;
#X connect 36 0 33 0;
#X connect 39 0 4 0;
#X connect 40 0 41 0;
#X connect 41 1 37 0;
#X connect 42 0 24 0;
#X connect 42 1 24 0;
#X connect 43 1 40 0;
#X connect 44 0 45 0;
#X connect 45 0 46 0;
#X connect 46 0 47 0;
#X connect 48 0 50 0;
#X connect 49 0 48 0;
#X connect 51 0 48 0;
#X connect 52 0 54 0;
#X connect 53 0 52 0;
#X connect 55 0 57 0;
#X connect 56 0 55 0;
#X connect 58 0 52 0;
#X connect 59 0 55 0;
#X connect 60 0 18 0;
#X connect 62 0 28 0;
#X connect 63 0 27 0;
#X connect 64 0 63 1;
