#N canvas 0 473 846 411 10;
#X obj 54 388 outlet~;
#X obj 140 388 outlet~;
#X obj 104 308 r \$0-toObj;
#X obj 228 380 s \$0-fromObj;
#X obj 217 355 list;
#X obj 161 19 inlet;
#X obj 174 64 sdObjState \$1 \$2, f 17;
#X obj 288 17 r \$0-fromObj;
#X obj 65 155 sdPack set;
#X obj 65 178 s \$1;
#X obj 523 172 sdObjListen \$1 table;
#X obj 681 216 pack s s;
#X obj 751 212 sdSymbolBang \$1;
#X obj 681 263 print -n;
#X text 699 190 print info for the dumb user;
#X msg 681 239 \$2: connected \$1 -> \$2;
#X obj 277 204 sdEventToProperties;
#X obj 208 172 sdPackFilter info update;
#X obj 371 237 s \$0-toObj;
#X obj 229 90 s \$0-toObj;
#X obj 104 331 sdPlaySample~ \$3;
#X obj 593 293 sdObjGet \$1 length samples sample.index;
#X obj 65 132 sdObjTrack length samples sample.index;
#X obj 474 327 outlet;
#X obj 492 131 t a a;
#X connect 2 0 20 0;
#X connect 4 0 3 0;
#X connect 5 0 6 0;
#X connect 6 0 17 0;
#X connect 6 0 22 0;
#X connect 6 1 19 0;
#X connect 6 2 24 0;
#X connect 7 0 6 1;
#X connect 8 0 9 0;
#X connect 10 0 11 0;
#X connect 10 0 21 0;
#X connect 11 0 15 0;
#X connect 12 0 11 1;
#X connect 15 0 13 0;
#X connect 16 0 18 0;
#X connect 16 1 18 0;
#X connect 17 1 16 0;
#X connect 20 0 0 0;
#X connect 20 1 1 0;
#X connect 20 2 4 0;
#X connect 22 0 8 0;
#X connect 24 0 23 0;
#X connect 24 1 10 0;
