#N canvas 0 30 844 722 10;
#X obj 54 388 outlet~;
#X obj 140 388 outlet~;
#X obj 104 308 r \$0-toObj;
#X obj 228 380 s \$0-fromObj;
#X obj 217 355 list;
#X obj 161 19 inlet;
#X obj 288 17 r \$0-fromObj;
#X obj 42 169 sdPack set;
#X obj 42 192 s \$1;
#X obj 125 244 sdEventToProperties;
#X obj 112 170 sdPackFilter info update;
#X obj 244 268 s \$0-toObj;
#X obj 229 90 s \$0-toObj;
#X obj 42 146 sdObjTrack length samples sample.index;
#X obj 341 398 outlet;
#X obj 510 148 t a a;
#X obj 174 64 sdObjState \$1 \$2 \$3;
#X obj 104 331 sdPlaySample~ \$4;
#X obj 560 328 sdObjGet \$1 length samples sample.index;
#X obj 696 305 print -n;
#X msg 696 281 \$2: connected \$1 -> \$2;
#X obj 545 222 sdUnPack;
#X obj 560 248 sdObjConnectTo \$1 \$1;
#X text 699 252 print info for the dumb user;
#X obj 545 199 sdObjTrack table;
#X obj 513 400 outlet;
#X obj 122 88 t a a;
#X obj 103 116 t a a;
#X obj 129 272 s \$0-toObj;
#X obj 196 208 sdPackFilter init start stop;
#X obj 336 239 sdEventToProperties;
#X obj 455 263 s \$0-toObj;
#X connect 2 0 17 0;
#X connect 4 0 3 0;
#X connect 5 0 16 0;
#X connect 6 0 16 1;
#X connect 7 0 8 0;
#X connect 9 0 28 0;
#X connect 9 1 11 0;
#X connect 10 1 29 0;
#X connect 13 0 7 0;
#X connect 15 0 24 0;
#X connect 15 1 14 0;
#X connect 16 0 26 0;
#X connect 16 1 12 0;
#X connect 16 2 15 0;
#X connect 17 0 0 0;
#X connect 17 1 1 0;
#X connect 17 2 4 0;
#X connect 20 0 19 0;
#X connect 21 0 22 0;
#X connect 22 0 18 0;
#X connect 22 1 20 0;
#X connect 24 0 21 0;
#X connect 26 0 27 0;
#X connect 26 1 25 0;
#X connect 27 0 13 0;
#X connect 27 1 10 0;
#X connect 29 0 9 0;
#X connect 29 1 30 0;
#X connect 30 1 31 0;
