#N canvas 0 473 846 411 10;
#X obj 752 768 outlet;
#X obj 26 780 outlet~;
#X obj 115 342 line~;
#X obj 451 0 inlet;
#X obj 232 353 unpack;
#X obj 181 309 t a a;
#X obj 973 225 r \$0-length;
#X floatatom 973 248 5 0 0 0 - - -;
#X obj 181 286 pack 0 500;
#X obj 224 464 sig~;
#X obj 115 391 s~ \$0-pos;
#X obj 200 605 r~ \$0-pos;
#X obj 225 510 s~ \$0-tapeSpeed;
#X obj 267 577 r~ \$0-tapeSpeed;
#X obj 325 603 r \$0-tapeInput;
#X obj 537 147 s \$0-tapeInput;
#X obj 317 651 s \$0-out;
#X obj 752 745 r \$0-out;
#X obj 168 651 throw~ \$0-audioOut;
#X obj 26 685 catch~ \$0-audioOut;
#X obj 589 88 t a a;
#X msg 569 506 set window.phase 0;
#X obj 621 480 t b b;
#X obj 591 463 bng 15 250 50 0 empty empty empty 17 7 0 10 -262144
-1 -1;
#X floatatom 1057 252 5 0 0 0 - - -;
#X obj 1057 229 r \$0-window.length;
#X obj 284 675 s~ \$0-phase1;
#X obj 504 605 r~ \$0-pos;
#X obj 580 584 r~ \$0-tapeSpeed;
#X obj 642 609 r \$0-tapeInput;
#X obj 470 658 throw~ \$0-audioOut;
#X obj 586 682 s~ \$0-phase2;
#X obj 365 718 -~;
#X obj 208 442 expr -$f1*$f3/$f2;
#X obj 116 366 +~;
#X obj 225 487 +~;
#X obj 206 416 - 0;
#X obj 200 386 t f f;
#X msg 695 506 set window.phase 0.5;
#X obj 622 433 r \$0-length;
#X msg 622 456 bang;
#X msg 38 55 start;
#N canvas 0 473 846 411 playSeq 0;
#X obj 138 196 t b a;
#X obj 37 34 inlet;
#X obj 80 326 outlet;
#X obj 184 331 outlet;
#X obj 377 278 outlet;
#X obj 130 31 inlet;
#X msg 130 77 set speed \$1;
#X obj 46 110 sdSeqPlayer 1;
#X connect 0 0 2 0;
#X connect 0 1 3 0;
#X connect 1 0 7 0;
#X connect 5 0 6 0;
#X connect 6 0 7 0;
#X connect 7 1 0 0;
#X connect 7 2 4 0;
#X restore 225 125 pd playSeq;
#X obj 26 708 *~;
#X obj 118 713 r~ \$0-volume;
#X obj 510 295 s~ \$0-volume;
#X obj 299 125 s \$0-delay;
#X obj 256 286 r \$0-delay;
#X obj 183 263 f;
#X obj 511 224 f;
#X obj 510 248 pack 0 500;
#X obj 585 248 r \$0-delay;
#X obj 510 271 line~;
#X obj 363 249 pack 0 500;
#X obj 438 249 r \$0-delay;
#X obj 365 226 f;
#X obj 363 272 line~;
#X obj 126 179 s \$0-nextRamp;
#X obj 129 220 r \$0-nextRamp;
#X obj 369 199 r \$0-nextRamp;
#X obj 499 189 r \$0-nextRamp;
#X floatatom 605 275 5 0 0 0 - - -;
#N canvas 0 473 846 411 defaultEnvelopes 0;
#X obj 62 14 inlet;
#X obj 158 285 outlet;
#X obj 158 191 sdPackFromHuman;
#X msg 53 52 list attack ( time ( 0 ) pos ( 0 ) volume ( 0 ) pitch
( 0 ) ) sustain ( time ( 0.1 ) pos ( 0.1 ) volume ( 1 ) pitch ( 0 )
) release ( time ( 0.9 ) pos ( 1 ) volume ( 1 ) pitch ( 0 ) ) end (
time ( 1 ) pos ( 1 ) volume ( 0 ) pitch ( 0 ) ) reset ( time ( 1 )
pos ( 0 ) );
#X obj 158 261 list trim;
#X obj 158 237 list prepend set sequence;
#X connect 0 0 3 0;
#X connect 2 0 5 0;
#X connect 3 0 2 0;
#X connect 4 0 1 0;
#X connect 5 0 4 0;
#X restore 120 65 pd defaultEnvelopes;
#X obj 125 37 bng 15 250 50 0 empty empty empty 17 7 0 10 -262144 -1
-1;
#X obj 269 3 r \$0-length;
#X obj 145 37 loadbang;
#X obj 302 28 r \$0-sample.delta;
#X obj 302 51 t b f;
#X floatatom 204 88 7 0 0 0 - - -;
#X obj 1065 283 r \$0-sample.delta;
#X floatatom 1065 306 5 0 0 0 - - -;
#X obj 279 76 * 1;
#X obj 307 345 r \$0-length;
#X obj 317 369 r \$0-sample.delta;
#X obj 317 392 t b f;
#X obj 307 418 * 1;
#X obj 347 52 r \$0-timeFactor;
#X obj 347 75 t b f;
#X obj 36 30 r \$0-start;
#X obj 307 101 *;
#X obj 363 296 s~ \$0-runtimePitch;
#X obj 393 427 r~ \$0-runtimePitch;
#X obj 416 453 r \$0-pitchFactor;
#X obj 388 476 +~;
#X obj 118 736 *~ 0.6;
#N canvas 0 473 798 411 properties 0;
#X obj 53 28 inlet;
#X obj 267 405 outlet;
#X obj 66 278 print sdPlayGranular.dbg;
#X obj 291 209 sdProperty length \$0;
#X obj 347 267 sdProperty sample.delta \$0 1 intern;
#X obj 369 300 sdProperty timeFactor \$0 1 intern;
#X obj 532 325 sdProperty pitchFactor \$0;
#X obj 528 207 sdPropertyList points \$0;
#X connect 0 0 3 0;
#X connect 3 1 4 0;
#X connect 4 1 5 0;
#X connect 5 0 1 0;
#X connect 5 1 6 0;
#X connect 6 0 1 0;
#X restore 713 110 pd properties;
#X obj 713 133 s \$0-out;
#X obj 467 46 s \$0-start;
#X obj 435 779 outlet~;
#X obj 430 742 r~ \$0-pos;
#X obj 217 627 sdTapeHead~ \$1 0 0;
#X obj 261 160 sdUnEvent pos pitch volume;
#X floatatom 384 119 5 0 0 0 - - -;
#X obj 487 95 s \$0-init;
#X obj 91 110 r \$0-init;
#X obj 468 22 route start;
#X obj 559 49 route init;
#X msg 487 72 init;
#X obj 105 426 sdSig2Num_ui~ 0 1;
#X obj 111 540 sdSig2Num_ui~ -3 3;
#X obj 644 333 sdSig2Num_ui~ 0 1;
#X obj 365 741 sdSig2Num_ui~ -1 1;
#X obj 519 634 sdTapeHead~ \$1 0 0.5;
#X connect 2 0 34 0;
#X connect 2 0 98 0;
#X connect 3 0 95 0;
#X connect 4 0 37 0;
#X connect 4 1 33 1;
#X connect 5 0 2 0;
#X connect 5 1 4 0;
#X connect 6 0 7 0;
#X connect 8 0 5 0;
#X connect 9 0 35 0;
#X connect 11 0 90 0;
#X connect 13 0 90 1;
#X connect 14 0 90 2;
#X connect 17 0 0 0;
#X connect 19 0 43 0;
#X connect 20 0 15 0;
#X connect 20 1 85 0;
#X connect 22 0 21 0;
#X connect 22 1 38 0;
#X connect 23 0 22 0;
#X connect 25 0 24 0;
#X connect 27 0 102 0;
#X connect 28 0 102 1;
#X connect 29 0 102 2;
#X connect 32 0 101 0;
#X connect 33 0 9 0;
#X connect 34 0 10 0;
#X connect 35 0 12 0;
#X connect 35 0 99 0;
#X connect 36 0 33 0;
#X connect 37 0 36 1;
#X connect 37 1 36 0;
#X connect 40 0 22 0;
#X connect 41 0 42 0;
#X connect 42 0 57 0;
#X connect 42 1 91 0;
#X connect 42 2 46 0;
#X connect 43 0 1 0;
#X connect 44 0 84 0;
#X connect 47 0 8 1;
#X connect 48 0 8 0;
#X connect 49 0 50 0;
#X connect 50 0 52 0;
#X connect 51 0 50 1;
#X connect 51 0 61 0;
#X connect 52 0 45 0;
#X connect 52 0 100 0;
#X connect 53 0 56 0;
#X connect 54 0 53 1;
#X connect 55 0 53 0;
#X connect 56 0 80 0;
#X connect 58 0 48 0;
#X connect 59 0 55 0;
#X connect 60 0 49 0;
#X connect 62 0 42 0;
#X connect 63 0 62 0;
#X connect 64 0 71 0;
#X connect 65 0 62 0;
#X connect 66 0 67 0;
#X connect 67 0 71 0;
#X connect 67 1 71 1;
#X connect 69 0 70 0;
#X connect 71 0 68 0;
#X connect 71 0 79 0;
#X connect 72 0 75 0;
#X connect 73 0 74 0;
#X connect 74 0 75 0;
#X connect 74 1 75 1;
#X connect 75 0 33 2;
#X connect 76 0 77 0;
#X connect 77 0 79 0;
#X connect 77 1 79 1;
#X connect 78 0 41 0;
#X connect 79 0 42 1;
#X connect 79 0 92 0;
#X connect 81 0 83 0;
#X connect 82 0 83 1;
#X connect 83 0 35 1;
#X connect 84 0 43 1;
#X connect 85 0 86 0;
#X connect 89 0 88 0;
#X connect 90 0 18 0;
#X connect 90 2 26 0;
#X connect 90 2 32 0;
#X connect 90 3 16 0;
#X connect 91 0 48 1;
#X connect 91 1 55 1;
#X connect 91 2 49 1;
#X connect 94 0 42 0;
#X connect 95 0 87 0;
#X connect 95 1 96 0;
#X connect 96 0 97 0;
#X connect 96 1 20 0;
#X connect 97 0 93 0;
#X connect 97 0 20 0;
#X connect 102 0 30 0;
#X connect 102 2 31 0;
#X connect 102 2 32 1;
