#N canvas 0 30 681 736 10;
#X obj 137 352 s \$0-fromObj;
#X obj 324 31 inlet;
#X obj 378 9 r \$0-fromObj;
#X obj 47 169 sdPack set;
#X obj 47 192 s \$1;
#X obj 303 84 t a a, f 11;
#X obj 47 302 r \$0-toObj;
#X obj 21 469 outlet~;
#X obj 98 375 outlet~;
#X obj 46 145 sdObjTrack length samples sample.index;
#X obj 502 92 t a a;
#X obj 523 377 outlet;
#X obj 557 252 sdObjGet \$1 length samples sample.index;
#X obj 693 229 print -n;
#X msg 693 205 \$2: connected \$1 -> \$2;
#X obj 542 146 sdUnPack;
#X obj 557 172 sdObjConnectTo \$1 \$1;
#X text 696 176 print info for the dumb user;
#X obj 542 123 sdObjTrack table;
#X obj 661 385 outlet;
#X obj 153 104 t a a;
#X obj 324 55 sdObjState \$1 \$2 \$3;
#X obj 378 32 list;
#X obj 240 234 sdEventToProperties;
#X obj 128 176 sdPackFilter info update;
#X obj 104 208 sdPackFilter start stop;
#X obj 104 233 sdEventToProperties;
#X obj 111 262 s \$0-toObj;
#X obj 377 79 s \$0-toProps;
#X obj 322 277 r \$0-toProps;
#X obj 341 344 s \$0-toObj;
#X obj 262 345 s \$0-fromObj;
#X obj 57 400 r \$0-enable-out;
#X obj 57 447 line~;
#X obj 57 424 pack 0 50;
#X obj 27 414 *~;
#X obj 47 326 sdPlayGranular~ \$4;
#X obj 262 307 sdProperty enable-out \$0 1 intern 0 1 1, f 21;
#X obj 167 42 print \$1.in;
#X connect 1 0 21 0;
#X connect 2 0 22 0;
#X connect 3 0 4 0;
#X connect 5 0 20 0;
#X connect 5 1 19 0;
#X connect 6 0 36 0;
#X connect 9 0 3 0;
#X connect 10 0 18 0;
#X connect 10 1 11 0;
#X connect 14 0 13 0;
#X connect 15 0 16 0;
#X connect 16 0 12 0;
#X connect 16 1 14 0;
#X connect 18 0 15 0;
#X connect 20 0 9 0;
#X connect 20 1 24 0;
#X connect 21 0 5 0;
#X connect 21 0 38 0;
#X connect 21 1 28 0;
#X connect 21 2 10 0;
#X connect 22 0 21 1;
#X connect 23 0 37 0;
#X connect 23 1 37 0;
#X connect 24 1 25 0;
#X connect 25 0 26 0;
#X connect 25 1 23 0;
#X connect 26 0 27 0;
#X connect 26 1 27 0;
#X connect 29 0 37 0;
#X connect 32 0 34 0;
#X connect 33 0 35 1;
#X connect 34 0 33 0;
#X connect 35 0 7 0;
#X connect 36 0 35 0;
#X connect 36 1 8 0;
#X connect 36 2 0 0;
#X connect 37 0 31 0;
#X connect 37 1 30 0;
