#N canvas 0 30 894 854 10;
#X obj 69 15 inlet;
#X obj 73 334 outlet~;
#X obj 257 176 line~;
#X text 66 1 Player;
#X obj 334 333 outlet~;
#X obj 192 508 t b b b;
#X obj 227 417 r \$0-Start;
#X obj 69 94 s \$0-Start;
#X obj 115 71 s \$0-Stop;
#X obj 454 348 outlet;
#X text 294 354 Position in the sample;
#X text 72 360 AudioOut;
#X obj 311 560 r \$0-sample.length;
#X obj 69 47 route start stop;
#X obj 258 202 sdReadSample~ \$1 \$2;
#X floatatom 333 593 5 0 0 0 - - -;
#X obj 402 131 t a a;
#X obj 125 301 *~;
#X obj 196 324 line~;
#X obj 215 98 r \$0-pos;
#X obj 472 558 s \$0-vol;
#X obj 196 276 r \$0-vol;
#X obj 257 152 pack 0 50;
#X obj 196 301 pack 0 50;
#X obj 279 665 s \$0-pos;
#X obj 279 639 pack;
#X obj 723 516 r \$0-Stop;
#X obj 736 540 t b b b;
#X obj 812 596 s \$0-vol;
#X obj 678 646 s \$0-pos;
#X obj 591 519 r \$0-vol;
#X obj 591 542 print vol;
#X obj 105 742 s \$0-Stop;
#X obj 105 719 del;
#X obj 140 660 r \$0-sample.length;
#X floatatom 162 693 5 0 0 0 - - -;
#X msg 811 570 0 25;
#X obj 678 596 del 25;
#X msg 472 533 1 25;
#X obj 300 616 - 25;
#X obj 122 697 - 50;
#X obj 227 440 t b b;
#X obj 260 472 s \$0-Stop;
#X obj 215 121 t a a;
#X msg 273 118 0.017 25;
#X obj 198 475 del 25;
#X text 690 497 turn down vol \, then jump to begin;
#X obj 454 244 t a a;
#X floatatom 311 730 5 0 0 0 - - -;
#X floatatom 436 728 5 0 0 0 - - -;
#X obj 481 269 route sample.begin sample.length;
#X obj 481 317 s \$0-sample.begin;
#X obj 575 293 s \$0-sample.length;
#X msg 678 621 25 0;
#X obj 256 594 f;
#X obj 311 707 r \$0-sample.begin;
#X obj 436 705 r \$0-sample.length;
#X connect 0 0 13 0;
#X connect 2 0 14 0;
#X connect 5 0 33 0;
#X connect 5 1 54 0;
#X connect 5 2 38 0;
#X connect 6 0 41 0;
#X connect 12 0 15 0;
#X connect 12 0 39 0;
#X connect 12 0 54 1;
#X connect 13 0 7 0;
#X connect 13 1 8 0;
#X connect 13 2 16 0;
#X connect 14 0 17 0;
#X connect 14 1 4 0;
#X connect 14 2 47 0;
#X connect 16 0 14 1;
#X connect 17 0 1 0;
#X connect 18 0 17 1;
#X connect 19 0 43 0;
#X connect 21 0 23 0;
#X connect 22 0 2 0;
#X connect 23 0 18 0;
#X connect 25 0 24 0;
#X connect 26 0 27 0;
#X connect 27 1 37 0;
#X connect 27 2 36 0;
#X connect 33 0 32 0;
#X connect 34 0 35 0;
#X connect 34 0 40 0;
#X connect 36 0 28 0;
#X connect 37 0 53 0;
#X connect 38 0 20 0;
#X connect 39 0 25 1;
#X connect 40 0 33 1;
#X connect 41 0 45 0;
#X connect 41 1 42 0;
#X connect 43 0 22 0;
#X connect 44 0 22 0;
#X connect 45 0 5 0;
#X connect 47 0 9 0;
#X connect 47 1 50 0;
#X connect 50 0 51 0;
#X connect 50 1 52 0;
#X connect 53 0 29 0;
#X connect 54 0 25 0;
#X connect 55 0 48 0;
#X connect 56 0 49 0;
