#N canvas 0 30 846 854 10;
#X obj 57 242 sdPlayGranular~ \$3;
#X obj 162 273 list;
#X obj 162 296 s \$0-fromObj;
#X obj 370 31 inlet;
#X obj 370 55 sdObjState \$1 \$2;
#X obj 465 17 r \$0-fromObj;
#X obj 527 90 sdObjListen \$1 table;
#X obj 669 170 pack s s;
#X obj 739 166 sdSymbolBang \$1;
#X obj 669 217 print -n;
#X text 687 144 print info for the dumb user;
#X msg 669 193 \$2: connected \$1 -> \$2;
#X obj 278 166 sdPack set;
#X obj 278 189 s \$1;
#X obj 241 269 sdEventToProperties;
#X obj 240 244 sdPackFilter info update;
#X obj 290 75 t a a;
#X obj 290 328 s \$0-toObj;
#X obj 383 83 s \$0-toObj;
#X obj 67 203 r \$0-toObj;
#X obj 35 364 outlet~;
#X obj 128 374 outlet~;
#X obj 525 123 sdObjGet \$1 length samples sample.index;
#X obj 277 142 sdObjTrack length samples sample.index;
#X obj 494 58 t a a;
#X obj 495 291 outlet;
#X connect 0 0 20 0;
#X connect 0 1 21 0;
#X connect 0 2 1 0;
#X connect 1 0 2 0;
#X connect 3 0 4 0;
#X connect 4 0 16 0;
#X connect 4 1 18 0;
#X connect 4 2 24 0;
#X connect 5 0 4 1;
#X connect 6 0 7 0;
#X connect 6 0 22 0;
#X connect 6 1 23 1;
#X connect 7 0 11 0;
#X connect 8 0 7 1;
#X connect 11 0 9 0;
#X connect 12 0 13 0;
#X connect 14 0 17 0;
#X connect 14 1 17 0;
#X connect 15 1 14 0;
#X connect 16 0 15 0;
#X connect 16 1 23 0;
#X connect 19 0 0 0;
#X connect 23 0 12 0;
#X connect 24 0 25 0;
#X connect 24 1 6 0;
