#N canvas 0 30 762 722 10;
#X obj 6 479 outlet~;
#X obj 170 464 outlet~;
#X obj 228 420 s \$0-fromObj;
#X obj 161 19 inlet;
#X obj 229 18 r \$0-fromObj;
#X obj 42 219 sdPack set;
#X obj 42 242 s \$1;
#X obj 42 166 sdObjTrack length samples sample.index, f 15;
#X obj 341 468 outlet;
#X obj 510 148 t a a;
#X obj 174 64 sdObjState \$1 \$2 \$3;
#X obj 94 382 sdPlaySample~ \$4;
#X obj 560 328 sdObjGet \$1 length samples sample.index;
#X obj 696 305 print -n;
#X msg 696 281 \$2: connected \$1 -> \$2;
#X obj 545 222 sdUnPack;
#X obj 560 248 sdObjConnectTo \$1 \$1;
#X text 699 252 print info for the dumb user;
#X obj 545 199 sdObjTrack table;
#X obj 466 466 outlet;
#X obj 122 88 t a a, f 26;
#X obj 103 136 t a a;
#X obj 653 123 s \$0-events_rcv;
#X obj 653 75 sdPackFilter init;
#X obj 229 41 list;
#X obj 113 114 t a a;
#X msg 653 99 priv.set start stop;
#X obj 615 113 bng 15 250 50 0 empty empty empty 17 7 0 10 -262144
-1 -1;
#X obj 264 208 sdEventToProperties;
#X obj 238 308 s \$0-fromObj;
#X obj 238 285 sdPropertyList events \$0;
#X obj 264 231 t a a;
#X msg 59 36 list init 0;
#X obj 205 176 sdPackFilter start stop;
#X obj 116 220 sdEventToProperties;
#X obj 151 150 sdPackFilter info update;
#X obj 320 348 s \$0-fromObj;
#X obj 37 406 r \$0-enable-out;
#X obj 37 453 line~;
#X obj 37 430 pack 0 50;
#X obj 7 420 *~;
#X obj 320 310 sdProperty enable-out \$0 0 intern 0 1 1, f 21;
#X obj 415 19 s \$0-toProperties;
#X obj 313 250 r \$0-toProperties;
#X connect 3 0 10 0;
#X connect 4 0 24 0;
#X connect 5 0 6 0;
#X connect 7 0 5 0;
#X connect 9 0 18 0;
#X connect 9 1 8 0;
#X connect 10 0 20 0;
#X connect 10 1 42 0;
#X connect 10 2 9 0;
#X connect 11 0 40 0;
#X connect 11 1 1 0;
#X connect 11 2 2 0;
#X connect 14 0 13 0;
#X connect 15 0 16 0;
#X connect 16 0 12 0;
#X connect 16 1 14 0;
#X connect 18 0 15 0;
#X connect 20 0 25 0;
#X connect 20 1 19 0;
#X connect 21 0 7 0;
#X connect 21 1 35 0;
#X connect 23 0 26 0;
#X connect 23 0 27 0;
#X connect 24 0 10 1;
#X connect 25 0 21 0;
#X connect 25 1 23 0;
#X connect 26 0 22 0;
#X connect 28 0 31 0;
#X connect 28 1 30 0;
#X connect 30 0 29 0;
#X connect 30 1 41 0;
#X connect 31 0 11 0;
#X connect 31 1 30 0;
#X connect 32 0 10 0;
#X connect 33 0 34 0;
#X connect 33 1 28 0;
#X connect 34 0 11 0;
#X connect 35 1 33 0;
#X connect 37 0 39 0;
#X connect 38 0 40 1;
#X connect 39 0 38 0;
#X connect 40 0 0 0;
#X connect 41 0 36 0;
#X connect 41 1 11 0;
#X connect 43 0 30 0;
