#N canvas 0 30 798 854 10;
#X obj 69 15 inlet;
#X obj 73 334 outlet~;
#X obj 257 176 line~;
#X text 66 1 Player;
#X obj 334 333 outlet~;
#X obj 192 508 t b b b;
#X obj 227 417 r \$0-Start;
#X obj 68 98 s \$0-Start;
#X obj 116 74 s \$0-Stop;
#X obj 495 344 outlet;
#X text 294 354 Position in the sample;
#X text 72 360 AudioOut;
#X obj 345 583 r \$0-sample.length;
#X obj 69 47 route start stop;
#X obj 258 202 sdReadSample~ \$1 \$2;
#X obj 535 405 t b f;
#X obj 519 459 s \$0-sample.length;
#X obj 519 436 * 1;
#X floatatom 367 616 5 0 0 0 - - -;
#X floatatom 580 404 5 0 0 0 - - -;
#X obj 561 371 r \$0-sample.delta;
#X obj 395 91 t a a;
#X obj 468 370 r \$0-length;
#X obj 125 301 *~;
#X obj 196 324 line~;
#X obj 215 98 r \$0-pos;
#X obj 508 593 s \$0-vol;
#X obj 196 276 r \$0-vol;
#X obj 257 152 pack 0 50;
#X obj 196 301 pack 0 50;
#X obj 292 678 s \$0-pos;
#X obj 292 652 pack;
#X obj 723 516 r \$0-Stop;
#X obj 736 540 t b b b;
#X obj 812 596 s \$0-vol;
#X obj 681 733 s \$0-pos;
#X obj 591 519 r \$0-vol;
#X obj 591 542 print vol;
#X obj 105 796 s \$0-Stop;
#X obj 681 631 f;
#X obj 772 633 r \$0-sample.length;
#X floatatom 794 666 5 0 0 0 - - -;
#X floatatom 748 683 5 0 0 0 - - -;
#X msg 267 595 1;
#X obj 105 773 del;
#X obj 194 718 r \$0-sample.length;
#X floatatom 216 751 5 0 0 0 - - -;
#X msg 811 570 0 25;
#X obj 678 596 del 25;
#X obj 680 657 expr 25/$f1;
#X msg 508 568 1 25;
#X obj 327 620 - 25;
#X obj 176 755 - 50;
#X obj 227 440 t b b;
#X obj 260 472 s \$0-Stop;
#X obj 215 121 t a a;
#X msg 273 118 0.017 25;
#X obj 198 475 del 25;
#X msg 681 708 \$1 0;
#X text 690 497 turn down vol \, then jump to begin;
#X obj 646 188 sdProperty length \$0;
#X obj 433 117 sdProperty sample.leftPos \$0 0 intern;
#X obj 527 154 sdProperty sample.delta \$0 1 intern;
#X connect 0 0 13 0;
#X connect 2 0 14 0;
#X connect 5 0 44 0;
#X connect 5 1 43 0;
#X connect 5 2 50 0;
#X connect 6 0 53 0;
#X connect 12 0 18 0;
#X connect 12 0 51 0;
#X connect 13 0 7 0;
#X connect 13 1 8 0;
#X connect 13 2 21 0;
#X connect 14 0 23 0;
#X connect 14 1 4 0;
#X connect 14 2 9 0;
#X connect 15 0 17 0;
#X connect 15 1 17 1;
#X connect 17 0 16 0;
#X connect 20 0 19 0;
#X connect 20 0 15 0;
#X connect 21 0 14 1;
#X connect 21 1 61 0;
#X connect 22 0 17 0;
#X connect 23 0 1 0;
#X connect 24 0 23 1;
#X connect 25 0 55 0;
#X connect 27 0 29 0;
#X connect 28 0 2 0;
#X connect 29 0 24 0;
#X connect 31 0 30 0;
#X connect 32 0 33 0;
#X connect 33 1 48 0;
#X connect 33 2 47 0;
#X connect 39 0 49 0;
#X connect 40 0 41 0;
#X connect 40 0 39 1;
#X connect 43 0 31 0;
#X connect 44 0 38 0;
#X connect 45 0 46 0;
#X connect 45 0 52 0;
#X connect 47 0 34 0;
#X connect 48 0 39 0;
#X connect 49 0 42 0;
#X connect 49 0 58 0;
#X connect 50 0 26 0;
#X connect 51 0 31 1;
#X connect 52 0 44 1;
#X connect 53 0 57 0;
#X connect 53 1 54 0;
#X connect 55 0 28 0;
#X connect 56 0 28 0;
#X connect 57 0 5 0;
#X connect 58 0 35 0;
#X connect 60 0 9 0;
#X connect 61 1 62 0;
#X connect 62 1 60 0;
