#N canvas 0 30 681 722 10;
#X obj 559 686 outlet;
#X obj 26 693 outlet~;
#X obj 115 342 line~;
#X obj 481 12 inlet;
#X obj 232 328 unpack;
#X obj 181 309 t a a;
#X obj 530 477 r \$0-length;
#X floatatom 530 500 5 0 0 0 - - -;
#X obj 181 286 pack 0 500;
#X obj 224 429 sig~;
#X obj 115 391 s~ \$0-pos;
#X obj 225 475 s~ \$0-tapeSpeed;
#X obj 528 137 s \$0-tapeInput;
#X obj 559 663 r \$0-out;
#X obj 26 598 catch~ \$0-audioOut;
#X obj 544 107 t a a;
#X floatatom 530 550 5 0 0 0 - - -;
#X obj 530 527 r \$0-window.length;
#X obj 225 452 +~;
#X obj 206 381 - 0;
#X obj 200 351 t f f;
#X msg 38 55 start;
#X obj 26 621 *~;
#X obj 118 626 r~ \$0-volume;
#X obj 510 295 s~ \$0-volume;
#X obj 256 286 r \$0-delay;
#X obj 183 263 f;
#X obj 511 224 f;
#X obj 510 248 pack 0 500;
#X obj 585 248 r \$0-delay;
#X obj 510 271 line~;
#X obj 363 249 pack 0 500;
#X obj 438 249 r \$0-delay;
#X obj 365 226 f;
#X obj 363 272 line~;
#X obj 81 184 s \$0-nextRamp;
#X obj 129 220 r \$0-nextRamp;
#X obj 369 199 r \$0-nextRamp;
#X obj 499 189 r \$0-nextRamp;
#X floatatom 605 275 5 0 0 0 - - -;
#N canvas 0 30 681 722 defaultEnvelopes 0;
#X obj 62 14 inlet;
#X obj 158 285 outlet;
#X obj 158 191 sdPackFromHuman;
#X msg 53 52 list attack ( time ( 0 ) pos ( 0 ) volume ( 0 ) pitch
( 0 ) ) sustain ( time ( 0.1 ) pos ( 0.1 ) volume ( 1 ) pitch ( 0 )
) release ( time ( 0.9 ) pos ( 1 ) volume ( 1 ) pitch ( 0 ) ) end (
time ( 1 ) pos ( 1 ) volume ( 0 ) pitch ( 0 ) ) reset ( time ( 1 )
pos ( 0 ) );
#X obj 158 261 list trim;
#X obj 158 237 list prepend set sequence;
#X connect 0 0 3 0;
#X connect 2 0 5 0;
#X connect 3 0 2 0;
#X connect 4 0 1 0;
#X connect 5 0 4 0;
#X restore 128 40 pd defaultEnvelopes;
#X obj 133 12 bng 15 250 50 0 empty empty empty 17 7 0 10 -262144 -1
-1;
#X obj 153 12 loadbang;
#X floatatom 266 64 7 0 0 0 - - -;
#X obj 530 576 r \$0-sample.delta;
#X floatatom 530 599 5 0 0 0 - - -;
#X obj 347 52 r \$0-timeFactor;
#X obj 347 75 t b f;
#X obj 36 30 r \$0-start;
#X obj 307 101 *;
#X obj 363 296 s~ \$0-runtimePitch;
#X obj 303 409 r~ \$0-runtimePitch;
#X obj 118 649 *~ 0.6;
#N canvas 0 30 681 722 properties 0;
#X obj 53 28 inlet;
#X obj 267 405 outlet;
#X obj 291 209 sdProperty length \$0;
#X obj 319 269 sdProperty timeFactor \$0 1 intern 0 10;
#X connect 0 0 2 0;
#X connect 2 1 3 0;
#X connect 3 0 1 0;
#X restore 622 134 pd properties;
#X obj 622 157 s \$0-out;
#X obj 458 59 s \$0-start;
#X obj 435 692 outlet~;
#X obj 430 655 r~ \$0-pos;
#X obj 261 160 sdUnEvent pos pitch volume;
#X floatatom 384 119 5 0 0 0 - - -;
#X obj 478 108 s \$0-init;
#X obj 550 62 route init;
#X msg 478 85 init;
#X obj 26 456 sdSig2Num_ui~ -3 3;
#X obj 597 297 sdSig2Num_ui~ 0 1;
#X obj 298 27 r \$0-sample.length;
#X obj 207 242 * 0;
#X obj 230 224 r \$0-sample.length;
#X obj 208 407 expr -$f1/$f2;
#X msg 148 101 set speed \$1;
#X obj 142 71 r \$0-init;
#X obj 90 155 t b a;
#X obj 130 153 s \$0-delay;
#X obj 66 129 sdSeqPlayer;
#X obj 459 35 route start stop;
#X obj 183 550 sdReadGranular2~ \$1 0 0;
#X obj 183 576 throw~ \$0-audioOut;
#X obj 183 523 r~ \$0-pos;
#X obj 250 522 r~ \$0-tapeSpeed;
#X obj 358 519 r \$0-tapeInput;
#X obj 329 646 s \$0-out;
#X obj 329 576 t a a;
#X obj 356 600 route sample.length;
#X obj 356 623 s \$0-sample.length;
#X connect 2 0 10 0;
#X connect 3 0 74 0;
#X connect 4 0 20 0;
#X connect 4 1 68 1;
#X connect 5 0 2 0;
#X connect 5 1 4 0;
#X connect 6 0 7 0;
#X connect 8 0 5 0;
#X connect 9 0 18 0;
#X connect 13 0 0 0;
#X connect 14 0 22 0;
#X connect 15 0 12 0;
#X connect 15 1 53 0;
#X connect 17 0 16 0;
#X connect 18 0 63 0;
#X connect 18 0 11 0;
#X connect 19 0 68 0;
#X connect 20 0 19 1;
#X connect 20 1 19 0;
#X connect 21 0 73 0;
#X connect 22 0 1 0;
#X connect 23 0 52 0;
#X connect 25 0 8 1;
#X connect 26 0 8 0;
#X connect 27 0 28 0;
#X connect 28 0 30 0;
#X connect 29 0 28 1;
#X connect 29 0 39 0;
#X connect 30 0 24 0;
#X connect 30 0 64 0;
#X connect 31 0 34 0;
#X connect 32 0 31 1;
#X connect 33 0 31 0;
#X connect 34 0 50 0;
#X connect 36 0 26 0;
#X connect 37 0 33 0;
#X connect 38 0 27 0;
#X connect 40 0 73 0;
#X connect 41 0 40 0;
#X connect 42 0 40 0;
#X connect 44 0 45 0;
#X connect 46 0 47 0;
#X connect 47 0 49 0;
#X connect 47 1 49 1;
#X connect 48 0 21 0;
#X connect 49 0 59 0;
#X connect 49 0 69 0;
#X connect 51 0 18 1;
#X connect 52 0 22 1;
#X connect 53 0 54 0;
#X connect 57 0 56 0;
#X connect 58 0 66 0;
#X connect 58 1 33 1;
#X connect 58 2 27 1;
#X connect 61 0 62 0;
#X connect 61 1 15 0;
#X connect 62 0 60 0;
#X connect 62 0 15 0;
#X connect 65 0 49 0;
#X connect 65 0 43 0;
#X connect 66 0 26 1;
#X connect 67 0 66 1;
#X connect 68 0 9 0;
#X connect 69 0 73 0;
#X connect 70 0 73 0;
#X connect 71 0 35 0;
#X connect 71 1 58 0;
#X connect 73 1 71 0;
#X connect 73 2 72 0;
#X connect 74 0 55 0;
#X connect 74 2 61 0;
#X connect 75 0 76 0;
#X connect 75 1 81 0;
#X connect 77 0 75 0;
#X connect 78 0 75 1;
#X connect 79 0 75 2;
#X connect 81 0 80 0;
#X connect 81 1 82 0;
#X connect 82 0 83 0;
