#N canvas 0 30 894 854 10;
#X obj 69 322 throw~ out;
#X obj 102 143 tgl 15 0 empty empty output~ 17 7 0 10 -262144 -1 -1
1 1;
#X obj 69 291 *~;
#X obj 84 268 line~;
#X obj 84 245 pack 0 50;
#X obj 483 218 loadbang;
#X msg 483 241 1;
#X obj 158 122 hsl 128 15 0 1 0 0 empty empty empty -2 -8 0 10 -1 -262144
-1 12500 1;
#X obj 444 192 line;
#X obj 444 169 pack 0 100;
#X obj 166 142 bng 15 250 50 0 \$0-tab1 empty tab1 17 7 0 10 -262144
-1 -1;
#X obj 210 143 bng 15 250 50 0 \$0-tab2 empty tab2 17 7 0 10 -262144
-1 -1;
#X msg 301 36 raw set table tab1;
#X obj 301 13 r \$0-tab1;
#X obj 427 13 r \$0-tab2;
#X msg 427 36 raw set table tab2;
#X obj 69 64 sdReadTableObj~ \$1 \$2 \$3;
#X obj 81 31 sdNum2Sig~ 400;
#X obj 479 88 sdObjTrack length;
#X obj 444 146 *;
#X obj 479 112 sdUnPack;
#X floatatom 489 141 5 0 0 0 - - -;
#X connect 1 0 4 0;
#X connect 2 0 0 0;
#X connect 3 0 2 1;
#X connect 4 0 3 0;
#X connect 5 0 6 0;
#X connect 6 0 1 0;
#X connect 7 0 19 0;
#X connect 8 0 17 0;
#X connect 9 0 8 0;
#X connect 12 0 16 1;
#X connect 13 0 12 0;
#X connect 14 0 15 0;
#X connect 15 0 16 1;
#X connect 16 0 2 0;
#X connect 16 1 18 0;
#X connect 17 0 16 0;
#X connect 18 0 20 0;
#X connect 19 0 9 0;
#X connect 20 0 19 1;
#X connect 20 0 21 0;
#X coords 0 -1 1 1 230 60 1 100 100;
