#N canvas 0 30 844 722 10;
#X obj 97 422 throw~ out;
#X obj 12 73 tgl 15 0 \$0-output \$0-output_rcv output~ 17 7 0 10 -262144
-1 -1 1 1;
#X obj 97 391 *~;
#X obj 134 382 line~;
#X obj 134 359 pack 0 50;
#X obj 451 552 loadbang;
#X msg 451 575 1;
#X obj 78 73 hsl 128 15 0 1 0 0 \$0-input_pos \$0-input_pos_rcv empty
-2 -8 0 10 -1 -262144 -1 0 1;
#X obj 133 331 r \$0-output;
#X obj 451 598 s \$0-output_rcv;
#X obj 22 37 hradio 15 1 0 3 \$0-tab \$0-tab_rcv empty 0 -8 0 10 -262144
-1 -1 2;
#X symbolatom 22 54 10 0 0 0 - #0-tabname_rcv -;
#X obj 198 26 tgl 10 0 \$0-print_msgs empty empty 12 5 0 10 -262144
-1 -1 1 1;
#X text 138 22 prnt msgs;
#X text 13 22 tables;
#X obj 264 408 r \$0-print_msgs;
#X obj 231 431 sdGate;
#X obj 231 454 print \$1.out;
#X obj 384 320 r \$0-print_msgs;
#X obj 351 343 sdGate;
#X obj 351 366 print \$1.in;
#X obj 291 318 t a a;
#X obj 218 405 t a a;
#N canvas 0 30 844 722 read_pos 0;
#X obj 157 219 line;
#X obj 157 196 pack 0 100;
#X obj 157 241 sdNum2Sig~ 400;
#X obj 157 173 *;
#X obj 47 26 inlet;
#X obj 138 30 inlet;
#X obj 157 264 outlet~;
#X connect 0 0 2 0;
#X connect 1 0 0 0;
#X connect 2 0 6 0;
#X connect 3 0 1 0;
#X connect 4 0 3 0;
#X connect 5 0 3 1;
#X restore 143 243 pd read_pos;
#X obj 159 196 r \$0-input_pos;
#X obj 174 218 r \$0-length;
#X obj 631 366 sdPack table;
#X obj 631 389 sdPack set;
#X obj 701 89 sdObjListAll \$3;
#X obj 701 112 s \$0-tablist;
#X obj 649 157 r \$0-tablist;
#X obj 700 228 sdSetSelector set;
#X obj 649 210 t b l;
#X obj 674 258 sdList get count;
#X msg 762 293 number \$1;
#X obj 762 316 s \$0-tab_rcv;
#X msg 638 233 count;
#X msg 540 232 get \$1;
#X obj 554 182 r \$0-tab;
#X obj 645 294 t s s;
#X obj 708 340 s \$0-tabname_rcv;
#X obj 701 43 sdPackFilter init;
#X obj 701 66 t b;
#X obj 631 412 s \$1;
#X obj 554 208 f;
#X obj 649 180 t b l;
#X obj 701 20 r GLOBAL;
#X obj 145 274 sdReadTableObj~ \$1 \$2;
#X floatatom 45 304 5 0 0 0 - - -;
#X obj 46 271 env~;
#X obj 483 460 sdObjTrack length;
#X obj 483 483 sdUnPack;
#X floatatom 456 523 5 0 0 0 - - -;
#X obj 483 506 s \$0-length;
#X obj 303 537 sdUnPack;
#X obj 303 514 sdPackFilter set_pos;
#X obj 303 560 sdUnPack;
#X obj 303 583 s \$0-input_pos;
#X floatatom 239 576 5 0 0 0 - - -;
#X obj 119 633 s \$0-input_pos_rcv;
#X msg 123 607 set \$1;
#X connect 2 0 0 0;
#X connect 3 0 2 1;
#X connect 4 0 3 0;
#X connect 5 0 6 0;
#X connect 6 0 9 0;
#X connect 8 0 4 0;
#X connect 15 0 16 1;
#X connect 16 0 17 0;
#X connect 18 0 19 1;
#X connect 19 0 20 0;
#X connect 21 0 50 0;
#X connect 21 0 55 0;
#X connect 21 1 19 0;
#X connect 22 1 16 0;
#X connect 23 0 47 0;
#X connect 23 0 49 0;
#X connect 24 0 23 0;
#X connect 25 0 23 1;
#X connect 26 0 27 0;
#X connect 27 0 43 0;
#X connect 28 0 29 0;
#X connect 30 0 45 0;
#X connect 31 0 33 0;
#X connect 32 0 36 0;
#X connect 32 1 31 0;
#X connect 33 0 39 0;
#X connect 33 1 34 0;
#X connect 34 0 35 0;
#X connect 36 0 33 0;
#X connect 37 0 33 0;
#X connect 38 0 44 0;
#X connect 39 0 26 0;
#X connect 39 1 40 0;
#X connect 41 0 42 0;
#X connect 42 0 28 0;
#X connect 44 0 37 0;
#X connect 45 0 44 0;
#X connect 45 1 32 0;
#X connect 46 0 41 0;
#X connect 47 0 2 0;
#X connect 47 1 22 0;
#X connect 47 2 21 0;
#X connect 49 0 48 0;
#X connect 50 0 51 0;
#X connect 51 0 52 0;
#X connect 51 0 53 0;
#X connect 54 0 56 0;
#X connect 55 0 54 0;
#X connect 56 0 57 0;
#X connect 56 0 58 0;
#X connect 56 0 60 0;
#X connect 60 0 59 0;
#X coords 0 -1 1 1 200 80 1 10 10;
