#N canvas 0 30 894 854 10;
#X obj 325 26 inlet;
#X symbolatom 242 353 10 0 0 0 - - -;
#X floatatom 366 353 6 0 0 0 - - -;
#X obj 523 385 outlet;
#X text 39 15 position in table \, 0..1;
#X text 320 9 Messages;
#X obj 366 332 r \$0-size;
#X obj 42 65 wrap~;
#X obj 73 106 *~ 0;
#X obj 75 197 +~ 1;
#X obj 40 34 inlet~;
#X obj 58 375 outlet~;
#X obj 140 180 r \$0-table;
#X obj 240 331 r \$0-table;
#X obj 93 82 r \$0-size;
#X obj 733 82 float \$2;
#X obj 733 106 s \$0-size;
#X obj 733 58 loadbang;
#X msg 140 223 set \$1.array;
#X text 522 405 out;
#X obj 325 49 t a a;
#X obj 119 262 tabread4~ \$1.array;
#X obj 596 203 sdProperty size \$0 \$2;
#X obj 437 179 sdPropertySym table \$0 \$1 update;
#X connect 0 0 20 0;
#X connect 6 0 2 0;
#X connect 7 0 8 0;
#X connect 8 0 9 0;
#X connect 9 0 21 0;
#X connect 10 0 7 0;
#X connect 12 0 18 0;
#X connect 13 0 1 0;
#X connect 14 0 8 1;
#X connect 15 0 16 0;
#X connect 17 0 15 0;
#X connect 18 0 21 0;
#X connect 20 1 23 0;
#X connect 21 0 11 0;
#X connect 22 0 3 0;
#X connect 23 0 3 0;
#X connect 23 1 22 0;
