#N canvas 0 30 721 722 10;
#X obj 143 303 throw~ out;
#X obj 12 73 tgl 15 0 \$0-output \$0-output_rcv output~ 17 7 0 10 -262144
-1 -1 0 1;
#X obj 78 96 hsl 128 15 0 1 0 0 \$0-input_pos \$0-input_pos_rcv empty
-2 -8 0 10 -1 -262144 -1 0 1;
#X obj 22 37 hradio 15 1 0 2 \$0-tab \$0-tab_rcv empty 0 -8 0 10 -262144
-1 -1 0;
#X symbolatom 22 54 10 0 0 0 - #0-tabname_rcv -;
#X obj 198 26 tgl 10 0 \$0-print_msgs empty empty 12 5 0 10 -262144
-1 -1 0 1;
#X text 138 22 prnt msgs;
#X text 13 22 tables;
#X obj 425 394 r \$0-print_msgs;
#X obj 392 417 sdGate;
#X obj 392 440 print \$1.out;
#X obj 414 309 r \$0-print_msgs;
#X obj 381 332 sdGate;
#X obj 381 355 print \$1.in;
#X obj 374 307 t a a;
#X obj 353 396 t a a;
#X obj 631 366 sdPack table;
#X obj 631 389 sdPack set;
#X obj 701 89 sdObjListAll \$3;
#X obj 701 112 s \$0-tablist;
#X obj 649 157 r \$0-tablist;
#X obj 700 228 sdSetSelector set;
#X obj 649 210 t b l;
#X obj 674 258 sdList get count;
#X msg 762 293 number \$1;
#X obj 762 316 s \$0-tab_rcv;
#X msg 638 233 count;
#X msg 540 232 get \$1;
#X obj 554 182 r \$0-tab;
#X obj 645 294 t s s;
#X obj 708 340 s \$0-tabname_rcv;
#X obj 701 43 sdPackFilter init;
#X obj 701 66 t b;
#X obj 631 412 s \$1;
#X obj 554 208 f;
#X obj 649 180 t b l;
#X obj 701 20 r GLOBAL;
#X obj 274 535 sdUnPack;
#X floatatom 247 575 5 0 0 0 - - -;
#X obj 274 558 s \$0-length;
#X obj 87 56 hradio 15 1 0 1 \$0-sample \$0-sample_rcv empty 0 -8 0
10 -262144 -1 -1 1;
#X obj 472 43 r \$0-sample;
#X obj 472 66 sdPack sample.index;
#X obj 472 89 sdPack set;
#X obj 472 112 s \$1;
#X text 80 39 sample;
#X obj 431 537 s \$0-sample_rcv;
#N canvas 0 30 762 722 track 0;
#X obj 97 24 inlet;
#X obj 261 464 outlet;
#X obj 103 100 sdObjTrack samples;
#X obj 103 145 t a b;
#X msg 186 196 clear;
#X obj 131 244 sdData;
#X obj 82 176 t b a;
#X obj 131 222 sdSetSelector set;
#X msg 65 204 count;
#X obj 103 123 sdUnPack;
#X msg 131 267 number \$1;
#X obj 355 103 sdObjTrack sample.index;
#X obj 355 126 sdUnPack;
#X obj 355 163 sdSetSelector set;
#X connect 0 0 2 0;
#X connect 0 0 11 0;
#X connect 2 0 9 0;
#X connect 3 0 6 0;
#X connect 3 1 4 0;
#X connect 4 0 5 0;
#X connect 5 0 10 0;
#X connect 6 0 8 0;
#X connect 6 1 7 0;
#X connect 7 0 5 0;
#X connect 8 0 5 0;
#X connect 9 0 3 0;
#X connect 10 0 1 0;
#X connect 11 0 12 0;
#X connect 12 0 13 0;
#X connect 13 0 1 0;
#X restore 430 512 pd track samples;
#X floatatom 207 222 5 0 0 0 - - -;
#X obj 68 670 s \$0-input_pos_rcv;
#X msg 72 644 set \$1;
#X obj 47 529 sdUnPack;
#X floatatom 47 552 5 0 0 0 - - -;
#X obj 83 617 / 1;
#X obj 148 556 r \$0-length;
#X obj 148 579 t b f;
#X obj 248 475 t a a;
#X floatatom 170 613 5 0 0 0 - - -;
#X floatatom 128 645 5 0 0 0 - - -;
#X obj 78 75 hsl 128 15 0 1 0 0 \$0-sample_pos \$0-sample_pos_rcv empty
-2 -8 0 10 -1 -262144 -1 0 1;
#X obj 247 200 r \$0-sample_pos;
#X msg 247 223 list set_in_range 3 sample.pos 1 \$1;
#X obj 47 506 sdObjTrack sample.pos;
#X obj 274 512 sdObjTrack sample.length;
#X obj 294 618 sdUnPack;
#X obj 294 595 sdObjTrack enable-out;
#X msg 294 642 set \$1;
#X obj 294 665 s \$0-output_rcv;
#X obj 217 150 r \$0-output;
#X msg 216 174 list set 3 enable-out 1 \$1;
#X obj 145 274 sdReadSampleWithPos_obj~ \$1 \$2;
#X connect 8 0 9 1;
#X connect 9 0 10 0;
#X connect 11 0 12 1;
#X connect 12 0 13 0;
#X connect 14 1 12 0;
#X connect 15 0 47 0;
#X connect 15 0 56 0;
#X connect 15 1 9 0;
#X connect 16 0 17 0;
#X connect 17 0 33 0;
#X connect 18 0 19 0;
#X connect 20 0 35 0;
#X connect 21 0 23 0;
#X connect 22 0 26 0;
#X connect 22 1 21 0;
#X connect 23 0 29 0;
#X connect 23 1 24 0;
#X connect 24 0 25 0;
#X connect 26 0 23 0;
#X connect 27 0 23 0;
#X connect 28 0 34 0;
#X connect 29 0 16 0;
#X connect 29 1 30 0;
#X connect 31 0 32 0;
#X connect 32 0 18 0;
#X connect 34 0 27 0;
#X connect 35 0 34 0;
#X connect 35 1 22 0;
#X connect 36 0 31 0;
#X connect 37 0 38 0;
#X connect 37 0 39 0;
#X connect 41 0 42 0;
#X connect 42 0 43 0;
#X connect 43 0 44 0;
#X connect 47 0 46 0;
#X connect 50 0 49 0;
#X connect 51 0 52 0;
#X connect 51 0 53 0;
#X connect 53 0 50 0;
#X connect 53 0 58 0;
#X connect 54 0 55 0;
#X connect 55 0 53 0;
#X connect 55 1 53 1;
#X connect 55 1 57 0;
#X connect 56 0 62 0;
#X connect 56 1 63 0;
#X connect 56 1 65 0;
#X connect 60 0 61 0;
#X connect 60 0 48 0;
#X connect 61 0 70 1;
#X connect 62 0 51 0;
#X connect 63 0 37 0;
#X connect 64 0 66 0;
#X connect 65 0 64 0;
#X connect 66 0 67 0;
#X connect 68 0 69 0;
#X connect 69 0 70 1;
#X connect 70 0 0 0;
#X connect 70 2 15 0;
#X connect 70 3 14 0;
#X coords 0 -1 1 1 200 105 1 10 10;
