#N canvas 0 30 681 722 10;
#X obj 491 601 outlet;
#X obj 26 600 outlet~;
#X obj 342 7 inlet;
#X obj 86 316 r~ \$0-pos;
#X obj 153 288 r~ \$0-tapeSpeed;
#X obj 211 314 r \$0-tapeInput;
#X obj 464 125 s \$0-tapeInput;
#X obj 292 431 s \$0-out;
#X obj 491 578 r \$0-out;
#X obj 54 362 throw~ \$0-audioOut;
#X obj 26 505 catch~ \$0-audioOut;
#X obj 480 95 t a a;
#X floatatom 137 177 5 0 0 0 - - -;
#X obj 137 154 r \$0-window.length;
#X obj 170 386 s~ \$0-phase1;
#X obj 467 300 r~ \$0-pos;
#X obj 605 304 r \$0-tapeInput;
#X obj 433 353 throw~ \$0-audioOut;
#X obj 549 377 s~ \$0-phase2;
#X obj 340 502 -~;
#X obj 137 203 r \$0-sample.delta;
#X floatatom 137 226 5 0 0 0 - - -;
#N canvas 0 30 681 722 properties 0;
#X obj 53 28 inlet;
#X obj 118 229 outlet;
#X obj 170 104 sdProperty pitchFactor \$0 0 intern -1 1;
#X connect 0 0 2 0;
#X connect 2 0 1 0;
#X restore 562 122 pd properties;
#X obj 562 145 s \$0-out;
#X obj 378 102 s \$0-init;
#X obj 380 52 route init;
#X msg 378 79 init;
#X obj 340 525 sdSig2Num_ui~ -1 1;
#X obj 280 361 t a a;
#X obj 312 388 route sample.length;
#X obj 312 411 s \$0-sample.length;
#X obj 44 25 inlet~;
#X obj 44 50 s~ \$0-pos;
#X obj 346 218 r \$0-pitchFactor;
#X obj 320 268 s~ \$0-tapeSpeed;
#X obj 103 338 sdReadGranular~ \$1 \$2 0;
#X obj 482 329 sdReadGranular~ \$1 \$2 0.5;
#X obj 165 25 inlet~;
#X obj 318 242 +~ 0;
#X obj 551 276 r~ \$0-tapeSpeed;
#X connect 2 0 25 0;
#X connect 3 0 35 0;
#X connect 4 0 35 1;
#X connect 5 0 35 2;
#X connect 8 0 0 0;
#X connect 10 0 1 0;
#X connect 11 0 6 0;
#X connect 11 1 22 0;
#X connect 13 0 12 0;
#X connect 15 0 36 0;
#X connect 16 0 36 2;
#X connect 19 0 27 0;
#X connect 20 0 21 0;
#X connect 22 0 23 0;
#X connect 25 0 26 0;
#X connect 25 1 11 0;
#X connect 26 0 24 0;
#X connect 26 0 11 0;
#X connect 28 0 7 0;
#X connect 28 1 29 0;
#X connect 29 0 30 0;
#X connect 31 0 32 0;
#X connect 33 0 38 1;
#X connect 35 0 9 0;
#X connect 35 2 14 0;
#X connect 35 2 19 0;
#X connect 35 3 28 0;
#X connect 36 0 17 0;
#X connect 36 2 18 0;
#X connect 36 2 19 1;
#X connect 37 0 38 0;
#X connect 38 0 34 0;
#X connect 39 0 36 1;
