#N canvas 0 30 803 722 10;
#X obj 24 48 inlet~;
#X obj 260 51 inlet;
#X obj 67 295 outlet~;
#X obj 152 296 outlet~;
#X obj 228 278 s \$0-fromObj;
#X obj 355 37 r \$0-fromObj;
#X obj 224 255 list;
#X obj 121 161 sdPack set;
#X obj 121 184 s \$1;
#X obj 271 196 sdEventToProperties;
#X obj 208 172 sdPackFilter info update;
#X obj 180 95 t a a;
#X obj 121 138 sdObjTrack length samples sample.index;
#X obj 523 196 sdObjGet \$1 length samples sample.index;
#X obj 368 291 outlet;
#X obj 440 121 t a a;
#X obj 682 160 print -n;
#X msg 682 136 \$2: connected \$1 -> \$2;
#X obj 531 77 sdUnPack;
#X obj 546 103 sdObjConnectTo \$1 \$1;
#X text 685 107 print info for the dumb user;
#X obj 531 54 sdObjTrack table;
#X obj 513 290 outlet;
#X text 360 313 out;
#X text 508 314 in;
#X obj 193 72 t a a;
#X obj 260 75 sdObjState \$1 \$2 \$3;
#X obj 117 233 sdReadSample~ \$4;
#X connect 0 0 27 0;
#X connect 1 0 26 0;
#X connect 5 0 26 1;
#X connect 6 0 4 0;
#X connect 7 0 8 0;
#X connect 9 1 27 1;
#X connect 10 1 9 0;
#X connect 11 0 10 0;
#X connect 11 1 12 0;
#X connect 12 0 7 0;
#X connect 15 0 14 0;
#X connect 15 1 21 0;
#X connect 17 0 16 0;
#X connect 18 0 19 0;
#X connect 19 0 13 0;
#X connect 19 1 17 0;
#X connect 21 0 18 0;
#X connect 25 0 11 0;
#X connect 25 1 22 0;
#X connect 26 0 25 0;
#X connect 26 1 27 1;
#X connect 26 2 15 0;
#X connect 27 0 2 0;
#X connect 27 1 3 0;
#X connect 27 2 6 0;
