#N canvas 0 30 844 722 10;
#X obj 30 50 inlet~;
#X obj 248 19 inlet;
#X obj 17 397 outlet~;
#X obj 266 268 bng 15 250 50 0 empty empty empty 17 7 0 10 -262144
-1 -1;
#X obj 281 392 s \$0-fromObj;
#X obj 302 41 r \$0-fromObj;
#X msg 266 288 set table tab1;
#X obj 281 369 list;
#X obj 81 187 sdPack set;
#X obj 81 210 s \$1;
#X obj 313 193 sdEventToProperties;
#X obj 203 165 sdPackFilter info update;
#X obj 81 164 sdObjTrack length;
#X obj 412 412 outlet;
#X obj 440 121 t a a;
#X obj 699 280 print -n;
#X msg 699 256 \$2: connected \$1 -> \$2;
#X obj 548 197 sdUnPack;
#X obj 563 223 sdObjConnectTo \$1 \$1;
#X text 702 227 print info for the dumb user;
#X obj 548 174 sdObjTrack table;
#X obj 503 249 sdObjGet \$1 length;
#X obj 132 96 t a a;
#X obj 61 131 sdPackFilter init;
#X obj 253 65 sdObjState \$1 \$2 \$3;
#X obj 75 301 sdReadTable~ \$4;
#X text 397 436 out;
#X obj 606 415 outlet;
#X text 591 439 in;
#X obj 175 69 t a a;
#X connect 0 0 25 0;
#X connect 1 0 24 0;
#X connect 3 0 6 0;
#X connect 5 0 24 1;
#X connect 6 0 25 1;
#X connect 7 0 4 0;
#X connect 8 0 9 0;
#X connect 10 1 25 1;
#X connect 11 1 10 0;
#X connect 12 0 8 0;
#X connect 14 0 13 0;
#X connect 14 1 20 0;
#X connect 16 0 15 0;
#X connect 17 0 18 0;
#X connect 18 0 21 0;
#X connect 18 1 16 0;
#X connect 20 0 17 0;
#X connect 22 0 23 0;
#X connect 22 1 11 0;
#X connect 23 1 12 0;
#X connect 24 0 29 0;
#X connect 24 1 25 1;
#X connect 24 2 14 0;
#X connect 25 0 2 0;
#X connect 25 1 7 0;
#X connect 29 0 22 0;
#X connect 29 1 27 0;
