#N canvas 0 30 762 722 10;
#X obj 325 26 inlet;
#X symbolatom 220 349 10 0 0 0 - - -;
#X floatatom 290 348 6 0 0 0 - - -;
#X obj 410 369 outlet;
#X text 320 9 Messages;
#X obj 59 230 wrap~;
#X obj 59 279 +~ 1;
#X obj 40 34 inlet~;
#X obj 58 375 outlet~;
#X obj 71 303 r \$0-table;
#X obj 218 327 r \$0-table;
#X obj 733 82 float \$2;
#X obj 733 58 loadbang;
#X msg 71 326 set \$1.array;
#X text 409 389 out;
#X obj 325 49 t a a;
#X obj 392 227 sdPropertySym table \$0 \$1 update;
#X obj 520 300 sdProperty length \$0 \$2;
#X obj 733 106 s \$0-length;
#X obj 290 327 r \$0-length;
#X obj 58 203 /~ 1;
#X obj 79 179 r \$0-length;
#X obj 59 254 *~ 1;
#X obj 106 229 sdSizeFromLength;
#X obj 106 205 r \$0-length;
#X text 39 15 position in table \, 0...length (ms);
#X obj 59 350 tabread4~;
#X obj 356 84 route init, f 29;
#X obj 356 107 t b b;
#X obj 383 130 symbol \$1;
#X obj 383 153 sdSymbolIsEq;
#X obj 353 180 sdGate;
#X msg 386 203 init;
#X text 411 63 only init if \$1!="";
#X obj 533 254 sdProperty pos \$0 0 intern 0 0, f 18;
#X obj 556 165 r \$0-length;
#X obj 101 38 r \$0-pos;
#X obj 59 153 +~;
#X msg 556 188 set_max pos \$1;
#X obj 537 329 sdProperty ramp_time \$0 400 intern 0 1000, f 21;
#X floatatom 215 399 6 0 0 0 - - -;
#X obj 215 378 r \$0-pos;
#X obj 101 83 line;
#X obj 161 36 r \$0-ramp_time;
#X obj 101 106 sdNum2Sig~ 40;
#X obj 101 60 pack 0 500;
#X connect 0 0 15 0;
#X connect 5 0 22 0;
#X connect 6 0 26 0;
#X connect 7 0 37 0;
#X connect 9 0 13 0;
#X connect 10 0 1 0;
#X connect 11 0 18 0;
#X connect 12 0 11 0;
#X connect 13 0 26 0;
#X connect 15 1 27 0;
#X connect 16 0 3 0;
#X connect 16 1 34 0;
#X connect 17 0 3 0;
#X connect 17 1 39 0;
#X connect 19 0 2 0;
#X connect 20 0 5 0;
#X connect 21 0 20 1;
#X connect 22 0 6 0;
#X connect 23 0 22 1;
#X connect 24 0 23 0;
#X connect 26 0 8 0;
#X connect 27 0 28 0;
#X connect 27 1 16 0;
#X connect 28 0 31 0;
#X connect 28 1 29 0;
#X connect 29 0 30 0;
#X connect 30 0 31 1;
#X connect 31 1 32 0;
#X connect 32 0 16 0;
#X connect 34 0 3 0;
#X connect 34 1 17 0;
#X connect 35 0 38 0;
#X connect 36 0 45 0;
#X connect 37 0 20 0;
#X connect 38 0 34 0;
#X connect 39 0 3 0;
#X connect 41 0 40 0;
#X connect 42 0 44 0;
#X connect 43 0 45 1;
#X connect 44 0 37 1;
#X connect 45 0 42 0;
