#N canvas 0 30 846 854 10;
#X obj 365 20 inlet;
#X obj 92 25 r \$0-sample.delta;
#X obj 96 71 r \$0-sample.leftPos;
#X obj 268 97 s \$0-redir;
#X obj 226 128 r \$0-redir;
#X obj 312 244 outlet;
#X floatatom 126 330 5 0 0 0 - - -;
#X floatatom 257 330 5 0 0 0 - - -;
#X obj 257 308 r \$0-sample.delta;
#X obj 427 128 s \$0-out;
#X obj 359 198 r \$0-out;
#X obj 127 307 r \$0-sample.leftPos;
#X obj 64 307 r \$0-size;
#X floatatom 64 329 5 0 0 0 - - -;
#X text 477 217 delta = rightPos - leftPos;
#X text 471 166 \$1: name of the table \; \$2: size of the table \;
;
#X obj 21 17 inlet~;
#X obj 53 240 outlet~;
#X obj 124 156 sdReadTable~ \$1 \$2;
#X text 308 266 out;
#X obj 163 242 outlet~;
#X obj 354 55 t a a;
#X obj 50 79 *~;
#X obj 70 121 +~;
#X obj 408 57 sdProperty sample.leftPos \$0 0;
#X obj 486 362 loadbang;
#X obj 486 424 \$0;
#X obj 545 403 bng 15 250 50 0 empty empty empty 17 7 0 10 -262144
-1 -1;
#X msg 486 447 \; \$1-sample.leftPos_rcv set 0 \; \$1-sample.delta_rcv
set 1 \;;
#X obj 572 81 sdProperty sample.delta \$0 1 intern;
#X obj 92 48 sdNum2Sig~;
#X obj 96 94 sdNum2Sig~;
#X connect 0 0 21 0;
#X connect 1 0 30 0;
#X connect 2 0 31 0;
#X connect 4 0 18 1;
#X connect 8 0 7 0;
#X connect 10 0 5 0;
#X connect 11 0 6 0;
#X connect 12 0 13 0;
#X connect 16 0 22 0;
#X connect 18 0 17 0;
#X connect 18 1 5 0;
#X connect 21 0 3 0;
#X connect 21 1 24 0;
#X connect 22 0 23 0;
#X connect 23 0 20 0;
#X connect 23 0 18 0;
#X connect 24 0 9 0;
#X connect 24 1 29 0;
#X connect 26 0 28 0;
#X connect 27 0 26 0;
#X connect 29 0 9 0;
#X connect 30 0 22 1;
#X connect 31 0 23 1;
