#N canvas 0 30 681 722 10;
#X obj 376 19 inlet;
#X obj 300 83 s \$0-redir;
#X obj 254 268 r \$0-redir;
#X obj 335 385 outlet;
#X floatatom 115 469 5 0 0 0 - - -;
#X floatatom 246 469 6 0 0 0 - - -;
#X obj 429 191 s \$0-out;
#X obj 351 359 r \$0-out;
#X floatatom 30 467 6 0 0 0 - - -;
#X text 545 49 delta = rightPos - leftPos;
#X text 536 20 \$1: name of the table \; \$2: size of the table \;
;
#X obj 24 20 inlet~;
#X obj 76 381 outlet~;
#X text 331 407 out;
#X obj 186 383 outlet~;
#X obj 376 42 t a a;
#X obj 460 170 sdPropertyList samples \$0;
#X obj 30 505 r \$0-sample.index;
#X floatatom 30 528 5 0 0 0 - - -;
#X obj 40 593 r \$0-samples;
#X obj 275 317 t a a;
#X obj 456 659 s \$0-out;
#X obj 339 299 route length;
#X obj 339 321 s \$0-length;
#X obj 558 397 t b b;
#X msg 558 451 0;
#X obj 593 432 f 0;
#X obj 608 408 r \$0-length;
#X obj 30 445 r \$0-length;
#X obj 456 538 s \$0-sample.begin;
#X obj 456 565 r \$0-sample.begin;
#X msg 456 588 sample.begin \$1;
#X obj 90 124 r \$0-sample.begin;
#X obj 117 446 r \$0-sample.begin;
#X msg 482 633 sample.length \$1;
#X obj 456 385 sdUnEvent begin length, f 12;
#X obj 491 515 s \$0-sample.length;
#X obj 164 152 r \$0-sample.length;
#X obj 246 447 r \$0-sample.length;
#X obj 593 455 s \$0-sample.length;
#X obj 559 479 s \$0-sample.begin;
#X obj 482 610 r \$0-sample.length;
#X floatatom 181 179 6 0 0 0 - - -;
#X floatatom 100 151 5 0 0 0 - - -;
#X obj 23 189 expr~ fmod($v1 \, $f3)+$f2;
#X obj 40 665 textfile;
#X obj 40 643 sdSetSelector add;
#X obj 40 617 t a b;
#X msg 163 644 clear;
#X obj 456 287 r \$0-sample.index;
#X obj 549 311 r \$0-samples;
#N canvas 0 30 681 722 unpack 0;
#X obj 32 47 inlet;
#X obj 392 44 inlet;
#X obj 20 535 outlet;
#X text 27 14 index;
#X text 375 16 data;
#X obj 293 552 outlet;
#X obj 196 265 sdData get count;
#X msg 201 227 get \$1;
#X obj 364 227 sdSetSelector set;
#X obj 324 103 t b a;
#X obj 203 201 f;
#X obj 491 558 outlet;
#X obj 206 175 t a b;
#X msg 267 227 count;
#X obj 286 122 t b b;
#X connect 0 0 12 0;
#X connect 1 0 9 0;
#X connect 6 0 2 0;
#X connect 6 1 11 0;
#X connect 7 0 6 0;
#X connect 8 0 6 0;
#X connect 9 0 14 0;
#X connect 9 1 8 0;
#X connect 10 0 7 0;
#X connect 12 0 10 0;
#X connect 12 1 5 0;
#X connect 13 0 6 0;
#X connect 14 0 12 0;
#X connect 14 1 13 0;
#X restore 456 361 pd unpack sample;
#X msg 618 357 priv.set_max \$1;
#X obj 618 380 s \$0-sample.index_rcv;
#X obj 618 334 - 1;
#X obj 431 147 sdProperty sample.index \$0 0 intern 0 0 1;
#X obj 147 297 sdTabReadTimeBased~ \$1 \$2;
#X connect 0 0 15 0;
#X connect 2 0 56 1;
#X connect 7 0 3 0;
#X connect 11 0 44 0;
#X connect 15 0 1 0;
#X connect 15 1 55 0;
#X connect 16 0 6 0;
#X connect 17 0 18 0;
#X connect 19 0 47 0;
#X connect 20 0 3 0;
#X connect 20 1 22 0;
#X connect 22 0 23 0;
#X connect 24 0 25 0;
#X connect 24 1 26 0;
#X connect 25 0 40 0;
#X connect 26 0 39 0;
#X connect 27 0 26 1;
#X connect 28 0 8 0;
#X connect 30 0 31 0;
#X connect 31 0 21 0;
#X connect 32 0 43 0;
#X connect 32 0 44 1;
#X connect 33 0 4 0;
#X connect 34 0 21 0;
#X connect 35 0 29 0;
#X connect 35 1 36 0;
#X connect 37 0 42 0;
#X connect 37 0 44 2;
#X connect 38 0 5 0;
#X connect 41 0 34 0;
#X connect 44 0 14 0;
#X connect 44 0 56 0;
#X connect 46 0 45 0;
#X connect 47 0 46 0;
#X connect 47 1 48 0;
#X connect 48 0 45 0;
#X connect 49 0 51 0;
#X connect 50 0 51 1;
#X connect 51 0 35 0;
#X connect 51 1 24 0;
#X connect 51 2 54 0;
#X connect 52 0 53 0;
#X connect 54 0 52 0;
#X connect 55 0 6 0;
#X connect 55 1 16 0;
#X connect 56 0 12 0;
#X connect 56 1 20 0;
