#N canvas 0 30 894 854 10;
#X obj 30 50 inlet~;
#X obj 161 19 inlet;
#X obj 90 413 outlet~;
#X obj 147 305 sdReadTable~ \$3;
#X obj 266 268 bng 15 250 50 0 empty empty empty 17 7 0 10 -262144
-1 -1;
#X obj 174 64 sdObjState \$1 \$2, f 17;
#X obj 281 392 s \$0-fromObj;
#X obj 288 17 r \$0-fromObj;
#X msg 266 288 set table tab1;
#X obj 281 369 list;
#X obj 132 146 sdPack set;
#X obj 132 169 s \$1;
#X obj 519 172 sdObjListen \$1 table;
#X obj 677 216 pack s s;
#X obj 747 212 sdSymbolBang \$1;
#X obj 677 263 print -n;
#X text 695 190 print info for the dumb user;
#X msg 677 239 \$2: connected \$1 -> \$2;
#X obj 209 197 sdEventToProperties;
#X obj 208 172 sdPackFilter info update;
#X obj 517 213 sdObjGet \$1 length;
#X obj 132 123 sdObjTrack length;
#X obj 512 391 outlet;
#X obj 440 121 t a a;
#X connect 0 0 3 0;
#X connect 1 0 5 0;
#X connect 3 0 2 0;
#X connect 3 1 9 0;
#X connect 4 0 8 0;
#X connect 5 0 19 0;
#X connect 5 0 21 0;
#X connect 5 1 3 1;
#X connect 5 2 23 0;
#X connect 7 0 5 1;
#X connect 8 0 3 1;
#X connect 9 0 6 0;
#X connect 10 0 11 0;
#X connect 12 0 13 0;
#X connect 12 0 20 0;
#X connect 13 0 17 0;
#X connect 14 0 13 1;
#X connect 17 0 15 0;
#X connect 18 0 3 1;
#X connect 18 1 3 1;
#X connect 19 1 18 0;
#X connect 21 0 10 0;
#X connect 23 0 22 0;
#X connect 23 1 12 0;
