#N canvas 0 30 721 722 10;
#X obj 36 222 throw~ out;
#X obj 12 73 tgl 15 0 \$0-output \$0-output_rcv output~ 17 7 0 10 -262144
-1 -1 1 1;
#X obj 324 38 loadbang;
#X msg 324 61 1;
#X obj 78 73 hsl 128 15 0 1 0 0 \$0-input_pos \$0-input_pos_rcv empty
-2 -8 0 10 -1 -262144 -1 0 1;
#X obj 324 84 s \$0-output_rcv;
#X obj 22 37 hradio 15 1 0 2 \$0-tab \$0-tab_rcv empty 0 -8 0 10 -262144
-1 -1 0;
#X symbolatom 22 54 10 0 0 0 - #0-tabname_rcv -;
#X obj 198 26 tgl 10 0 \$0-print_msgs empty empty 12 5 0 10 -262144
-1 -1 0 1;
#X text 138 22 prnt msgs;
#X text 13 22 tables;
#X obj 146 261 r \$0-print_msgs;
#X obj 113 284 sdGate;
#X obj 113 307 print \$1.out;
#X obj 321 288 r \$0-print_msgs;
#X obj 288 311 sdGate;
#X obj 288 334 print \$1.in;
#X obj 254 281 t a a;
#X obj 100 258 t a a;
#X obj 459 366 sdPack table;
#X obj 459 389 sdPack set;
#X obj 495 90 sdObjListAll \$3;
#X obj 495 113 s \$0-tablist;
#X obj 477 157 r \$0-tablist;
#X obj 528 228 sdSetSelector set;
#X obj 477 210 t b l;
#X obj 502 258 sdList get count;
#X msg 590 293 number \$1;
#X obj 590 316 s \$0-tab_rcv;
#X msg 466 233 count;
#X msg 368 232 get \$1;
#X obj 382 182 r \$0-tab;
#X obj 473 294 t s s;
#X obj 536 340 s \$0-tabname_rcv;
#X obj 495 44 sdPackFilter init;
#X obj 495 67 t b;
#X obj 459 412 s \$1;
#X obj 382 208 f;
#X obj 477 180 t b l;
#X obj 495 21 r GLOBAL;
#X obj 306 455 sdObjTrack length;
#X obj 306 478 sdUnPack;
#X floatatom 279 518 5 0 0 0 - - -;
#X obj 306 501 s \$0-length;
#X obj 68 670 s \$0-input_pos_rcv;
#X msg 72 644 set \$1;
#X obj 182 133 r \$0-input_pos;
#X obj 147 508 sdUnPack;
#X obj 147 485 sdObjTrack pos;
#X floatatom 147 531 5 0 0 0 - - -;
#X floatatom 142 155 5 0 0 0 - - -;
#X msg 182 156 list set_in_range 3 pos 1 \$1;
#X obj 72 614 / 1;
#X obj 102 598 r \$0-length;
#X obj 198 395 t a a;
#X obj 224 591 sdUnPack;
#X floatatom 224 614 5 0 0 0 - - -;
#X obj 224 568 sdObjTrack enable-out;
#X msg 242 640 set \$1;
#X obj 238 666 s \$0-output_rcv;
#X obj 284 110 r \$0-output;
#X msg 284 133 list set 3 enable-out 1 \$1;
#X obj 62 192 sdReadTableWithPos_obj~ \$1 \$2;
#X connect 2 0 3 0;
#X connect 3 0 5 0;
#X connect 11 0 12 1;
#X connect 12 0 13 0;
#X connect 14 0 15 1;
#X connect 15 0 16 0;
#X connect 17 1 15 0;
#X connect 18 0 54 0;
#X connect 18 1 12 0;
#X connect 19 0 20 0;
#X connect 20 0 36 0;
#X connect 21 0 22 0;
#X connect 23 0 38 0;
#X connect 24 0 26 0;
#X connect 25 0 29 0;
#X connect 25 1 24 0;
#X connect 26 0 32 0;
#X connect 26 1 27 0;
#X connect 27 0 28 0;
#X connect 29 0 26 0;
#X connect 30 0 26 0;
#X connect 31 0 37 0;
#X connect 32 0 19 0;
#X connect 32 1 33 0;
#X connect 34 0 35 0;
#X connect 35 0 21 0;
#X connect 37 0 30 0;
#X connect 38 0 37 0;
#X connect 38 1 25 0;
#X connect 39 0 34 0;
#X connect 40 0 41 0;
#X connect 41 0 42 0;
#X connect 41 0 43 0;
#X connect 45 0 44 0;
#X connect 46 0 51 0;
#X connect 46 0 50 0;
#X connect 47 0 49 0;
#X connect 47 0 52 0;
#X connect 48 0 47 0;
#X connect 51 0 62 1;
#X connect 52 0 45 0;
#X connect 53 0 52 1;
#X connect 54 0 48 0;
#X connect 54 0 57 0;
#X connect 54 1 40 0;
#X connect 55 0 56 0;
#X connect 55 0 58 0;
#X connect 57 0 55 0;
#X connect 58 0 59 0;
#X connect 60 0 61 0;
#X connect 61 0 62 1;
#X connect 62 0 0 0;
#X connect 62 1 18 0;
#X connect 62 2 17 0;
#X coords 0 -1 1 1 200 80 1 10 10;
