#N canvas 0 30 681 722 10;
#X obj 24 18 inlet~;
#X obj 259 26 inlet;
#X obj 11 471 outlet~;
#X obj 163 441 outlet~;
#X obj 222 416 s \$0-fromObj;
#X obj 315 4 r \$0-fromObj;
#X obj 121 161 sdPack set;
#X obj 121 184 s \$1;
#X obj 271 196 sdEventToProperties;
#X obj 208 172 sdPackFilter info update;
#X obj 180 95 t a a;
#X obj 121 138 sdObjTrack length samples sample.index;
#X obj 499 233 sdObjGet \$1 length samples sample.index;
#X obj 452 327 outlet;
#X obj 434 67 t a a;
#X obj 658 197 print -n;
#X msg 658 173 \$2: connected \$1 -> \$2;
#X obj 507 114 sdUnPack;
#X obj 522 140 sdObjConnectTo \$1 \$1;
#X text 661 144 print info for the dumb user;
#X obj 507 91 sdObjTrack table;
#X obj 597 326 outlet;
#X text 444 349 out;
#X text 592 350 in;
#X obj 193 72 t a a;
#X obj 259 50 sdObjState \$1 \$2 \$3;
#X obj 286 322 s \$0-fromObj;
#X obj 59 401 r \$0-enable-out;
#X obj 59 448 line~;
#X obj 59 425 pack 0 50;
#X obj 17 415 *~;
#X obj 310 74 s \$0-toProps;
#X obj 283 257 r \$0-toProps;
#X obj 111 371 sdReadSampleWithPos~ \$4;
#X obj 315 27 list;
#X obj 286 284 sdProperty enable-out \$0 1 intern 0 1 1, f 21;
#X obj 203 212 t a a;
#X obj 241 229 route init;
#X msg 241 252 init;
#X connect 0 0 33 0;
#X connect 1 0 25 0;
#X connect 5 0 34 0;
#X connect 6 0 7 0;
#X connect 8 0 36 0;
#X connect 8 1 35 0;
#X connect 9 1 8 0;
#X connect 10 0 9 0;
#X connect 10 1 11 0;
#X connect 11 0 6 0;
#X connect 14 0 13 0;
#X connect 14 1 20 0;
#X connect 16 0 15 0;
#X connect 17 0 18 0;
#X connect 18 0 12 0;
#X connect 18 1 16 0;
#X connect 20 0 17 0;
#X connect 24 0 10 0;
#X connect 24 1 21 0;
#X connect 25 0 24 0;
#X connect 25 1 31 0;
#X connect 25 2 14 0;
#X connect 27 0 29 0;
#X connect 28 0 30 1;
#X connect 29 0 28 0;
#X connect 30 0 2 0;
#X connect 32 0 35 0;
#X connect 33 0 30 0;
#X connect 33 1 3 0;
#X connect 33 2 4 0;
#X connect 34 0 25 1;
#X connect 35 0 26 0;
#X connect 35 1 33 1;
#X connect 36 0 33 1;
#X connect 36 1 37 0;
#X connect 37 0 38 0;
#X connect 38 0 35 0;
