#N canvas 0 30 681 722 10;
#X obj 376 19 inlet;
#X obj 300 83 s \$0-redir;
#X obj 254 268 r \$0-redir;
#X obj 335 385 outlet;
#X floatatom 115 469 5 0 0 0 - - -;
#X floatatom 246 469 6 0 0 0 - - -;
#X obj 429 191 s \$0-out;
#X obj 351 359 r \$0-out;
#X floatatom 30 467 6 0 0 0 - - -;
#X text 545 49 delta = rightPos - leftPos;
#X text 536 20 \$1: name of the table \; \$2: size of the table \;
;
#X obj 24 20 inlet~;
#X obj 76 381 outlet~;
#X text 331 407 out;
#X obj 186 383 outlet~;
#X obj 376 42 t a a;
#X obj 460 170 sdPropertyList samples \$0;
#X obj 456 287 r \$0-sample.index;
#X obj 549 311 r \$0-samples;
#N canvas 0 30 681 722 unpack 0;
#X obj 32 47 inlet;
#X obj 392 44 inlet;
#X obj 20 535 outlet;
#X text 27 14 index;
#X text 375 16 data;
#X obj 293 552 outlet;
#X obj 196 265 sdData get count;
#X msg 201 227 get \$1;
#X obj 364 227 sdSetSelector set;
#X obj 324 103 t b a;
#X obj 203 201 f;
#X obj 491 558 outlet;
#X obj 206 175 t a b;
#X msg 267 227 count;
#X obj 286 122 t b b;
#X connect 0 0 12 0;
#X connect 1 0 9 0;
#X connect 6 0 2 0;
#X connect 6 1 11 0;
#X connect 7 0 6 0;
#X connect 8 0 6 0;
#X connect 9 0 14 0;
#X connect 9 1 8 0;
#X connect 10 0 7 0;
#X connect 12 0 10 0;
#X connect 12 1 5 0;
#X connect 13 0 6 0;
#X connect 14 0 12 0;
#X connect 14 1 13 0;
#X restore 456 361 pd unpack sample;
#X obj 30 505 r \$0-sample.index;
#X floatatom 30 528 5 0 0 0 - - -;
#X obj 40 593 r \$0-samples;
#X obj 275 317 t a a;
#X obj 456 659 s \$0-out;
#X obj 339 299 route length;
#X obj 339 321 s \$0-length;
#X obj 558 397 t b b;
#X msg 558 451 0;
#X obj 593 432 f 0;
#X obj 608 408 r \$0-length;
#X obj 30 445 r \$0-length;
#X obj 456 538 s \$0-sample.begin;
#X obj 456 565 r \$0-sample.begin;
#X msg 456 588 sample.begin \$1;
#X obj 90 124 r \$0-sample.begin;
#X obj 117 446 r \$0-sample.begin;
#X obj 428 389 bng 15 250 50 0 empty empty empty 17 7 0 10 -262144
-1 -1;
#X msg 482 633 sample.length \$1;
#X obj 456 385 sdUnEvent begin length, f 12;
#X obj 491 515 s \$0-sample.length;
#X obj 164 152 r \$0-sample.length;
#X obj 246 447 r \$0-sample.length;
#X obj 593 455 s \$0-sample.length;
#X obj 559 479 s \$0-sample.begin;
#X obj 482 610 r \$0-sample.length;
#X floatatom 181 179 6 0 0 0 - - -;
#X floatatom 100 151 5 0 0 0 - - -;
#X obj 23 189 expr~ fmod($v1 \, $f3)+$f2;
#X obj 40 665 textfile;
#X obj 40 643 sdSetSelector add;
#X obj 40 617 t a b;
#X msg 163 644 clear;
#X obj 629 198 r \$0-sample.length;
#X obj 24 133 +~;
#X obj 94 94 sdNum2Sig~ 400;
#X obj 94 48 pack 0 100;
#X obj 94 71 line;
#X obj 94 26 r \$0-sample.pos;
#X obj 408 121 sdProperty sample.pos \$0 0 intern 0 0;
#X msg 629 221 priv.set_max \$1;
#X obj 629 244 s \$0-sample.pos_rcv;
#N canvas 0 30 681 722 unpack 0;
#X obj 449 50 inlet;
#X obj 80 259 sdData;
#X obj 177 170 sdSetSelector set;
#X msg 66 192 serialize;
#X obj 95 41 inlet;
#X obj 140 331 sdCounter -1;
#X msg 241 292 0;
#X obj 94 302 t a b;
#X obj 128 411 sdGate;
#X obj 445 86 t b f;
#X obj 139 560 outlet;
#X obj 163 387 == 0;
#X obj 106 81 t b a;
#X obj 74 145 t b b;
#X text 444 17 index;
#X text 78 13 data;
#X obj 36 478 sdGate;
#X obj 99 435 t b a;
#X obj 427 563 outlet;
#X msg 221 464 1;
#X msg 99 458 0;
#X obj 44 118 t b b;
#X obj 477 270 sdData get count;
#X connect 0 0 9 0;
#X connect 1 0 7 0;
#X connect 2 0 1 0;
#X connect 3 0 1 0;
#X connect 4 0 12 0;
#X connect 5 0 11 0;
#X connect 6 0 5 0;
#X connect 6 0 19 0;
#X connect 7 0 8 0;
#X connect 7 1 5 0;
#X connect 8 0 17 0;
#X connect 9 0 21 0;
#X connect 9 1 11 1;
#X connect 11 0 8 1;
#X connect 12 0 21 0;
#X connect 12 1 2 0;
#X connect 13 0 3 0;
#X connect 13 1 6 0;
#X connect 16 0 18 0;
#X connect 17 0 20 0;
#X connect 17 1 10 0;
#X connect 19 0 16 1;
#X connect 20 0 16 1;
#X connect 21 0 16 0;
#X connect 21 1 13 0;
#X restore 624 594 pd unpack sample;
#X msg 618 357 priv.set_max \$1;
#X obj 618 379 s \$0-sample.index_rcv;
#X obj 431 147 sdProperty sample.index \$0 0 intern 0 0 1;
#X obj 618 334 - 1;
#X obj 147 297 sdTabReadTimeBased~ \$1 \$2;
#X connect 0 0 15 0;
#X connect 2 0 67 1;
#X connect 7 0 3 0;
#X connect 11 0 54 0;
#X connect 15 0 1 0;
#X connect 15 1 59 0;
#X connect 16 0 6 0;
#X connect 17 0 19 0;
#X connect 18 0 19 1;
#X connect 19 0 37 0;
#X connect 19 0 39 0;
#X connect 19 1 27 0;
#X connect 19 2 66 0;
#X connect 20 0 21 0;
#X connect 22 0 51 0;
#X connect 23 0 3 0;
#X connect 23 1 25 0;
#X connect 25 0 26 0;
#X connect 27 0 28 0;
#X connect 27 1 29 0;
#X connect 28 0 44 0;
#X connect 29 0 43 0;
#X connect 30 0 29 1;
#X connect 31 0 8 0;
#X connect 33 0 34 0;
#X connect 34 0 24 0;
#X connect 35 0 47 0;
#X connect 35 0 48 1;
#X connect 36 0 4 0;
#X connect 38 0 24 0;
#X connect 39 0 32 0;
#X connect 39 1 40 0;
#X connect 41 0 46 0;
#X connect 41 0 48 2;
#X connect 42 0 5 0;
#X connect 45 0 38 0;
#X connect 48 0 67 0;
#X connect 50 0 49 0;
#X connect 51 0 50 0;
#X connect 51 1 52 0;
#X connect 52 0 49 0;
#X connect 53 0 60 0;
#X connect 54 0 48 0;
#X connect 55 0 54 1;
#X connect 56 0 57 0;
#X connect 57 0 55 0;
#X connect 58 0 56 0;
#X connect 59 0 6 0;
#X connect 59 1 65 0;
#X connect 60 0 61 0;
#X connect 63 0 64 0;
#X connect 65 0 6 0;
#X connect 65 1 16 0;
#X connect 66 0 63 0;
#X connect 67 0 12 0;
#X connect 67 1 23 0;
