#N canvas 0 30 894 854 10;
#X obj 37 378 throw~ out;
#X obj 102 243 tgl 15 0 empty empty output~ 17 7 0 10 -262144 -1 -1
0 1;
#X obj 41 347 *~;
#X obj 101 336 line~;
#X obj 101 313 pack 0 50;
#X obj 92 152 loadbang;
#X msg 92 175 1;
#X obj 158 238 hsl 128 15 0 1 0 0 empty empty empty -2 -8 0 10 -1 -262144
-1 2900 1;
#X obj 81 7 pack 0 100;
#X floatatom 213 281 8 0 0 0 - - -;
#X obj 81 30 line;
#X msg 211 26 raw set table tab1;
#X obj 211 3 r \$0-tab1;
#X obj 337 3 r \$0-tab2;
#X msg 337 26 raw set table tab2;
#X obj 75 79 sdTapeHeadObj~ \$1 \$2 \$3;
#X obj 158 258 hsl 128 15 0 1 0 0 empty empty empty -2 -8 0 10 -1 -262144
-1 0 1;
#X obj 81 54 sdNum2Sig~ 400;
#X obj 188 139 sdSig2Num~;
#X obj 488 297 outlet~;
#X obj 341 95 sdObjTrack sample.length;
#X obj 409 173 * 0;
#X floatatom 407 196 5 0 0 0 - - -;
#X obj 341 118 sdUnPack;
#X floatatom 341 141 5 0 0 0 - - -;
#X obj 183 167 expr fmod($f1 \, $f2)/$f2;
#X connect 1 0 4 0;
#X connect 2 0 0 0;
#X connect 3 0 2 1;
#X connect 4 0 3 0;
#X connect 5 0 6 0;
#X connect 6 0 1 0;
#X connect 7 0 21 0;
#X connect 8 0 10 0;
#X connect 10 0 17 0;
#X connect 11 0 15 1;
#X connect 12 0 11 0;
#X connect 13 0 14 0;
#X connect 14 0 15 1;
#X connect 15 0 2 0;
#X connect 15 1 18 0;
#X connect 15 1 19 0;
#X connect 15 2 20 0;
#X connect 17 0 15 0;
#X connect 18 0 25 0;
#X connect 18 0 9 0;
#X connect 20 0 23 0;
#X connect 21 0 8 0;
#X connect 21 0 22 0;
#X connect 23 0 24 0;
#X connect 23 0 21 1;
#X connect 23 0 25 1;
#X connect 25 0 16 0;
#X coords 0 -1 1 1 230 100 1 100 200;
