#N canvas 764 30 600 118 10;
#X obj 368 157 phasor~;
#X obj 27 31 inlet~;
#X text 27 14 pos;
#X obj 110 259 +~;
#X obj 47 395 outlet~;
#X text 46 415 Audio Out;
#X obj 609 20 inlet;
#X obj 460 398 outlet;
#X text 454 418 output;
#X obj 652 183 r \$0-length;
#X floatatom 652 204 5 0 0 0 - - -;
#X obj 791 228 r \$0-window;
#X floatatom 791 249 9 0 0 0 - - -;
#X symbolatom 574 203 10 0 0 0 - - -;
#X obj 324 405 outlet~;
#X obj 644 105 s \$0-ToReadTable;
#X obj 334 277 r \$0-ToReadTable;
#X text 602 3 messages;
#X text 318 423 phase (0..1);
#X floatatom 573 250 5 0 0 0 - - -;
#X obj 128 397 outlet~;
#X text 127 416 position;
#N canvas 0 30 762 722 properties 1;
#X obj 27 14 inlet;
#X obj 370 297 outlet;
#X text 339 13 "window" is just an alternative way to set "window.length"
;
#X obj 17 99 r \$0-window;
#X obj 20 215 *;
#X obj 20 370 s \$0-window.length_rcv;
#X obj 149 76 r \$0-window.length;
#X obj 149 159 /;
#X obj 149 228 s \$0-window_rcv;
#X obj 35 160 t b f;
#X obj 20 191 f;
#X obj 53 290 != 0;
#X obj 53 266 f;
#X obj 20 238 t f b;
#X obj 526 269 sdPropertySym table \$0 \$1 intern;
#X obj 462 205 sdProperty samphold \$0 \$2 intern;
#X obj 20 313 sdGate;
#X obj 498 241 sdProperty window.phase \$0 \$3 intern;
#X obj 198 124 t b f;
#X msg 480 437 init;
#X msg 149 185 priv.set_noupdate \$1;
#X msg 20 338 priv.set \$1;
#X obj 198 101 r \$0-sample.length;
#X obj 35 137 r \$0-sample.length;
#X floatatom 164 101 5 0 0 0 - - -;
#X obj 357 116 sdProperty window.pos \$0 0 intern 0 0;
#X obj 366 144 sdProperty window.length \$0 100 intern 0 1000;
#X obj 542 32 r \$0-sample.length;
#X msg 542 55 set_max window.pos \$1 \, set_max window.length \$1,
f 25;
#X obj 408 171 sdProperty window \$0 0 noinit 0 1;
#X connect 0 0 25 0;
#X connect 3 0 10 0;
#X connect 4 0 13 0;
#X connect 6 0 24 0;
#X connect 6 0 7 0;
#X connect 7 0 20 0;
#X connect 9 1 4 1;
#X connect 9 1 12 1;
#X connect 10 0 4 0;
#X connect 11 0 16 1;
#X connect 12 0 11 0;
#X connect 13 0 16 0;
#X connect 13 1 12 0;
#X connect 14 0 1 0;
#X connect 15 0 1 0;
#X connect 15 1 17 0;
#X connect 16 0 21 0;
#X connect 17 0 1 0;
#X connect 17 1 14 0;
#X connect 18 0 7 0;
#X connect 18 1 7 1;
#X connect 19 0 14 0;
#X connect 20 0 8 0;
#X connect 21 0 5 0;
#X connect 22 0 18 0;
#X connect 23 0 9 0;
#X connect 25 0 1 0;
#X connect 25 1 26 0;
#X connect 26 0 1 0;
#X connect 26 1 29 0;
#X connect 27 0 28 0;
#X connect 28 0 25 0;
#X connect 29 0 1 0;
#X connect 29 1 15 0;
#X restore 699 42 pd properties;
#X obj 574 182 r \$0-table;
#X obj 367 182 s~ \$0-phase;
#X obj 158 208 r~ \$0-phase;
#X obj 323 382 r~ \$0-phase;
#X obj 407 133 r \$0-window.phase;
#X obj 573 228 r \$0-window.pos;
#X floatatom 571 301 5 0 0 0 - - -;
#X obj 571 279 r \$0-window.phase;
#X obj 699 66 s \$0-msgOut;
#X obj 517 388 r \$0-msgOut;
#X obj 219 335 r~ \$0-phase;
#X obj 362 0 r \$0-window.length;
#X obj 138 341 *~;
#X obj 158 234 *~;
#X floatatom 673 249 9 0 0 0 - - -;
#X obj 673 228 r \$0-window.length;
#X obj 362 26 sig~;
#X obj 132 32 inlet~;
#X text 127 13 pitch factor;
#X obj 367 105 expr~ (1000/$v1)*($v2+1);
#X obj 132 55 s~ \$0-pitchFactor;
#X obj 508 82 r~ \$0-pitchFactor;
#N canvas 0 30 844 722 envelope 0;
#X obj 50 31 inlet~;
#X obj 49 102 cos~;
#X obj 51 79 -~ 0.25;
#X obj 51 55 *~ 0.5;
#X obj 49 125 outlet~;
#X connect 0 0 3 0;
#X connect 1 0 4 0;
#X connect 2 0 1 0;
#X connect 3 0 2 0;
#X restore 219 358 pd envelope;
#X obj 362 80 +~;
#N canvas 0 473 846 411 fade_env 0;
#X obj 50 29 inlet~;
#X obj 58 222 outlet~;
#X obj 55 107 expr~ if($v1 < 0.1 \, $v1/0.1 \, if ($v1 > 0.9 \, 1-($v1-0.9)/0.1
\, 1));
#X connect 0 0 2 0;
#X connect 2 0 1 0;
#X restore 209 389 pd fade_env;
#X obj 646 49 t a a;
#X obj 27 196 samphold~;
#X obj 74 166 r~ \$0-phase;
#X text 450 449 \$1: sample \; \$2: samphold position \; \$3: phase
\;;
#X obj 72 80 r \$0-samphold;
#X obj 363 54 max~ 1;
#X text 410 54 (avoid "divide by 0" error);
#X obj 27 103 sdGate~;
#X obj 398 313 t a a;
#X obj 439 314 route sample.length;
#X obj 439 337 s \$0-sample.length;
#X obj 683 279 r \$0-samphold;
#X floatatom 685 306 5 0 0 0 - - -;
#X floatatom 207 104 5 0 0 0 - - -;
#X obj 225 300 sdReadSample~ \$1 \$2;
#X obj 50 130 r \$0-window.pos;
#X obj 26 154 +~ 0;
#X obj 161 129 +~ 0;
#X connect 0 0 24 0;
#X connect 1 0 55 0;
#X connect 3 0 20 0;
#X connect 3 0 62 0;
#X connect 6 0 48 0;
#X connect 9 0 10 0;
#X connect 11 0 12 0;
#X connect 16 0 62 1;
#X connect 22 0 31 0;
#X connect 23 0 13 0;
#X connect 25 0 36 0;
#X connect 26 0 14 0;
#X connect 27 0 0 1;
#X connect 28 0 19 0;
#X connect 30 0 29 0;
#X connect 32 0 7 0;
#X connect 33 0 45 0;
#X connect 33 0 47 0;
#X connect 34 0 39 0;
#X connect 35 0 4 0;
#X connect 36 0 3 1;
#X connect 38 0 37 0;
#X connect 39 0 53 0;
#X connect 40 0 43 0;
#X connect 42 0 0 0;
#X connect 44 0 42 1;
#X connect 45 0 35 1;
#X connect 46 0 42 0;
#X connect 46 0 36 1;
#X connect 48 0 15 0;
#X connect 48 1 22 0;
#X connect 49 0 3 0;
#X connect 50 0 49 1;
#X connect 52 0 55 1;
#X connect 52 0 61 0;
#X connect 53 0 46 0;
#X connect 55 0 64 0;
#X connect 55 1 65 0;
#X connect 56 0 7 0;
#X connect 56 1 57 0;
#X connect 57 0 58 0;
#X connect 59 0 60 0;
#X connect 62 0 35 0;
#X connect 62 2 56 0;
#X connect 63 0 64 1;
#X connect 64 0 49 0;
#X connect 65 0 3 0;
