#N canvas 0 473 894 411 10;
#X obj 198 210 r \$0-toObj;
#X obj 98 239 sdTapeHead~ \$3 1;
#X obj 80 45 inlet~;
#X obj 49 283 outlet~;
#X obj 119 288 outlet~;
#X obj 184 287 list;
#X obj 186 311 s \$0-fromObj;
#X obj 403 13 inlet;
#X obj 403 37 sdObjState \$1 \$2;
#X obj 498 -1 r \$0-fromObj;
#X obj 608 92 sdObjListen \$1 table;
#X obj 345 202 sdPack set;
#X obj 345 225 s \$1;
#X obj 152 109 sdEventToProperties;
#X obj 151 84 sdPackFilter info update;
#X obj 323 57 t a a;
#X obj 185 145 s \$0-toObj;
#X obj 416 65 s \$0-toObj;
#X obj 543 73 t a a;
#X obj 658 214 outlet;
#X obj 613 129 sdObjGet \$1 length samples sample.index;
#X obj 344 178 sdObjTrack length samples sample.index;
#X connect 0 0 1 2;
#X connect 1 0 3 0;
#X connect 1 1 4 0;
#X connect 1 3 5 0;
#X connect 2 0 1 0;
#X connect 5 0 6 0;
#X connect 7 0 8 0;
#X connect 8 0 15 0;
#X connect 8 1 17 0;
#X connect 8 2 18 0;
#X connect 9 0 8 1;
#X connect 10 0 20 0;
#X connect 10 1 21 1;
#X connect 11 0 12 0;
#X connect 13 0 16 0;
#X connect 13 1 16 0;
#X connect 14 1 13 0;
#X connect 15 0 14 0;
#X connect 15 1 21 0;
#X connect 18 0 19 0;
#X connect 18 1 10 0;
#X connect 21 0 11 0;
