#N canvas 0 30 844 722 10;
#X obj 97 422 throw~ out;
#X obj 12 73 tgl 15 0 \$0-output \$0-output_rcv output~ 17 7 0 10 -262144
-1 -1 0 1;
#X obj 97 391 *~;
#X obj 134 382 line~;
#X obj 134 359 pack 0 50;
#X obj 677 451 loadbang;
#X msg 677 474 1;
#X obj 78 73 hsl 128 15 0 1 0 0 \$0-sample_pos \$0-sample_pos_rcv empty
-2 -8 0 10 -1 -262144 -1 4399 1;
#X obj 133 331 r \$0-output;
#X obj 677 497 s \$0-output_rcv;
#X obj 22 37 hradio 15 1 0 2 \$0-tab \$0-tab_rcv empty 0 -8 0 10 -262144
-1 -1 3;
#X symbolatom 22 54 10 0 0 0 - #0-tabname_rcv -;
#X obj 198 26 tgl 10 0 \$0-print_msgs empty empty 12 5 0 10 -262144
-1 -1 0 1;
#X text 138 22 prnt msgs;
#X text 13 22 tables;
#X obj 264 408 r \$0-print_msgs;
#X obj 231 431 sdGate;
#X obj 231 454 print \$1.out;
#X obj 493 363 r \$0-print_msgs;
#X obj 460 386 sdGate;
#X obj 460 409 print \$1.in;
#X obj 400 361 t a a;
#X obj 218 405 t a a;
#N canvas 0 30 844 722 read_pos 0;
#X obj 157 219 line;
#X obj 157 196 pack 0 100;
#X obj 157 241 sdNum2Sig~ 400;
#X obj 157 173 *;
#X obj 47 26 inlet;
#X obj 138 30 inlet;
#X obj 157 264 outlet~;
#X connect 0 0 2 0;
#X connect 1 0 0 0;
#X connect 2 0 6 0;
#X connect 3 0 1 0;
#X connect 4 0 3 0;
#X connect 5 0 3 1;
#X restore 143 243 pd read_pos;
#X obj 174 218 r \$0-length;
#X obj 631 366 sdPack table;
#X obj 631 389 sdPack set;
#X obj 701 89 sdObjListAll \$3;
#X obj 701 112 s \$0-tablist;
#X obj 649 157 r \$0-tablist;
#X obj 700 228 sdSetSelector set;
#X obj 649 210 t b l;
#X obj 674 258 sdList get count;
#X msg 762 293 number \$1;
#X obj 762 316 s \$0-tab_rcv;
#X msg 638 233 count;
#X msg 540 232 get \$1;
#X obj 554 182 r \$0-tab;
#X obj 645 294 t s s;
#X obj 708 340 s \$0-tabname_rcv;
#X obj 701 43 sdPackFilter init;
#X obj 701 66 t b;
#X obj 631 412 s \$1;
#X obj 554 208 f;
#X obj 649 180 t b l;
#X obj 701 20 r GLOBAL;
#X floatatom 45 304 5 0 0 0 - - -;
#X obj 46 271 env~;
#X obj 116 554 sdUnPack;
#X floatatom 89 594 5 0 0 0 - - -;
#X obj 116 577 s \$0-length;
#X obj 421 469 sdUnPack;
#X obj 421 446 sdPackFilter set_pos;
#X obj 421 492 sdUnPack;
#X obj 421 515 s \$0-input_pos;
#X floatatom 353 516 5 0 0 0 - - -;
#X msg 396 539 set \$1;
#X obj 116 531 sdObjTrack sample.length;
#X obj 392 565 s \$0-sample_pos_rcv;
#X obj 159 196 r \$0-sample_pos;
#X obj 117 56 hradio 15 1 0 2 \$0-sample \$0-sample_rcv empty 0 -8
0 10 -262144 -1 -1 0;
#X obj 291 102 r \$0-sample;
#X obj 291 125 sdPack sample.index;
#X obj 291 148 sdPack set;
#X obj 291 171 s \$1;
#X text 110 39 sample;
#X obj 145 273 sdTapeHeadObj~ \$1 GLOBAL \$2;
#X obj 211 502 s \$0-sample_rcv;
#N canvas 0 30 844 722 track 0;
#X obj 97 24 inlet;
#X obj 261 464 outlet;
#X obj 103 100 sdObjTrack samples;
#X obj 103 145 t a b;
#X msg 186 196 clear;
#X obj 131 244 sdData;
#X obj 82 176 t b a;
#X obj 131 222 sdSetSelector set;
#X msg 65 204 count;
#X obj 103 123 sdUnPack;
#X msg 131 267 number \$1;
#X obj 355 103 sdObjTrack sample.index;
#X obj 355 126 sdUnPack;
#X obj 355 163 sdSetSelector set;
#X connect 0 0 2 0;
#X connect 0 0 11 0;
#X connect 2 0 9 0;
#X connect 3 0 6 0;
#X connect 3 1 4 0;
#X connect 4 0 5 0;
#X connect 5 0 10 0;
#X connect 6 0 8 0;
#X connect 6 1 7 0;
#X connect 7 0 5 0;
#X connect 8 0 5 0;
#X connect 9 0 3 0;
#X connect 10 0 1 0;
#X connect 11 0 12 0;
#X connect 12 0 13 0;
#X connect 13 0 1 0;
#X restore 210 477 pd track samples;
#X obj 346 590 s \$0-sample_pos;
#X connect 2 0 0 0;
#X connect 3 0 2 1;
#X connect 4 0 3 0;
#X connect 5 0 6 0;
#X connect 6 0 9 0;
#X connect 8 0 4 0;
#X connect 15 0 16 1;
#X connect 16 0 17 0;
#X connect 18 0 19 1;
#X connect 19 0 20 0;
#X connect 21 0 52 0;
#X connect 21 1 19 0;
#X connect 22 0 57 0;
#X connect 22 0 68 0;
#X connect 22 1 16 0;
#X connect 23 0 47 0;
#X connect 23 0 66 0;
#X connect 24 0 23 1;
#X connect 25 0 26 0;
#X connect 26 0 42 0;
#X connect 27 0 28 0;
#X connect 29 0 44 0;
#X connect 30 0 32 0;
#X connect 31 0 35 0;
#X connect 31 1 30 0;
#X connect 32 0 38 0;
#X connect 32 1 33 0;
#X connect 33 0 34 0;
#X connect 35 0 32 0;
#X connect 36 0 32 0;
#X connect 37 0 43 0;
#X connect 38 0 25 0;
#X connect 38 1 39 0;
#X connect 40 0 41 0;
#X connect 41 0 27 0;
#X connect 43 0 36 0;
#X connect 44 0 43 0;
#X connect 44 1 31 0;
#X connect 45 0 40 0;
#X connect 47 0 46 0;
#X connect 48 0 49 0;
#X connect 48 0 50 0;
#X connect 51 0 53 0;
#X connect 52 0 51 0;
#X connect 53 0 54 0;
#X connect 53 0 55 0;
#X connect 53 0 56 0;
#X connect 53 0 69 0;
#X connect 56 0 58 0;
#X connect 57 0 48 0;
#X connect 59 0 23 0;
#X connect 61 0 62 0;
#X connect 62 0 63 0;
#X connect 63 0 64 0;
#X connect 66 0 2 0;
#X connect 66 2 22 0;
#X connect 66 3 21 0;
#X connect 68 0 67 0;
#X coords 0 -1 1 1 230 100 1 10 10;
