#N canvas 0 30 681 345 10;
#X obj 325 26 inlet;
#X symbolatom 220 349 10 0 0 0 - - -;
#X floatatom 290 348 6 0 0 0 - - -;
#X obj 410 369 outlet;
#X text 320 9 Messages;
#X obj 40 34 inlet~;
#X obj 58 375 outlet~;
#X obj 107 267 r \$0-table;
#X obj 218 327 r \$0-table;
#X obj 733 82 float \$2;
#X obj 733 58 loadbang;
#X msg 107 290 set \$1.array;
#X text 409 389 out;
#X obj 325 49 t a a;
#X obj 392 227 sdPropertySym table \$0 \$1 update;
#X obj 733 106 s \$0-length;
#X obj 45 219 *~ 1;
#X obj 95 314 tabread4~;
#X obj 356 84 route init, f 29;
#X obj 356 107 t b b;
#X obj 383 130 symbol \$1;
#X obj 383 153 sdSymbolIsEq;
#X obj 353 180 sdGate;
#X msg 386 203 init;
#X text 411 63 only init if \$1!="";
#X obj 95 162 r \$0-size;
#X text 39 15 position in table \, [0 \, 1];
#X obj 290 327 r \$0-size;
#X obj 481 274 sdProperty size \$0 \$2 intern;
#X obj 95 185 / 2;
#X obj 94 227 + 1;
#X obj 45 244 +~ 0;
#X connect 0 0 13 0;
#X connect 5 0 16 0;
#X connect 7 0 11 0;
#X connect 8 0 1 0;
#X connect 9 0 15 0;
#X connect 10 0 9 0;
#X connect 11 0 17 0;
#X connect 13 1 18 0;
#X connect 14 0 3 0;
#X connect 14 1 28 0;
#X connect 16 0 31 0;
#X connect 17 0 6 0;
#X connect 18 0 19 0;
#X connect 18 1 14 0;
#X connect 19 0 22 0;
#X connect 19 1 20 0;
#X connect 20 0 21 0;
#X connect 21 0 22 1;
#X connect 22 1 23 0;
#X connect 23 0 14 0;
#X connect 25 0 29 0;
#X connect 27 0 2 0;
#X connect 28 0 3 0;
#X connect 29 0 16 1;
#X connect 29 0 30 0;
#X connect 30 0 31 1;
#X connect 31 0 17 0;
