#N canvas 0 30 762 722 10;
#X obj 212 164 r \$0-toObj;
#X obj 80 45 inlet~;
#X obj 3 359 outlet~;
#X obj 162 368 outlet~;
#X obj 196 276 s \$0-fromObj;
#X obj 403 13 inlet;
#X obj 536 12 r \$0-fromObj;
#X obj 165 129 sdPack set;
#X obj 165 152 s \$1;
#X obj 326 118 sdEventToProperties;
#X obj 325 93 sdPackFilter info update;
#X obj 280 63 t a a;
#X obj 375 195 s \$0-toObj;
#X obj 458 60 s \$0-toObj;
#X obj 597 58 t a a;
#X obj 418 316 outlet;
#X obj 165 94 sdObjTrack length samples sample.index, f 25;
#X obj 98 239 sdTapeHead~ \$4 1;
#X obj 777 191 print -n;
#X msg 777 167 \$2: connected \$1 -> \$2;
#X obj 626 108 sdUnPack;
#X obj 641 134 sdObjConnectTo \$1 \$1;
#X text 780 138 print info for the dumb user;
#X obj 626 85 sdObjTrack table;
#X obj 571 180 sdObjGet \$1 length samples sample.index, f 27;
#X obj 620 320 outlet;
#X text 406 343 out;
#X text 622 341 in;
#X obj 324 42 t a a;
#X obj 403 37 sdObjState \$1 \$2 \$3;
#X obj 326 141 route init;
#X msg 326 164 init;
#X obj 209 235 s \$0-fromObj;
#X obj 50 281 r \$0-enable-out;
#X obj 50 328 line~;
#X obj 50 305 pack 0 50;
#X obj 20 295 *~;
#X obj 536 35 list;
#X obj 209 197 sdProperty enable-out \$0 0 intern 0 1 1, f 21;
#X connect 0 0 38 0;
#X connect 1 0 17 0;
#X connect 5 0 29 0;
#X connect 6 0 37 0;
#X connect 7 0 8 0;
#X connect 9 0 30 0;
#X connect 9 1 12 0;
#X connect 10 1 9 0;
#X connect 11 0 16 0;
#X connect 11 1 10 0;
#X connect 14 0 23 0;
#X connect 14 1 15 0;
#X connect 16 0 7 0;
#X connect 17 0 36 0;
#X connect 17 1 3 0;
#X connect 17 3 4 0;
#X connect 19 0 18 0;
#X connect 20 0 21 0;
#X connect 21 0 24 0;
#X connect 21 1 19 0;
#X connect 23 0 20 0;
#X connect 28 0 11 0;
#X connect 28 1 25 0;
#X connect 29 0 28 0;
#X connect 29 1 13 0;
#X connect 29 2 14 0;
#X connect 30 0 31 0;
#X connect 31 0 12 0;
#X connect 33 0 35 0;
#X connect 34 0 36 1;
#X connect 35 0 34 0;
#X connect 36 0 2 0;
#X connect 37 0 29 1;
#X connect 38 0 32 0;
#X connect 38 1 17 2;
