#N canvas 0 30 846 854 10;
#X obj 30 50 inlet~;
#X obj 108 51 inlet;
#X obj 38 364 sdRecorder~ \$3;
#X obj 205 167 sdObjState \$1 \$2;
#X msg 467 170 list out 1 clear;
#X msg 457 130 list out 1 clear \, list out 2 add tab1.test;
#X msg 364 19 list set 3 table 1 tab1;
#X msg 351 53 list start 0;
#X msg 354 77 list stop 0;
#X msg 438 52 list normalize 0;
#X msg 439 75 list clear 0;
#X obj 319 159 r \$0-fromObj;
#X obj 45 418 s \$0-fromObj;
#X msg 573 95 list get 1 table;
#X obj 379 233 t a a;
#X obj 464 343 send;
#X obj 382 297 sdPack set;
#X obj 500 301 sdUnPack;
#X obj 500 278 sdObjTrack table;
#X obj 40 391 list;
#X obj 144 286 sdEventToProperties;
#X obj 382 274 sdObjTrack length;
#X obj 65 258 sdPackFilter info update;
#X obj 545 339 pack s s;
#X obj 615 335 sdSymbolBang \$1;
#X obj 545 386 print -n;
#X text 563 313 print info for the dumb user;
#X msg 545 362 \$2: connected \$2 -> \$1;
#X obj 260 418 outlet;
#X obj 335 201 t a a;
#X obj 489 423 outlet;
#X text 257 449 out;
#X text 492 449 in;
#X obj 208 314 t a;
#X obj 185 208 t a a;
#X connect 0 0 2 0;
#X connect 1 0 3 0;
#X connect 2 0 19 0;
#X connect 3 0 34 0;
#X connect 3 1 33 0;
#X connect 3 2 29 0;
#X connect 4 0 3 0;
#X connect 5 0 3 0;
#X connect 6 0 3 0;
#X connect 7 0 3 0;
#X connect 8 0 3 0;
#X connect 9 0 3 0;
#X connect 10 0 3 0;
#X connect 11 0 3 1;
#X connect 13 0 3 0;
#X connect 14 0 21 0;
#X connect 14 1 18 0;
#X connect 16 0 15 0;
#X connect 17 0 15 1;
#X connect 17 0 23 0;
#X connect 18 0 17 0;
#X connect 19 0 12 0;
#X connect 20 0 33 0;
#X connect 20 1 33 0;
#X connect 21 0 16 0;
#X connect 22 1 20 0;
#X connect 23 0 27 0;
#X connect 24 0 23 1;
#X connect 27 0 25 0;
#X connect 29 0 28 0;
#X connect 29 1 14 0;
#X connect 33 0 2 1;
#X connect 34 0 22 0;
#X connect 34 1 30 0;
