#N canvas 0 30 681 722 10;
#X obj 30 50 inlet~;
#X obj 108 51 inlet;
#X obj 230 46 r \$0-fromObj;
#X obj 25 438 s \$0-fromObj;
#X obj 379 233 t a a;
#X obj 464 343 send;
#X obj 333 295 sdPack set;
#X obj 500 301 sdUnPack;
#X obj 500 278 sdObjTrack table;
#X obj 53 300 sdEventToProperties;
#X obj 492 385 pack s s;
#X obj 562 381 sdSymbolBang \$1;
#X obj 492 432 print -n;
#X text 510 359 print info for the dumb user;
#X msg 492 408 \$2: connected \$2 -> \$1;
#X obj 260 418 outlet;
#X obj 335 201 t a a;
#X obj 405 417 outlet;
#X text 257 449 out;
#X text 408 443 in;
#X obj 158 119 t a a;
#X obj 333 272 sdObjTrack length samples;
#X obj 37 268 sdPackFilter info update;
#X obj 158 96 sdObjState \$1 \$2 \$3;
#X obj 25 414 sdRecorderSamp~ \$4;
#X obj 184 329 sdPropertyList events \$0, f 14;
#X msg 95 194 priv.set start stop sample.start sample.stop, f 20;
#X obj 95 243 s \$0-events_rcv;
#X obj 230 69 list;
#X obj 184 365 s \$0-fromObj;
#X obj 95 170 sdPackFilter init;
#X obj 68 146 t a a;
#X connect 0 0 24 0;
#X connect 1 0 23 0;
#X connect 2 0 28 0;
#X connect 4 0 21 0;
#X connect 4 1 8 0;
#X connect 6 0 5 0;
#X connect 7 0 5 1;
#X connect 7 0 10 0;
#X connect 8 0 7 0;
#X connect 9 0 24 1;
#X connect 9 1 25 0;
#X connect 10 0 14 0;
#X connect 11 0 10 1;
#X connect 14 0 12 0;
#X connect 16 0 15 0;
#X connect 16 1 4 0;
#X connect 20 0 31 0;
#X connect 20 1 17 0;
#X connect 21 0 6 0;
#X connect 22 1 9 0;
#X connect 23 0 20 0;
#X connect 23 1 25 0;
#X connect 23 2 16 0;
#X connect 24 0 3 0;
#X connect 25 0 29 0;
#X connect 25 1 24 1;
#X connect 26 0 27 0;
#X connect 28 0 23 1;
#X connect 30 0 26 0;
#X connect 31 0 22 0;
#X connect 31 1 30 0;
