#N canvas 0 30 681 722 10;
#X obj 29 29 inlet~;
#X obj 115 9 inlet;
#X msg 87 458 bang;
#X msg 126 508 stop;
#X obj 95 115 s \$0-Start;
#X obj 164 115 s \$0-Stop;
#X obj 260 369 timer;
#X obj 253 196 r \$0-Start;
#X obj 253 217 t b b;
#X obj 304 295 t b b;
#X obj 399 273 r \$0-Stop;
#X obj 399 294 t b b;
#X obj 196 239 s \$0-StartRec;
#X obj 426 315 s \$0-StopRec;
#X obj 87 434 r \$0-StartRec;
#X obj 126 462 r \$0-StopRec;
#X msg 345 378 60000;
#X symbolatom 734 53 10 0 0 0 - - -;
#X obj 52 361 *~;
#X obj 68 316 pack 0 50;
#X obj 68 338 line~;
#X obj 69 242 r \$0-StartRec;
#X obj 112 266 r \$0-StopRec;
#X msg 112 290 0 50;
#X msg 69 265 1 50;
#X obj 126 484 del 50;
#X obj 289 346 del 50;
#X obj 436 343 r \$0-updateSample;
#X obj 336 219 r \$0-updateSample;
#X obj 740 111 loadbang;
#X obj 740 183 s \$0-updateSample;
#X obj 740 135 f \$2;
#X obj 740 159 expr !$f1;
#X text 147 710 \$1: sample \; \$2: 1-> dont update sample \, 0-> do
it!;
#X obj 179 495 r \$0-table;
#X obj 734 30 r \$0-table;
#X obj 113 91 route start stop;
#X msg 179 519 set \$1.array;
#X obj 374 546 outlet;
#X text 368 565 events;
#X obj 648 377 r \$0-table;
#X symbolatom 648 400 10 0 0 0 - - -;
#X obj 615 642 r \$0-table;
#X obj 789 643 r \$0-table;
#X obj 526 675 symbol \$1;
#X obj 700 666 symbol \$1;
#X msg 700 691 \; \$1.array const 0 \;;
#X msg 526 698 \; \$1.array normalize \;;
#X obj 234 143 s \$0-normalize;
#X obj 294 166 s \$0-clear;
#X obj 235 120 route normalize clear;
#X obj 704 610 r \$0-clear;
#X obj 528 614 r \$0-normalize;
#X obj 291 240 sdGate 1;
#X obj 391 364 sdGate 1;
#X obj 655 289 sdPropertySym table \$0 \$1 update;
#X msg 311 445 length \$1;
#X obj 535 40 route init;
#X obj 535 63 t b b;
#X obj 562 86 symbol \$1;
#X obj 562 109 sdSymbolIsEq;
#X obj 532 136 sdGate;
#X msg 565 159 init;
#X text 533 15 only init if \$1!="";
#X obj 66 551 tabwrite~;
#X obj 188 549 print tabwrite;
#X connect 0 0 18 0;
#X connect 1 0 36 0;
#X connect 2 0 64 0;
#X connect 3 0 64 0;
#X connect 6 0 56 0;
#X connect 7 0 8 0;
#X connect 8 0 12 0;
#X connect 8 1 53 0;
#X connect 9 0 6 0;
#X connect 9 1 16 0;
#X connect 10 0 11 0;
#X connect 11 0 54 0;
#X connect 11 1 13 0;
#X connect 14 0 2 0;
#X connect 15 0 25 0;
#X connect 16 0 56 0;
#X connect 18 0 64 0;
#X connect 19 0 20 0;
#X connect 20 0 18 1;
#X connect 21 0 24 0;
#X connect 22 0 23 0;
#X connect 23 0 19 0;
#X connect 24 0 19 0;
#X connect 25 0 3 0;
#X connect 26 0 6 1;
#X connect 27 0 54 1;
#X connect 28 0 53 1;
#X connect 29 0 31 0;
#X connect 31 0 32 0;
#X connect 32 0 30 0;
#X connect 34 0 37 0;
#X connect 35 0 17 0;
#X connect 36 0 4 0;
#X connect 36 1 5 0;
#X connect 36 2 50 0;
#X connect 37 0 64 0;
#X connect 37 0 65 0;
#X connect 40 0 41 0;
#X connect 42 0 44 1;
#X connect 43 0 45 1;
#X connect 44 0 47 0;
#X connect 45 0 46 0;
#X connect 50 0 48 0;
#X connect 50 1 49 0;
#X connect 50 2 57 0;
#X connect 51 0 45 0;
#X connect 52 0 44 0;
#X connect 53 0 9 0;
#X connect 54 0 26 0;
#X connect 55 0 38 0;
#X connect 56 0 38 0;
#X connect 57 0 58 0;
#X connect 57 1 55 0;
#X connect 58 0 61 0;
#X connect 58 1 59 0;
#X connect 59 0 60 0;
#X connect 60 0 61 1;
#X connect 61 1 62 0;
#X connect 62 0 55 0;
