#N canvas 0 30 681 722 10;
#X obj 36 37 inlet~;
#X obj 350 45 inlet;
#X msg 513 134 list start 0;
#X msg 538 86 list stop 0;
#X obj 112 129 tgl 15 0 \$0-rec \$0-rec_rcv empty 17 7 0 10 -262144
-1 -1 0 1;
#X obj 248 119 tgl 10 0 \$0-print_msgs empty empty 12 5 0 10 -262144
-1 -1 0 1;
#X text 188 115 prnt msgs;
#X obj 79 320 r \$0-print_msgs;
#X obj 46 343 sdGate;
#X obj 163 129 cnv 14 40 14 empty \$0-clock_rcv 0.3 1 9 1 14 -233017
-66577 0;
#X obj 513 39 r \$0-rec;
#X obj 513 62 route 1 0;
#X obj 46 366 print \$1.out;
#X obj 344 260 r \$0-print_msgs;
#X obj 311 283 sdGate;
#X obj 311 306 print \$1.in;
#X obj 251 258 t a a;
#X obj 246 372 s \$0-rec_rcv;
#N canvas 0 30 681 722 update_ui 0;
#X obj 370 41 inlet;
#X msg 320 303 1;
#X msg 366 303 0;
#X obj 328 333 sdSetSelector set;
#X obj 328 356 outlet;
#X obj 450 468 outlet;
#X obj 445 366 timer;
#X obj 472 343 metro 100;
#X obj 431 283 t b b;
#X msg 492 289 stop;
#X obj 445 389 / 1000;
#X msg 450 446 label \$1;
#X obj 445 412 l2s;
#X obj 370 64 sdEventToProperties;
#X obj 60 36 inlet;
#X obj 45 205 sdObjTrack table;
#X obj 45 228 sdUnPack;
#X obj 140 335 outlet;
#X obj 140 312 sdSetSelector set;
#X obj 380 92 route sample.start sample.stop;
#X msg 389 164 1;
#X msg 435 164 0;
#X obj 397 194 sdSetSelector set;
#X obj 397 217 outlet;
#X obj 72 82 sdUnPack;
#X obj 320 250 route 1 0;
#X obj 72 59 sdObjTrack is_recording;
#X obj 219 80 sdUnPack;
#X obj 219 57 sdObjTrack is_sampling;
#X connect 0 0 13 0;
#X connect 1 0 3 0;
#X connect 2 0 3 0;
#X connect 3 0 4 0;
#X connect 6 0 10 0;
#X connect 7 0 6 1;
#X connect 8 0 6 0;
#X connect 8 1 7 0;
#X connect 9 0 7 0;
#X connect 10 0 12 0;
#X connect 11 0 5 0;
#X connect 12 0 11 0;
#X connect 13 0 19 0;
#X connect 14 0 15 0;
#X connect 14 0 26 0;
#X connect 14 0 28 0;
#X connect 15 0 16 0;
#X connect 16 0 18 0;
#X connect 18 0 17 0;
#X connect 19 0 20 0;
#X connect 19 1 21 0;
#X connect 22 0 23 0;
#X connect 24 0 25 0;
#X connect 25 0 1 0;
#X connect 25 0 8 0;
#X connect 25 1 2 0;
#X connect 25 1 9 0;
#X connect 26 0 24 0;
#X connect 27 0 22 0;
#X connect 28 0 27 0;
#X restore 212 320 pd update_ui;
#X obj 281 348 s \$0-clock_rcv;
#X obj 208 144 hradio 15 1 0 2 \$0-tab \$0-tab_rcv tables 0 -8 0 10
-262144 -1 -1 3;
#X obj 631 366 sdPack table;
#X obj 631 389 sdPack set;
#X obj 84 256 t a a;
#X text 128 127 time:;
#X obj 112 162 tgl 15 0 \$0-samp \$0-samp_rcv empty 17 7 0 10 -262144
-1 -1 0 1;
#X text 100 114 rec;
#X text 100 146 sample;
#X obj 451 346 r \$0-samp;
#X msg 451 392 list sample.start 0;
#X msg 476 415 list sample.stop 0;
#X obj 451 369 route 1 0;
#X obj 701 89 sdObjListAll \$3;
#X obj 701 112 s \$0-tablist;
#X obj 649 157 r \$0-tablist;
#X obj 700 228 sdSetSelector set;
#X obj 649 210 t b l;
#X obj 674 258 sdList get count;
#X symbolatom 182 162 10 0 0 0 - #0-tabname_rcv -;
#X msg 762 293 number \$1;
#X obj 762 316 s \$0-tab_rcv;
#X msg 638 233 count;
#X msg 540 232 get \$1;
#X obj 554 182 r \$0-tab;
#X obj 645 294 t s s;
#X obj 708 340 s \$0-tabname_rcv;
#X obj 701 43 sdPackFilter init;
#X obj 701 66 t b;
#X obj 463 444 s \$1;
#X obj 513 157 s \$1;
#X obj 538 109 s \$1;
#X obj 631 412 s \$1;
#X obj 554 208 f;
#X obj 649 180 t b l;
#X text 371 492 \$1: obj name \; \$2: group \; \$3: table group;
#X obj 701 20 r GLOBAL;
#X obj 212 398 s \$0-tabname_rcv;
#X obj 265 441 s \$0-samp_rcv;
#X obj 84 229 sdRecorderSamp_obj~ \$1 GLOBAL \$2;
#X obj 669 65 bng 15 250 50 0 empty empty empty 17 7 0 10 -262144 -1
-1;
#X obj 669 491 t b f;
#X obj 680 553 f;
#X obj 664 519 delay 1000;
#X floatatom 788 265 5 0 0 0 - - -;
#X connect 0 0 58 0;
#X connect 1 0 58 1;
#X connect 2 0 49 0;
#X connect 3 0 50 0;
#X connect 7 0 8 1;
#X connect 8 0 12 0;
#X connect 10 0 11 0;
#X connect 11 0 2 0;
#X connect 11 1 3 0;
#X connect 13 0 14 1;
#X connect 14 0 15 0;
#X connect 16 0 18 1;
#X connect 16 1 14 0;
#X connect 18 0 56 0;
#X connect 18 1 17 0;
#X connect 18 2 57 0;
#X connect 18 3 19 0;
#X connect 21 0 22 0;
#X connect 22 0 51 0;
#X connect 23 0 18 0;
#X connect 23 1 8 0;
#X connect 28 0 31 0;
#X connect 29 0 48 0;
#X connect 30 0 48 0;
#X connect 31 0 29 0;
#X connect 31 1 30 0;
#X connect 32 0 33 0;
#X connect 34 0 53 0;
#X connect 35 0 37 0;
#X connect 36 0 41 0;
#X connect 36 1 35 0;
#X connect 37 0 44 0;
#X connect 37 1 60 0;
#X connect 37 1 63 0;
#X connect 39 0 40 0;
#X connect 41 0 37 0;
#X connect 42 0 37 0;
#X connect 43 0 52 0;
#X connect 44 0 21 0;
#X connect 44 1 45 0;
#X connect 46 0 47 0;
#X connect 47 0 32 0;
#X connect 52 0 42 0;
#X connect 53 0 52 0;
#X connect 53 1 36 0;
#X connect 55 0 46 0;
#X connect 58 0 23 0;
#X connect 58 1 16 0;
#X connect 59 0 32 0;
#X connect 60 0 62 0;
#X connect 60 1 61 1;
#X connect 61 0 39 0;
#X connect 62 0 61 0;
#X coords 0 -1 1 1 160 80 1 100 100;
