#N canvas 0 30 681 722 10;
#X obj 290 183 sdRecorder~ \$1;
#X obj 343 20 inlet;
#X obj 684 260 timer;
#X obj 627 94 route start stop;
#X obj 343 43 route sample.start sample.stop;
#X obj 343 89 s \$0-sample.start;
#X obj 431 66 s \$0-sample.stop;
#X obj 562 200 r \$0-start;
#X obj 609 118 s \$0-start;
#X obj 678 118 s \$0-stop;
#X obj 294 742 outlet;
#X obj 711 237 r \$0-sample.start;
#X obj 562 223 t b b;
#X obj 503 280 timer;
#X obj 530 257 r \$0-sample.stop;
#X obj 71 23 inlet~;
#X obj 500 391 t b f;
#X obj 531 489 sdData;
#X msg 454 464 bang \, clear;
#X obj 531 512 sdPack sample;
#X obj 508 609 sdData;
#X obj 426 553 r \$0-start;
#X obj 533 540 t b a;
#X obj 508 632 sdSetSelector samples;
#X msg 426 576 clear \, bang;
#X obj 684 436 sdPack begin;
#X obj 511 344 -;
#X obj 528 417 sdPack length;
#X obj 579 68 t a a;
#X obj 738 285 bng 15 250 50 0 empty empty empty 17 7 0 10 -262144
-1 -1;
#X connect 0 0 10 0;
#X connect 1 0 4 0;
#X connect 2 0 25 0;
#X connect 2 0 26 1;
#X connect 3 0 8 0;
#X connect 3 1 9 0;
#X connect 4 0 5 0;
#X connect 4 1 6 0;
#X connect 4 2 28 0;
#X connect 7 0 12 0;
#X connect 11 0 2 1;
#X connect 11 0 29 0;
#X connect 12 0 13 0;
#X connect 12 1 2 0;
#X connect 13 0 26 0;
#X connect 14 0 13 1;
#X connect 15 0 0 0;
#X connect 16 0 18 0;
#X connect 16 1 27 0;
#X connect 17 0 19 0;
#X connect 18 0 17 0;
#X connect 19 0 22 0;
#X connect 20 0 23 0;
#X connect 21 0 24 0;
#X connect 22 0 20 0;
#X connect 22 1 20 1;
#X connect 23 0 10 0;
#X connect 24 0 20 0;
#X connect 25 0 17 1;
#X connect 26 0 16 0;
#X connect 27 0 17 1;
#X connect 28 0 0 1;
#X connect 28 1 3 0;
