#N canvas 0 30 681 722 10;
#X obj 36 37 inlet~;
#X obj 350 45 inlet;
#X msg 58 636 list start 0;
#X msg 83 588 list stop 0;
#X obj 79 320 r \$0-print_msgs;
#X obj 46 343 sdGate;
#X obj 58 541 r \$0-rec;
#X obj 58 564 route 1 0;
#X obj 58 659 s \$0-toObj;
#X obj 83 611 s \$0-toObj;
#X obj 265 198 r \$0-toObj;
#X obj 46 366 print \$1.out;
#X obj 401 268 r \$0-print_msgs;
#X obj 368 291 sdGate;
#X obj 368 314 print \$1.in;
#X obj 251 258 t a a;
#X obj 200 536 r \$0-tab;
#X obj 200 605 sdPack table;
#X obj 200 628 sdPack set;
#X msg 200 582 symbol tab\$1;
#X obj 200 559 + 1;
#X obj 200 651 s \$0-toObj;
#X obj 84 256 t a a;
#X obj 358 653 s \$0-tab_rcv;
#X obj 112 129 tgl 15 0 \$0-rec \$0-rec_rcv empty 17 7 0 10 -262144
-1 -1 0 1;
#X obj 248 119 tgl 10 0 \$0-print_msgs empty empty 12 5 0 10 -262144
-1 -1 0 1;
#X text 188 115 prnt msgs;
#X obj 163 129 cnv 14 40 14 empty \$0-clock_rcv 5.4 1 9 1 14 -233017
-66577 0;
#X obj 208 144 hradio 15 1 0 2 \$0-tab \$0-tab_rcv tables 0 -8 0 10
-262144 -1 -1 0;
#X text 128 127 time:;
#X text 100 114 rec;
#X symbolatom 182 162 10 0 0 0 - #0-tabname_rcv -;
#X msg 513 134 list start 0;
#X msg 538 86 list stop 0;
#X obj 513 39 r \$0-rec;
#X obj 513 62 route 1 0;
#X obj 631 366 sdPack table;
#X obj 631 389 sdPack set;
#X obj 701 89 sdObjListAll \$3;
#X obj 701 112 s \$0-tablist;
#X obj 649 157 r \$0-tablist;
#X obj 700 228 sdSetSelector set;
#X obj 649 210 t b l;
#X obj 674 258 sdList get count;
#X msg 762 293 number \$1;
#X obj 762 316 s \$0-tab_rcv;
#X msg 638 233 count;
#X msg 540 232 get \$1;
#X obj 554 182 r \$0-tab;
#X obj 645 294 t s s;
#X obj 708 340 s \$0-tabname_rcv;
#X obj 701 43 sdPackFilter init;
#X obj 701 66 t b;
#X obj 513 157 s \$1;
#X obj 538 109 s \$1;
#X obj 631 412 s \$1;
#X obj 554 208 f;
#X obj 649 180 t b l;
#X obj 701 20 r GLOBAL;
#X text 61 499 legacy;
#X obj 84 233 sdRecorderObj~ \$1 GLOBAL \$2;
#X obj 246 372 s \$0-rec_rcv;
#N canvas 0 30 844 722 update_ui 0;
#X obj 370 41 inlet;
#X obj 369 127 route start stop;
#X msg 369 180 1;
#X msg 415 180 0;
#X obj 377 210 sdSetSelector set;
#X obj 377 233 outlet;
#X obj 499 345 outlet;
#X obj 494 243 timer;
#X obj 521 220 metro 100;
#X obj 480 160 t b b;
#X msg 541 166 stop;
#X obj 494 266 / 1000;
#X msg 499 323 label \$1;
#X obj 494 289 l2s;
#X obj 370 64 sdEventToProperties;
#X obj 60 36 inlet;
#X obj 70 97 sdObjTrack table;
#X obj 70 120 sdUnPack;
#X obj 140 335 outlet;
#X obj 140 312 sdSetSelector set;
#X connect 0 0 14 0;
#X connect 1 0 2 0;
#X connect 1 0 9 0;
#X connect 1 1 3 0;
#X connect 1 1 10 0;
#X connect 2 0 4 0;
#X connect 3 0 4 0;
#X connect 4 0 5 0;
#X connect 7 0 11 0;
#X connect 8 0 7 1;
#X connect 9 0 7 0;
#X connect 9 1 8 0;
#X connect 10 0 8 0;
#X connect 11 0 13 0;
#X connect 12 0 6 0;
#X connect 13 0 12 0;
#X connect 14 0 1 0;
#X connect 15 0 16 0;
#X connect 16 0 17 0;
#X connect 17 0 19 0;
#X connect 19 0 18 0;
#X restore 212 320 pd update_ui;
#X obj 281 348 s \$0-clock_rcv;
#X obj 212 398 s \$0-tabname_rcv;
#X connect 0 0 60 0;
#X connect 1 0 60 1;
#X connect 2 0 8 0;
#X connect 3 0 9 0;
#X connect 4 0 5 1;
#X connect 5 0 11 0;
#X connect 7 0 2 0;
#X connect 7 1 3 0;
#X connect 10 0 60 1;
#X connect 12 0 13 1;
#X connect 13 0 14 0;
#X connect 15 0 62 1;
#X connect 15 1 13 0;
#X connect 17 0 18 0;
#X connect 18 0 21 0;
#X connect 19 0 17 0;
#X connect 20 0 19 0;
#X connect 22 0 62 0;
#X connect 22 1 5 0;
#X connect 32 0 53 0;
#X connect 33 0 54 0;
#X connect 34 0 35 0;
#X connect 35 0 32 0;
#X connect 35 1 33 0;
#X connect 36 0 37 0;
#X connect 37 0 55 0;
#X connect 38 0 39 0;
#X connect 40 0 57 0;
#X connect 41 0 43 0;
#X connect 42 0 46 0;
#X connect 42 1 41 0;
#X connect 43 0 49 0;
#X connect 43 1 44 0;
#X connect 44 0 45 0;
#X connect 46 0 43 0;
#X connect 47 0 43 0;
#X connect 48 0 56 0;
#X connect 49 0 36 0;
#X connect 49 1 50 0;
#X connect 51 0 52 0;
#X connect 52 0 38 0;
#X connect 56 0 47 0;
#X connect 57 0 56 0;
#X connect 57 1 42 0;
#X connect 58 0 51 0;
#X connect 60 0 22 0;
#X connect 60 1 15 0;
#X connect 62 0 64 0;
#X connect 62 1 61 0;
#X connect 62 2 63 0;
#X coords 0 -1 1 1 160 80 1 100 100;
