#N canvas 0 30 681 722 10;
#X obj 30 50 inlet~;
#X obj 108 51 inlet;
#X obj 250 98 r \$0-fromObj;
#X obj 36 436 s \$0-fromObj;
#X obj 379 233 t a a;
#X obj 464 343 send;
#X obj 382 297 sdPack set;
#X obj 500 301 sdUnPack;
#X obj 500 278 sdObjTrack table;
#X obj 100 281 sdEventToProperties;
#X obj 382 274 sdObjTrack length;
#X obj 545 339 pack s s;
#X obj 615 335 sdSymbolBang \$1;
#X obj 545 386 print -n;
#X text 563 313 print info for the dumb user;
#X msg 545 362 \$2: connected \$2 -> \$1;
#X obj 260 418 outlet;
#X obj 335 201 t a a;
#X obj 489 423 outlet;
#X text 257 449 out;
#X text 492 449 in;
#X obj 229 306 t a;
#X obj 205 191 t a a;
#X obj 205 167 sdObjState \$1 \$2 \$3;
#X obj 36 411 sdRecorder~ \$4;
#X obj 136 333 sdPropertyList events \$0;
#X obj 251 121 list;
#X obj 136 357 s \$0-fromObj;
#X obj 52 253 sdPackFilter info update;
#X msg 361 599 priv.set start stop;
#X obj 251 597 bng 15 250 50 0 empty empty empty 17 7 0 10 -262144
-1 -1;
#X obj 361 622 s \$0-events_rcv;
#X obj 269 541 sdPackFilter init;
#X obj 128 217 t a a;
#X obj 361 576 t b;
#X connect 0 0 24 0;
#X connect 1 0 23 0;
#X connect 2 0 26 0;
#X connect 4 0 10 0;
#X connect 4 1 8 0;
#X connect 6 0 5 0;
#X connect 7 0 5 1;
#X connect 7 0 11 0;
#X connect 8 0 7 0;
#X connect 9 0 24 1;
#X connect 9 1 21 0;
#X connect 10 0 6 0;
#X connect 11 0 15 0;
#X connect 12 0 11 1;
#X connect 15 0 13 0;
#X connect 17 0 16 0;
#X connect 17 1 4 0;
#X connect 21 0 25 0;
#X connect 22 0 33 0;
#X connect 22 1 18 0;
#X connect 23 0 22 0;
#X connect 23 1 21 0;
#X connect 23 2 17 0;
#X connect 24 0 3 0;
#X connect 25 0 27 0;
#X connect 25 1 24 1;
#X connect 26 0 23 1;
#X connect 28 1 9 0;
#X connect 29 0 31 0;
#X connect 32 0 34 0;
#X connect 33 0 28 0;
#X connect 33 1 32 0;
#X connect 34 0 29 0;
#X connect 34 0 30 0;
