#N canvas 0 473 798 411 10;
#X obj 36 37 inlet~;
#X obj 350 45 inlet;
#X msg 513 134 list start 0;
#X msg 538 86 list stop 0;
#X obj 112 124 tgl 15 0 \$0-rec \$0-rec_rcv empty 17 7 0 10 -262144
-1 -1 0 1;
#X obj 248 114 tgl 10 0 \$0-print_msgs empty empty 12 5 0 10 -262144
-1 -1 0 1;
#X text 188 110 prnt msgs;
#X obj 79 320 r \$0-print_msgs;
#X obj 46 343 sdGate;
#X obj 163 124 cnv 14 40 14 empty \$0-clock_rcv 6.7 1 9 1 14 -233017
-66577 0;
#X obj 513 39 r \$0-rec;
#X obj 513 62 route 1 0;
#X obj 513 157 s \$0-toObj;
#X obj 538 109 s \$0-toObj;
#X obj 265 198 r \$0-toObj;
#X obj 46 366 print \$1.out;
#X obj 401 268 r \$0-print_msgs;
#X obj 368 291 sdGate;
#X obj 368 314 print \$1.in;
#X obj 251 258 t a a;
#X obj 246 372 s \$0-rec_rcv;
#N canvas 0 473 798 411 update_ui 0;
#X obj 370 41 inlet;
#X obj 369 127 route start stop;
#X msg 369 180 1;
#X msg 415 180 0;
#X obj 377 210 sdSetSelector set;
#X obj 377 233 outlet;
#X obj 499 345 outlet;
#X obj 494 243 timer;
#X obj 521 220 metro 100;
#X obj 480 160 t b b;
#X msg 541 166 stop;
#X obj 494 266 / 1000;
#X msg 499 323 label \$1;
#X obj 494 289 l2s;
#X obj 370 64 sdEventToProperties;
#X obj 60 36 inlet;
#X obj 70 97 sdObjTrack table;
#X obj 70 120 sdUnPack;
#X obj 140 335 outlet;
#X obj 140 312 sdSetSelector set;
#X obj 140 232 sdList;
#X msg 191 205 list tab1 tab2;
#X msg 90 179 find \$1;
#X obj 140 255 route -1;
#X obj 191 182 loadbang;
#X connect 0 0 14 0;
#X connect 1 0 2 0;
#X connect 1 0 9 0;
#X connect 1 1 3 0;
#X connect 1 1 10 0;
#X connect 2 0 4 0;
#X connect 3 0 4 0;
#X connect 4 0 5 0;
#X connect 7 0 11 0;
#X connect 8 0 7 1;
#X connect 9 0 7 0;
#X connect 9 1 8 0;
#X connect 10 0 8 0;
#X connect 11 0 13 0;
#X connect 12 0 6 0;
#X connect 13 0 12 0;
#X connect 14 0 1 0;
#X connect 15 0 16 0;
#X connect 16 0 17 0;
#X connect 17 0 22 0;
#X connect 19 0 18 0;
#X connect 20 0 23 0;
#X connect 21 0 20 1;
#X connect 22 0 20 0;
#X connect 23 1 19 0;
#X connect 24 0 21 0;
#X restore 212 320 pd update_ui;
#X obj 281 348 s \$0-clock_rcv;
#X obj 219 144 hradio 15 1 0 2 \$0-tab \$0-tab_rcv table 0 -8 0 10
-262144 -1 -1 0;
#X obj 655 34 r \$0-tab;
#X obj 655 103 sdPack table;
#X obj 655 126 sdPack set;
#X msg 655 80 symbol tab\$1;
#X obj 655 57 + 1;
#X obj 655 149 s \$0-toObj;
#X obj 84 256 t a a;
#X obj 212 398 s \$0-tab_rcv;
#X text 128 122 time:;
#X obj 84 233 sdRecorderSampObj~ \$1 \$2 \$3;
#X obj 112 157 tgl 15 0 \$0-samp \$0-samp_rcv empty 17 7 0 10 -262144
-1 -1 0 1;
#X text 99 109 rec;
#X text 100 141 sample;
#X obj 603 280 r \$0-samp;
#X obj 588 431 s \$0-toObj;
#X msg 603 326 list sample.start 0;
#X msg 628 349 list sample.stop 0;
#X obj 603 303 route 1 0;
#X connect 0 0 33 0;
#X connect 1 0 33 1;
#X connect 2 0 12 0;
#X connect 3 0 13 0;
#X connect 7 0 8 1;
#X connect 8 0 15 0;
#X connect 10 0 11 0;
#X connect 11 0 2 0;
#X connect 11 1 3 0;
#X connect 14 0 33 1;
#X connect 16 0 17 1;
#X connect 17 0 18 0;
#X connect 19 0 21 1;
#X connect 19 1 17 0;
#X connect 21 0 31 0;
#X connect 21 1 20 0;
#X connect 21 2 22 0;
#X connect 24 0 28 0;
#X connect 25 0 26 0;
#X connect 26 0 29 0;
#X connect 27 0 25 0;
#X connect 28 0 27 0;
#X connect 30 0 21 0;
#X connect 30 1 8 0;
#X connect 33 0 30 0;
#X connect 33 1 19 0;
#X connect 37 0 41 0;
#X connect 39 0 38 0;
#X connect 40 0 38 0;
#X connect 41 0 39 0;
#X connect 41 1 40 0;
#X coords 0 -1 1 1 160 75 1 100 100;
