#N canvas 0 30 681 722 10;
#X obj 136 177 sdRecorder~ \$1;
#X obj 189 14 inlet;
#X obj 449 295 timer;
#X obj 189 37 route sample.start sample.stop;
#X obj 189 83 s \$0-sample.start;
#X obj 277 60 s \$0-sample.stop;
#X obj 327 235 r \$0-start;
#X obj 145 294 s \$0-start;
#X obj 214 294 s \$0-stop;
#X obj 140 736 outlet;
#X obj 476 272 r \$0-sample.start;
#X obj 327 258 t b b;
#X obj 268 315 timer;
#X obj 295 292 r \$0-sample.stop;
#X obj 18 21 inlet~;
#X obj 265 426 t b f;
#X obj 296 524 sdData;
#X msg 221 499 bang \, clear;
#X obj 296 547 sdPack sample;
#X obj 273 644 sdData;
#X obj 191 588 r \$0-start;
#X obj 298 575 t b a;
#X obj 273 667 sdSetSelector samples;
#X msg 191 611 clear \, bang;
#X obj 449 471 sdPack begin;
#X obj 276 379 -;
#X obj 293 452 sdPack length;
#X obj 426 64 t a a;
#X obj 500 305 bng 15 250 50 0 empty empty empty 17 7 0 10 -262144
-1 -1;
#X obj 136 200 t a a;
#X obj 163 270 route 1 0;
#X msg 455 560 priv.set_noupdate 1;
#X msg 599 561 priv.set_noupdate 0;
#X obj 455 633 route 1 0;
#X obj 488 137 sdProperty is_sampling \$0 0 intern 0 1 1, f 25;
#X obj 488 173 s \$0-out;
#X obj 157 698 r \$0-out;
#X obj 455 537 r \$0-sample.start;
#X obj 599 538 r \$0-sample.stop;
#X obj 455 583 s \$0-is_sampling_rcv;
#X obj 599 584 s \$0-is_sampling_rcv;
#X obj 455 610 r \$0-is_sampling;
#X obj 455 681 s \$0-sample.start;
#X obj 480 657 s \$0-sample.stop;
#X obj 163 240 route is_recording;
#X obj 462 88 route start stop;
#X connect 0 0 29 0;
#X connect 1 0 3 0;
#X connect 2 0 24 0;
#X connect 2 0 25 1;
#X connect 3 0 4 0;
#X connect 3 1 5 0;
#X connect 3 2 27 0;
#X connect 6 0 11 0;
#X connect 10 0 2 1;
#X connect 10 0 28 0;
#X connect 11 0 12 0;
#X connect 11 1 2 0;
#X connect 12 0 25 0;
#X connect 13 0 12 1;
#X connect 14 0 0 0;
#X connect 15 0 17 0;
#X connect 15 1 26 0;
#X connect 16 0 18 0;
#X connect 17 0 16 0;
#X connect 18 0 21 0;
#X connect 19 0 22 0;
#X connect 20 0 23 0;
#X connect 21 0 19 0;
#X connect 21 1 19 1;
#X connect 22 0 9 0;
#X connect 23 0 19 0;
#X connect 24 0 16 1;
#X connect 25 0 15 0;
#X connect 26 0 16 1;
#X connect 27 0 45 0;
#X connect 27 1 0 1;
#X connect 29 0 9 0;
#X connect 29 1 44 0;
#X connect 30 0 7 0;
#X connect 30 1 8 0;
#X connect 31 0 39 0;
#X connect 32 0 40 0;
#X connect 33 0 42 0;
#X connect 33 1 43 0;
#X connect 34 0 35 0;
#X connect 36 0 9 0;
#X connect 37 0 31 0;
#X connect 38 0 32 0;
#X connect 41 0 33 0;
#X connect 44 0 30 0;
#X connect 45 2 34 0;
