#N canvas 0 473 798 411 10;
#X obj 30 50 inlet~;
#X obj 108 51 inlet;
#X obj 205 167 sdObjState \$1 \$2;
#X obj 319 159 r \$0-fromObj;
#X obj 45 418 s \$0-fromObj;
#X obj 379 233 t a a;
#X obj 464 343 send;
#X obj 333 295 sdPack set;
#X obj 500 301 sdUnPack;
#X obj 500 278 sdObjTrack table;
#X obj 40 391 list;
#X obj 144 286 sdEventToProperties;
#X obj 65 258 sdPackFilter info update;
#X obj 545 339 pack s s;
#X obj 615 335 sdSymbolBang \$1;
#X obj 545 386 print -n;
#X text 563 313 print info for the dumb user;
#X msg 545 362 \$2: connected \$2 -> \$1;
#X obj 260 418 outlet;
#X obj 335 201 t a a;
#X obj 489 423 outlet;
#X text 257 449 out;
#X text 492 449 in;
#X obj 208 314 t a;
#X obj 185 208 t a a;
#X obj 38 364 sdRecorderSamp~ \$3;
#X obj 333 272 sdObjTrack length samples;
#X connect 0 0 25 0;
#X connect 1 0 2 0;
#X connect 2 0 24 0;
#X connect 2 1 23 0;
#X connect 2 2 19 0;
#X connect 3 0 2 1;
#X connect 5 0 26 0;
#X connect 5 1 9 0;
#X connect 7 0 6 0;
#X connect 8 0 6 1;
#X connect 8 0 13 0;
#X connect 9 0 8 0;
#X connect 10 0 4 0;
#X connect 11 0 23 0;
#X connect 11 1 23 0;
#X connect 12 1 11 0;
#X connect 13 0 17 0;
#X connect 14 0 13 1;
#X connect 17 0 15 0;
#X connect 19 0 18 0;
#X connect 19 1 5 0;
#X connect 23 0 25 1;
#X connect 24 0 12 0;
#X connect 24 1 20 0;
#X connect 25 0 10 0;
#X connect 26 0 7 0;
