#N canvas 0 30 681 722 10;
#X obj 108 51 inlet;
#X obj 259 118 r \$0-fromObj;
#X obj 117 435 s \$0-fromObj;
#X obj 379 233 t a a;
#X obj 464 343 send;
#X obj 382 297 sdPack set;
#X obj 500 301 sdUnPack;
#X obj 500 278 sdObjTrack table;
#X obj 100 281 sdEventToProperties;
#X obj 382 274 sdObjTrack length;
#X obj 545 339 pack s s;
#X obj 615 335 sdSymbolBang \$1;
#X obj 545 386 print -n;
#X text 563 313 print info for the dumb user;
#X msg 545 362 \$2: connected \$2 -> \$1;
#X obj 260 418 outlet;
#X obj 335 201 t a a;
#X obj 489 423 outlet;
#X text 257 449 out;
#X text 492 449 in;
#X obj 229 306 t a;
#X obj 205 191 t a a;
#X obj 205 167 sdObjState \$1 \$2 \$3;
#X obj 260 141 list;
#X obj 52 253 sdPackFilter info update;
#X obj 128 217 t a a;
#X obj 36 411 sdTabWrite~ \$4;
#X obj 14 49 inlet;
#X obj 36 434 outlet;
#X connect 0 0 22 0;
#X connect 1 0 23 0;
#X connect 3 0 9 0;
#X connect 3 1 7 0;
#X connect 5 0 4 0;
#X connect 6 0 4 1;
#X connect 6 0 10 0;
#X connect 7 0 6 0;
#X connect 8 0 26 1;
#X connect 8 1 20 0;
#X connect 9 0 5 0;
#X connect 10 0 14 0;
#X connect 11 0 10 1;
#X connect 14 0 12 0;
#X connect 16 0 15 0;
#X connect 16 1 3 0;
#X connect 20 0 26 1;
#X connect 21 0 25 0;
#X connect 21 1 17 0;
#X connect 22 0 21 0;
#X connect 22 1 20 0;
#X connect 22 2 16 0;
#X connect 23 0 22 1;
#X connect 24 1 8 0;
#X connect 25 0 24 0;
#X connect 26 0 28 0;
#X connect 26 1 2 0;
#X connect 27 0 26 0;
