#N canvas 0 30 681 345 10;
#X obj 130 158 sdCounter -1;
#X obj 130 183 t f f, f 18;
#X obj 130 132 until;
#X msg 191 130 0;
#X obj 148 30 t b b;
#X obj 193 -2 bng 15 250 50 0 empty empty empty 17 7 0 10 -262144 -1
-1;
#X obj 107 241 outlet;
#X obj 108 265 inlet;
#X obj 279 30 inlet;
#X obj 342 170 outlet;
#X obj 199 36 r \$0-size;
#X obj 124 74 f;
#X text 54 217 [0 \, 1]:;
#X obj 108 288 tabwrite \$1;
#X msg 13 265 set \$1.array;
#X obj 13 241 r \$0-table;
#X obj 319 77 sdPropertySym table \$0 \$1 update;
#X obj 361 110 sdProperty size \$0 \$2 intern;
#X obj 43 15 inlet;
#X obj 156 240 outlet;
#X obj 124 97 t f f;
#X obj 199 59 + 3;
#X connect 0 0 1 0;
#X connect 1 0 6 0;
#X connect 1 1 13 1;
#X connect 2 0 0 0;
#X connect 3 0 0 0;
#X connect 4 0 11 0;
#X connect 4 1 3 0;
#X connect 5 0 4 0;
#X connect 7 0 13 0;
#X connect 8 0 16 0;
#X connect 10 0 21 0;
#X connect 11 0 20 0;
#X connect 14 0 13 0;
#X connect 15 0 14 0;
#X connect 16 0 9 0;
#X connect 16 1 17 0;
#X connect 17 0 9 0;
#X connect 18 0 4 0;
#X connect 20 0 2 0;
#X connect 20 1 19 0;
#X connect 21 0 11 1;
