#N canvas 0 30 762 736 10;
#X obj 612 599 outlet;
#X obj 26 600 outlet~;
#X obj 342 7 inlet;
#X obj 112 278 r~ \$0-pos;
#X obj 196 254 r~ \$0-tapeSpeed;
#X obj 264 277 r \$0-tapeInput;
#X obj 369 56 s \$0-tapeInput;
#X obj 318 393 s \$0-out;
#X obj 612 576 r \$0-out;
#X obj 80 324 throw~ \$0-audioOut;
#X obj 26 505 catch~ \$0-audioOut;
#X obj 342 32 t a a;
#X floatatom 31 172 5 0 0 0 - - -;
#X obj 31 149 r \$0-window.length;
#X obj 217 326 s~ \$0-phase1;
#X obj 422 270 r~ \$0-pos;
#X obj 569 271 r \$0-tapeInput;
#X obj 395 319 throw~ \$0-audioOut;
#X obj 520 320 s~ \$0-phase2;
#X obj 216 548 -~;
#X obj 31 198 r \$0-sample.delta;
#X floatatom 31 221 5 0 0 0 - - -;
#X obj 342 126 s \$0-init;
#X obj 342 79 route init;
#X msg 342 103 init;
#X obj 216 571 sdSig2Num_ui~ -1 1;
#X obj 306 323 t a a;
#X obj 338 350 route sample.length;
#X obj 338 373 s \$0-sample.length;
#X obj 44 25 inlet~;
#X obj 44 50 s~ \$0-pos;
#X obj 165 47 s~ \$0-tapeSpeed;
#X obj 129 300 sdReadGranular~ \$1 \$2 0;
#X obj 165 25 inlet~;
#X obj 495 246 r~ \$0-tapeSpeed;
#X obj 139 423 r~ \$0-pos;
#X obj 286 424 r \$0-tapeInput;
#X obj 112 472 throw~ \$0-audioOut;
#X obj 139 447 sdReadGranular~ \$1 \$2 0.5;
#X obj 212 399 r~ \$0-tapeSpeed;
#X obj 237 473 s~ \$0-phase3;
#X obj 422 294 sdReadGranular~ \$1 \$2 0.25;
#X obj 413 431 r~ \$0-pos;
#X obj 566 431 r \$0-tapeInput;
#X obj 386 480 throw~ \$0-audioOut;
#X obj 488 406 r~ \$0-tapeSpeed;
#X obj 413 455 sdReadGranular~ \$1 \$2 0.75;
#X obj 511 481 s~ \$0-phase4;
#X connect 2 0 11 0;
#X connect 3 0 32 0;
#X connect 4 0 32 1;
#X connect 5 0 32 2;
#X connect 8 0 0 0;
#X connect 10 0 1 0;
#X connect 11 0 23 0;
#X connect 11 1 6 0;
#X connect 13 0 12 0;
#X connect 15 0 41 0;
#X connect 16 0 41 2;
#X connect 19 0 25 0;
#X connect 20 0 21 0;
#X connect 23 0 24 0;
#X connect 24 0 22 0;
#X connect 26 0 7 0;
#X connect 26 1 27 0;
#X connect 27 0 28 0;
#X connect 29 0 30 0;
#X connect 32 0 9 0;
#X connect 32 2 14 0;
#X connect 32 3 26 0;
#X connect 33 0 31 0;
#X connect 34 0 41 1;
#X connect 35 0 38 0;
#X connect 36 0 38 2;
#X connect 38 0 37 0;
#X connect 38 2 40 0;
#X connect 39 0 38 1;
#X connect 41 0 17 0;
#X connect 41 2 18 0;
#X connect 42 0 46 0;
#X connect 43 0 46 2;
#X connect 45 0 46 1;
#X connect 46 0 44 0;
#X connect 46 2 47 0;
