#N canvas 0 30 681 722 10;
#X obj 179 230 sdData;
#X msg 143 196 serialize;
#X obj 179 253 sdUnPack;
#X obj 143 41 t b b, f 24;
#X msg 298 246 clear;
#X obj 143 173 t b a, f 19;
#X obj 99 154 t b a;
#X obj 160 293 sdList;
#X obj 129 16 inlet;
#X obj 160 316 outlet;
#X obj 143 88 sdObjSaveAll \$1;
#X msg 143 64 save;
#X obj 143 111 route state;
#X obj 143 134 list;
#X obj 218 200 sdSetSelector set;
#X connect 0 0 2 0;
#X connect 1 0 0 0;
#X connect 2 2 7 1;
#X connect 3 0 11 0;
#X connect 3 1 4 0;
#X connect 4 0 7 0;
#X connect 5 0 1 0;
#X connect 5 1 14 0;
#X connect 6 0 7 0;
#X connect 6 1 5 0;
#X connect 7 0 9 0;
#X connect 8 0 3 0;
#X connect 10 0 12 0;
#X connect 11 0 10 0;
#X connect 12 0 13 0;
#X connect 13 0 6 0;
#X connect 14 0 0 0;
