#N canvas 0 30 844 345 10;
#X msg 143 64 save \, get;
#X obj 179 230 sdData;
#X obj 143 110 sdSetSelector set;
#X msg 143 196 serialize;
#X obj 179 253 sdUnPack;
#X obj 143 41 t b b, f 24;
#X msg 298 246 clear;
#X obj 143 173 t b a, f 19;
#X obj 116 136 t b a;
#X obj 160 293 sdList;
#X obj 129 16 inlet;
#X obj 160 316 outlet;
#X obj 143 87 sdObjSaveAll \$1;
#X connect 0 0 12 0;
#X connect 1 0 4 0;
#X connect 2 0 8 0;
#X connect 3 0 1 0;
#X connect 4 2 9 1;
#X connect 5 0 0 0;
#X connect 5 1 6 0;
#X connect 6 0 9 0;
#X connect 7 0 3 0;
#X connect 7 1 1 0;
#X connect 8 0 9 0;
#X connect 8 1 7 0;
#X connect 9 0 11 0;
#X connect 10 0 5 0;
#X connect 12 0 2 0;
